<svg width="35" height="33" viewBox="0 0 35 33" fill="none" xmlns="http://www.w3.org/2000/svg">
<path d="M22.0643 20.5429C25.5178 15.8262 24.7789 9.17257 20.2462 5.3408C18.6783 4.01537 16.8531 3.19372 14.9674 2.85934C17.789 2.26151 20.8471 2.92708 23.2202 4.93327C27.2982 8.38065 27.8094 14.4811 24.362 18.5591C23.6863 19.3584 22.9087 20.0206 22.0643 20.5429Z" fill="url(#paint0_linear_913_459)"/>
<path d="M21.3057 14.108C18.0368 9.26148 11.5259 7.70405 6.38581 10.6717C4.60782 11.6982 3.21671 13.1375 2.26364 14.7986C2.65642 11.9413 4.31808 9.28909 7.00927 7.73533C11.6337 5.0654 17.547 6.64985 20.2169 11.2743C20.7402 12.1807 21.1001 13.1366 21.3057 14.108Z" fill="url(#paint1_linear_913_459)"/>
<path d="M14.9425 13.2793C9.46132 15.3117 6.41099 21.271 8.08142 26.9663C8.65923 28.9364 9.72947 30.6279 11.1187 31.9462C8.43479 30.89 6.24981 28.6493 5.37522 25.6674C3.87236 20.5434 6.80788 15.1712 11.9319 13.6684C12.9362 13.3738 13.9501 13.2497 14.9425 13.2793Z" fill="url(#paint2_linear_913_459)"/>
<path d="M12.5215 18.578C12.6412 24.4226 17.2683 29.2607 23.1964 29.5533C25.2469 29.6544 27.1961 29.199 28.8974 28.3198C27.0185 30.508 24.1845 31.836 21.0807 31.6828C15.7474 31.4196 11.6372 26.8828 11.9003 21.5494C11.9519 20.504 12.1677 19.5057 12.5215 18.578Z" fill="url(#paint3_linear_913_459)"/>
<path d="M17.4153 22.6046C23.0452 24.1787 29.0139 21.147 31.0068 15.5563C31.6962 13.6225 31.8235 11.6248 31.4733 9.74199C33.0252 12.1731 33.4777 15.2699 32.4343 18.197C30.6413 23.2268 25.1103 25.8508 20.0804 24.0578C19.0946 23.7064 18.2011 23.2113 17.4153 22.6046Z" fill="url(#paint4_linear_913_459)"/>
<defs>
<linearGradient id="paint0_linear_913_459" x1="26.5151" y1="16.0121" x2="13.2957" y2="4.83679" gradientUnits="userSpaceOnUse">
<stop stop-color="white"/>
<stop offset="1" stop-color="white" stop-opacity="0.75"/>
</linearGradient>
<linearGradient id="paint1_linear_913_459" x1="18.5493" y1="8.386" x2="3.55832" y2="17.0411" gradientUnits="userSpaceOnUse">
<stop stop-color="white"/>
<stop offset="1" stop-color="white" stop-opacity="0.75"/>
</linearGradient>
<linearGradient id="paint2_linear_913_459" x1="8.73157" y1="14.607" x2="13.6034" y2="31.2174" gradientUnits="userSpaceOnUse">
<stop stop-color="white"/>
<stop offset="1" stop-color="white" stop-opacity="0.75"/>
</linearGradient>
<linearGradient id="paint3_linear_913_459" x1="11.736" y1="24.8805" x2="29.0251" y2="25.7336" gradientUnits="userSpaceOnUse">
<stop stop-color="white"/>
<stop offset="1" stop-color="white" stop-opacity="0.75"/>
</linearGradient>
<linearGradient id="paint4_linear_913_459" x1="23.2219" y1="25.1777" x2="29.0343" y2="8.87254" gradientUnits="userSpaceOnUse">
<stop stop-color="white"/>
<stop offset="1" stop-color="white" stop-opacity="0.75"/>
</linearGradient>
</defs>
</svg>
