<svg width="364" height="234" viewBox="0 0 364 234" fill="none" xmlns="http://www.w3.org/2000/svg">
<g filter="url(#filter0_b_47_527)">
<rect x="2" y="2" width="360" height="230" rx="15.1928" fill="url(#paint0_linear_47_527)"/>
<rect x="1.36697" y="1.36697" width="361.266" height="231.266" rx="15.8259" stroke="url(#paint1_radial_47_527)" stroke-width="1.26607"/>
<rect x="1.36697" y="1.36697" width="361.266" height="231.266" rx="15.8259" stroke="url(#paint2_linear_47_527)" stroke-opacity="0.4" stroke-width="1.26607"/>
<rect x="1.36697" y="1.36697" width="361.266" height="231.266" rx="15.8259" stroke="url(#paint3_linear_47_527)" stroke-width="1.26607"/>
</g>
<mask id="mask0_47_527" style="mask-type:alpha" maskUnits="userSpaceOnUse" x="2" y="2" width="360" height="230">
<rect x="2" y="2" width="360" height="230" rx="15.4" fill="#16084C"/>
<rect x="2" y="2" width="360" height="230" rx="15.4" fill="url(#paint4_linear_47_527)" fill-opacity="0.5"/>
</mask>
<g mask="url(#mask0_47_527)">
<path d="M130.1 17.2547C128.487 17.3535 126.84 17.6168 126.478 17.8144C126.116 18.0119 123.515 18.2753 120.717 18.3741C116.074 18.5387 108.271 19.4277 107.876 19.8557C107.777 19.9216 107.909 20.0862 108.139 20.152C108.567 20.3166 108.699 21.2385 108.304 21.2385C108.139 21.2715 106.427 21.469 104.452 21.6995C100.633 22.1933 99.8095 22.6214 100.929 23.5762C101.522 24.07 102.509 24.3005 107.316 25.1565C110.576 25.7492 111.959 27.2966 110.675 29.0087C109.95 29.9964 110.082 30.3257 111.432 30.6878L112.65 31.0171L111.267 31.2805C110.148 31.478 109.851 31.6756 109.851 32.2024C109.851 32.7621 110.016 32.8279 110.971 32.6633C111.893 32.5316 112.09 32.5645 111.926 32.9596C111.827 33.223 111.432 33.4206 111.004 33.4206C110.543 33.4206 109.917 33.8486 109.391 34.54C108.633 35.5606 108.534 35.9557 108.534 38.5568C108.534 42.3101 109.325 45.2733 110.312 45.2733C110.675 45.2733 111.498 45.5697 112.123 45.9648C113.769 46.9525 115.152 46.6232 116.535 44.8124C117.128 44.0222 118.544 42.376 119.663 41.1578L121.704 38.9189L124.931 38.1946C127.268 37.6678 128.651 37.141 129.935 36.285C131.68 35.1326 139.088 32.5974 141.294 32.367C142.216 32.2682 142.282 32.1694 142.381 30.8854C142.48 29.4038 143.171 28.6136 145.443 27.3954C146.233 26.9345 146.398 26.704 146.101 26.5064C145.509 26.1772 145.904 24.531 146.562 24.531C147.319 24.531 147.451 23.9383 146.891 22.9177C146.332 21.7982 146.266 21.8312 148.867 20.9751C149.953 20.613 151.665 19.9216 152.653 19.4277L154.464 18.5717L152.159 18.7692C150.908 18.868 149.525 19.0326 149.13 19.1314C148.735 19.1972 148.307 19.0655 148.143 18.8021C148.011 18.5717 146.496 18.0449 144.817 17.6498C141.624 16.9254 137.146 16.8267 130.1 17.2547Z" fill="black" fill-opacity="0.15"/>
<path d="M98.3281 17.9788C95.76 18.4398 87.1667 19.2629 86.6728 19.0653C86.4094 18.9666 85.5863 19.2958 84.7961 19.8226C83.8413 20.4481 83.3475 20.6128 83.2487 20.3165C82.9853 19.4933 82.5244 19.9543 82.5244 21.0408C82.5244 22.4895 83.5121 23.2796 84.9278 22.9833C86.8375 22.5882 85.5205 23.5101 83.1499 24.2015C81.0757 24.8271 80.7464 24.86 80.2855 24.3991C79.9563 24.1357 79.1331 23.8723 78.4088 23.8064C77.1906 23.7077 77.0918 23.7735 76.9272 24.6954C76.7955 25.5185 76.598 25.6831 75.7749 25.6831C75.0505 25.6831 74.82 25.5514 74.8859 25.1234C74.9847 24.4978 74.82 24.3662 73.4701 24.0698C72.6141 23.8723 72.3836 23.9711 71.8569 24.86C71.5276 25.4197 71.3301 25.9465 71.4288 26.0453C71.4947 26.1441 72.8775 26.3416 74.4908 26.5392L77.4211 26.8684L78.1125 25.9794C78.8039 25.1234 79.6929 25.1234 79.3636 25.9465C79.1002 26.6709 82.9524 27.2306 85.2571 26.8684C86.3107 26.6709 87.5947 26.605 88.0557 26.7038C89.0105 26.9013 90.4591 26.0782 89.9982 25.6502C89.8665 25.5185 88.352 25.3868 86.6399 25.3539C83.8743 25.3539 83.5779 25.288 84.0389 24.86C84.401 24.4978 85.3559 24.3662 87.7593 24.3332C89.5043 24.3332 91.1176 24.2015 91.3152 24.1028C91.5127 23.9711 91.9078 23.9711 92.2041 24.0698C92.4675 24.1686 94.1467 23.576 95.9246 22.7199C97.7025 21.8639 100.205 20.8762 101.456 20.5469C103.596 19.9543 104.748 19.6909 110.444 18.5715C111.564 18.341 112.486 18.0776 112.486 17.9788C112.486 17.6825 99.9743 17.6825 98.3281 17.9788Z" fill="black" fill-opacity="0.15"/>
<path d="M79.0015 21.2382C78.343 21.5016 78.2772 21.6333 78.6064 22.3576C79.3637 24.0368 80.8124 23.8063 80.6148 22.0613C80.4831 20.876 80.2197 20.7443 79.0015 21.2382Z" fill="black" fill-opacity="0.15"/>
<path d="M65.9632 21.7649C65.4364 22.0283 64.745 22.5551 64.3828 22.9173C63.7572 23.5428 63.7572 23.5428 64.6791 23.5428C65.7656 23.5428 67.8069 22.3576 67.6423 21.8308C67.4448 21.2381 66.9838 21.2052 65.9632 21.7649Z" fill="black" fill-opacity="0.15"/>
<path d="M72.8774 21.4688C72.3836 21.9627 72.7457 22.2261 74.4578 22.72C75.8077 23.115 76.4003 23.1809 76.9271 22.8846C77.849 22.3907 77.5527 22.0615 75.8077 21.6005C74.1286 21.1725 73.1737 21.1396 72.8774 21.4688Z" fill="black" fill-opacity="0.15"/>
<path d="M56.8434 23.6091C55.4935 23.9713 53.8144 24.3335 53.1559 24.4323C51.6414 24.6298 51.8389 25.1895 53.4193 25.1895C54.1107 25.1895 54.8021 25.4529 55.1972 25.848C55.5594 26.2102 56.152 26.5065 56.4813 26.5065C56.8434 26.5065 57.5678 26.7699 58.0946 27.0662C59.0165 27.593 59.1811 27.593 60.7944 27.0662C61.7492 26.7699 63.2637 26.5065 64.1527 26.5065C65.7989 26.5065 67.05 26.0785 67.05 25.5188C67.05 25.3212 66.8195 25.1895 66.5232 25.1895C66.194 25.1895 66.0623 24.992 66.194 24.6957C66.4574 24.0042 65.6672 24.0701 64.2514 24.8932C63.0332 25.6175 62.5723 25.6175 60.3334 24.7615C59.6091 24.4981 59.214 24.2018 59.4445 24.0701C59.8396 23.8067 59.9383 22.8519 59.5762 22.9177C59.4115 22.9507 58.1933 23.247 56.8434 23.6091Z" fill="black" fill-opacity="0.15"/>
<path d="M256.694 23.5101C256.233 23.6418 255.871 23.9052 255.871 24.1357C255.871 24.86 254.949 25.1892 252.875 25.1892C250.768 25.1892 245.698 26.0123 244.842 26.5062C244.414 26.7696 244.414 26.8354 244.94 27.0001C246.159 27.4939 245.368 27.8232 242.965 27.8232L240.397 27.8561L241.549 28.8109C242.175 29.3706 243.064 29.7986 243.525 29.7986C244.282 29.8316 244.282 29.8645 243.722 30.1937C243.261 30.4571 242.833 30.4242 241.977 29.9962C240.891 29.4694 238.553 29.2719 238.158 29.6669C237.796 30.062 238.323 30.7864 239.014 30.7864C239.508 30.7864 239.607 30.8851 239.343 31.1485C238.718 31.7741 237.631 31.1156 236.94 29.7657C236.578 29.0414 236.018 28.4817 235.721 28.4817C235.261 28.4817 235.293 28.6134 235.919 29.2719C236.545 29.9303 236.578 30.062 236.149 30.2267C235.392 30.523 235.524 31.2473 236.38 31.6095C236.775 31.807 237.137 32.268 237.203 32.6631C237.368 33.8154 238.092 34.2105 239.31 33.7825C240.002 33.5191 240.463 33.5191 240.693 33.7496C241.022 34.0788 240.594 34.2105 239.672 34.1117C239.08 34.0459 238.816 34.7044 239.211 35.1982C239.87 35.9884 238.981 37.3712 237.862 37.3712C236.874 37.3712 236.61 36.9103 237.434 36.5811C238.158 36.3177 238.059 34.6385 237.269 34.1447C236.907 33.9471 236.347 33.1898 235.985 32.4655C235.623 31.7741 235.096 31.1156 234.8 31.0168C234.536 30.8851 234.306 30.4242 234.306 29.9633C234.306 29.3706 234.141 29.1402 233.68 29.1402C233.318 29.1402 232.791 28.9097 232.528 28.6134C231.738 27.8232 230.75 28.317 230.487 29.634C230.388 30.2267 230.058 30.8193 229.795 30.951C229.334 31.1156 229.334 31.1815 229.762 31.7083C230.026 32.0046 230.355 32.4984 230.454 32.8277C230.552 33.124 231.112 33.4532 231.672 33.5849C232.594 33.7825 233.318 34.5397 232.923 34.9019C232.857 34.9678 231.672 34.6714 230.322 34.2105C229.005 33.7496 227.062 33.2886 226.075 33.1898C225.087 33.0911 223.935 32.7948 223.539 32.5643C223.144 32.3009 222.585 32.1033 222.288 32.1033C221.366 32.1033 221.794 32.6631 223.144 33.1898C224.363 33.6508 224.461 33.8154 224.099 34.2434C223.704 34.7373 223.605 34.7044 223.309 34.1117C223.013 33.5849 222.815 33.5191 222.288 33.8154C221.926 34.0459 221.136 34.3093 220.477 34.441C219.852 34.5397 219.062 34.7702 218.765 34.9019C218.337 35.0665 218.173 34.9678 218.173 34.6056C218.173 34.3093 217.942 34.0788 217.646 34.0788C216.823 34.0788 212.773 35.758 212.378 36.2518C211.983 36.7457 210.864 36.8774 210.501 36.4823C210.37 36.3835 210.436 36.0872 210.633 35.8238C211.226 35.1324 210.37 34.4081 208.954 34.4081H207.703L208.493 35.9226C209.382 37.6346 209.316 37.9639 208.197 37.47C207.604 37.2066 207.275 37.2396 206.682 37.7334C206.254 38.0956 205.694 38.359 205.431 38.359C205.102 38.359 205.036 38.5565 205.168 38.9845C205.365 39.676 204.838 40.2357 204.509 39.676C204.246 39.2479 201.711 39.2479 201.711 39.676C201.711 39.8406 202.073 40.0711 202.534 40.2028C202.995 40.3015 203.357 40.5649 203.357 40.7295C203.357 41.1576 201.842 40.7954 200.558 40.0381C199.999 39.7089 199.57 39.215 199.57 38.8199C199.57 38.4907 199.274 38.0297 198.912 37.7993C198.286 37.4042 198.286 37.4042 199.077 37.4042C199.538 37.4042 200.723 37.5359 201.711 37.6676C204.015 38.0297 205.991 37.3712 205.991 36.2518C205.991 35.5933 205.727 35.4287 204.114 35.0995C203.06 34.869 200.591 34.2434 198.649 33.7166C196.673 33.1569 194.862 32.7948 194.566 32.8935C194.237 33.0252 194.138 32.9265 194.303 32.4655C194.467 31.9387 194.237 31.7741 192.92 31.5107C191.833 31.2802 191.208 31.2802 190.944 31.5107C190.681 31.7083 189.924 31.7741 189.101 31.6753C187.52 31.4449 183.767 32.3009 180.079 33.6837C177.807 34.5397 177.083 35.0665 178.17 35.0665C178.433 35.0665 178.663 35.1982 178.663 35.3958C178.663 35.725 176.984 37.3712 176.655 37.3712C176.359 37.3712 175.042 39.6101 175.042 40.0711C175.042 40.8612 173.988 41.6514 173.396 41.3222C171.716 40.4332 168.128 43.0013 168.128 45.1414C168.128 45.767 168.325 46.3596 168.556 46.4584C168.819 46.5572 168.951 46.9852 168.852 47.5449C168.753 48.3351 168.885 48.5326 169.873 48.9936C171.354 49.7179 171.321 49.7179 173.033 48.5656C174.68 47.4461 175.042 47.3474 175.042 48.0717C175.042 48.368 175.404 49.1582 175.865 49.8496C176.721 51.1007 176.688 52.1872 175.865 52.1872C175.634 52.1872 175.206 52.286 174.943 52.3848C174.548 52.5165 174.482 52.3848 174.614 51.9238C174.68 51.5617 174.614 51.1666 174.416 51.0678C174.252 50.9361 174.153 50.6398 174.285 50.3764C174.581 49.5533 173.132 49.7838 172.243 50.7056C171.288 51.6275 171.223 52.4836 171.947 53.8993C172.572 55.1504 172.309 55.4797 170.399 55.7101C168.259 55.9735 167.206 56.632 167.074 57.6856C167.008 58.4429 166.646 58.7721 165.23 59.4306C164.308 59.8915 163.42 60.5171 163.321 60.8463C163.222 61.1756 162.662 61.6365 162.103 61.867C161.214 62.2292 160.917 62.2292 160.16 61.8341C159.139 61.3402 159.106 61.3731 159.534 62.4926C159.831 63.2827 159.831 63.3157 158.58 63.1511C157.131 62.9535 155.616 63.2498 155.616 63.7108C155.616 63.8754 156.308 64.4022 157.197 64.8302C159.172 65.8179 160.028 67.3983 159.699 69.5055C159.567 70.4603 159.304 70.9871 158.909 71.1188C158.053 71.3822 152.884 71.2175 152.225 70.8883C151.83 70.6907 151.27 70.7237 150.645 71.02C149.69 71.448 149.657 71.5139 149.855 73.0942C149.986 74.2795 149.888 75.2343 149.394 76.5513C148.966 77.7695 148.867 78.5267 149.064 78.9218C149.229 79.2182 149.361 79.8766 149.361 80.3376C149.361 81.1607 149.427 81.1936 150.645 80.9961C151.83 80.7985 151.962 80.8644 152.554 81.885C153.147 82.9057 153.18 83.0374 152.653 84.1897C152.324 84.9799 151.435 85.9018 150.316 86.7249C148.307 88.1736 147.715 89.1284 147.715 91.0051C147.715 92.0916 147.484 92.4867 146.068 93.8037C145.179 94.6268 144.159 95.3182 143.797 95.3182C143.434 95.3182 142.941 95.6474 142.743 96.0425C142.513 96.4705 141.854 97.3595 141.228 98.0509C140.603 98.7423 140.175 99.5325 140.274 99.763C140.339 99.9935 140.01 100.586 139.483 101.08C138.99 101.574 138.463 102.463 138.364 103.055C138.232 103.648 137.936 104.307 137.673 104.537C137.047 105.064 137.047 106.512 137.64 107.369C137.969 107.797 138.002 108.126 137.771 108.389C137.574 108.653 137.574 108.982 137.804 109.443C138.002 109.805 138.166 110.496 138.166 111.023C138.134 112.241 137.014 115.501 136.553 115.665C135.993 115.863 136.125 116.62 136.718 116.851C137.113 117.015 137.212 117.312 137.047 118.168C136.784 119.616 137.31 120.933 138.298 121.296C139.418 121.724 141.327 124.193 141.821 125.872C142.249 127.387 142.677 127.782 146.957 130.811L149.328 132.49L150.744 131.864C152.291 131.173 155.583 130.975 156.604 131.535C157.098 131.798 157.789 131.634 159.699 130.712C164.078 128.638 166.416 128.868 167.601 131.469L168.161 132.753L169.906 132.589C171.19 132.49 171.881 132.589 172.54 133.017C173.297 133.51 173.396 133.807 173.396 135.519C173.396 136.638 173.132 138.12 172.77 139.042L172.112 140.655L173.955 143.421C176.161 146.68 178.499 152.179 177.972 152.804C177.742 153.1 177.807 153.561 178.17 154.417C178.861 156.13 178.795 157.381 177.807 159.685C175.634 164.822 175.733 166.402 178.466 172.197C180.145 175.785 180.31 176.345 180.31 178.386C180.31 180.329 180.474 180.922 181.561 182.996C184.162 188.066 185.051 190.47 184.261 190.47C183.833 190.47 185.314 193.334 185.874 193.598C186.104 193.696 187.29 193.532 188.442 193.235C189.627 192.939 191.01 192.807 191.57 192.906C192.163 193.005 192.92 192.906 193.479 192.61C194.006 192.346 194.862 192.116 195.389 192.116C196.377 192.116 197.76 190.799 201.908 185.992C204.081 183.457 204.081 183.457 204.312 181.284C204.509 179.506 204.575 179.407 206.221 178.354C207.67 177.399 207.966 177.037 208.131 175.95C208.263 175.226 208.164 173.678 207.933 172.526L207.505 170.386L209.481 168.575C210.534 167.587 212.082 166.402 212.905 165.974C215.243 164.723 215.473 164.328 215.736 161.002C215.934 158.27 215.868 157.743 214.88 154.253C213.498 149.38 213.465 148.392 214.782 145.594C215.934 143.157 220.346 137.857 222.65 136.112C224.099 135.025 227.556 129.79 229.235 126.135C230.651 123.041 230.651 119.452 229.268 120.637C229.038 120.802 227.951 121.098 226.898 121.296C225.811 121.46 224.066 121.888 223.046 122.25L221.169 122.876L220.313 121.987C219.819 121.46 219.556 120.9 219.654 120.604C219.885 120.011 216.987 116.456 214.814 114.678C213.728 113.789 213.234 113.064 212.905 111.978C212.674 111.188 212.148 110.167 211.72 109.772C211.16 109.245 210.929 108.685 210.929 107.829C210.929 106.973 210.436 105.755 209.316 103.813C208.427 102.265 207.176 99.7959 206.55 98.3472C205.398 95.7133 205.398 95.6804 206.09 95.4499C206.946 95.1865 208.328 96.701 210.304 99.9935C210.995 101.212 211.72 102.298 211.884 102.397C212.082 102.496 212.378 103.385 212.576 104.372C212.872 105.821 213.234 106.447 214.255 107.401C214.946 108.06 215.605 108.883 215.736 109.278C215.868 109.673 216.461 110.529 217.053 111.221C218.337 112.603 218.667 113.986 217.514 112.933C216.987 112.439 216.856 112.439 216.856 112.834C216.856 113.097 217.152 113.591 217.514 113.92C217.844 114.217 218.469 115.468 218.864 116.686C219.259 117.871 219.753 118.958 219.951 119.09C220.445 119.452 222.222 119.057 222.65 118.497C222.848 118.234 223.474 118.036 224.066 118.036C224.988 118.036 225.647 117.806 227.062 116.982C227.326 116.818 228.478 116.258 229.565 115.698C230.684 115.172 231.672 114.447 231.738 114.151C231.836 113.789 232.594 113.361 233.746 112.999C234.964 112.603 235.656 112.208 235.787 111.78C235.919 111.418 236.182 111.122 236.446 111.122C237.17 111.122 238.915 109.146 238.915 108.323C238.915 107.829 239.146 107.5 239.607 107.401C240.002 107.303 240.199 107.072 240.068 106.875C239.969 106.677 240.166 106.084 240.528 105.558C240.924 105.031 241.22 104.438 241.22 104.241C241.22 103.648 239.146 101.936 238.421 101.903C237.203 101.87 236.281 100.685 236.281 99.1374C236.281 97.9851 235.985 98.0509 234.47 99.5984C233.219 100.882 231.046 101.837 230.355 101.409C230.157 101.31 230.026 100.882 230.026 100.487C230.026 100.059 229.795 99.4008 229.466 98.9728C228.972 98.2485 228.906 98.2155 228.511 98.7423C228.149 99.2691 228.083 99.2362 227.589 98.5448C227.293 98.1497 227.062 97.6229 227.062 97.3924C227.062 97.162 226.536 96.4047 225.91 95.6804C224.593 94.2646 224.395 92.9147 225.383 92.355C226.667 91.6636 227.26 91.9599 228.412 93.8695C229.301 95.3511 229.927 95.9767 231.474 96.7998C233.45 97.8863 234.174 97.9192 235.425 97.0961C236.084 96.6352 237.466 97.0632 237.104 97.6229C236.446 98.7094 239.969 99.5654 245.994 99.7959L249.945 99.9605L251.262 101.212C251.986 101.936 253.106 102.759 253.731 103.088C254.357 103.385 254.686 103.714 254.488 103.78C253.764 104.043 254.027 104.767 255.213 105.821C256.233 106.71 256.464 106.776 257.188 106.447C257.649 106.249 258.011 105.821 258.011 105.492C258.011 105.163 258.143 104.833 258.308 104.702C258.637 104.537 258.769 105.13 259.164 108.159C259.427 110.398 260.711 114.052 262.917 119.155C264.036 121.658 265.057 124.259 265.255 124.983C265.749 126.761 266.736 127.024 267.889 125.609C268.646 124.687 268.843 124.588 269.403 124.95C269.897 125.246 270.029 125.74 270.062 127.189C270.095 128.539 270.259 129.132 270.72 129.461C271.214 129.823 271.379 129.79 271.872 129.362C272.202 129.066 272.597 128.407 272.794 127.913C273.058 127.09 272.959 126.761 272.169 125.674C271.016 124.094 270.523 123.732 270.193 124.292C269.897 124.786 269.206 124.456 269.206 123.798C269.206 123.567 269.403 123.304 269.667 123.205C270.029 123.073 270.095 122.119 270.062 118.826L270.029 114.645L270.918 114.348C271.412 114.184 271.905 113.789 272.004 113.46C272.103 113.13 272.992 112.208 273.947 111.352C274.934 110.496 275.856 109.509 275.955 109.146C276.087 108.784 276.614 108.257 277.14 107.994C277.799 107.632 278.095 107.237 278.095 106.71C278.095 105.591 278.655 105.294 280.894 105.261C282.441 105.261 282.968 105.097 283.396 104.57C284.022 103.813 284.417 104.076 284.845 105.525C285.24 106.908 286.623 108.488 287.182 108.257C287.61 108.093 287.676 108.192 287.479 108.784C287.314 109.344 287.479 109.673 288.104 110.167C288.829 110.76 288.96 111.089 288.96 112.636C288.96 114.25 289.026 114.414 289.816 114.612C290.376 114.777 290.87 114.645 291.364 114.184C293.273 112.538 293.109 112.439 294.195 115.962C295.479 120.143 295.907 122.053 295.611 122.481C295.479 122.645 295.38 123.765 295.38 124.95C295.38 126.794 295.446 127.09 295.94 126.991C296.829 126.86 299.167 130.712 298.936 131.93C298.706 133.115 300.056 135.157 301.669 136.013C302.295 136.375 303.052 136.968 303.315 137.363C304.468 139.141 304.863 137.593 303.776 135.486C303.414 134.762 303.118 133.675 303.118 133.05C303.118 131.765 301.34 129.395 299.364 128.045C298.574 127.485 298.179 126.991 298.179 126.432C298.179 126.004 297.784 125.214 297.323 124.654L296.467 123.633L297.06 121.263C297.356 119.946 297.652 118.662 297.718 118.431C297.949 117.641 298.673 118.234 298.607 119.155C298.541 119.913 298.64 120.011 299.233 119.847C299.727 119.682 300.253 119.979 301.34 121.065C302.13 121.822 302.788 122.645 302.788 122.876C302.788 123.073 303.118 123.304 303.546 123.37C304.007 123.436 304.303 123.699 304.303 124.127C304.336 124.489 304.369 125.049 304.402 125.378C304.435 125.905 304.632 125.839 305.752 124.95C306.476 124.39 307.069 123.699 307.069 123.436C307.069 123.205 307.431 122.909 307.859 122.777C308.287 122.678 309.044 122.152 309.538 121.658C310.361 120.769 310.427 120.538 310.262 118.925C310.032 116.521 309.472 115.567 306.575 112.472C304.896 110.661 304.105 109.574 304.105 109.015C304.105 107.797 306.608 105.525 307.958 105.525C308.847 105.525 309.011 105.656 309.11 106.414C309.242 107.599 310.361 107.895 310.361 106.776C310.361 105.953 311.711 105.097 312.534 105.426C312.798 105.525 313.258 105.393 313.588 105.163C314.082 104.735 315.267 104.142 317.111 103.352C318.658 102.693 320.831 99.7959 321.687 97.2937C322.708 94.2646 323.169 91.0051 322.51 91.5977C321.918 92.1904 321.094 92.1245 321.358 91.5319C321.457 91.2685 321.654 90.8075 321.753 90.5442C321.885 90.2149 321.753 90.0503 321.391 90.0503C321.029 90.0503 320.897 89.8857 321.029 89.5564C321.259 88.9309 318.625 85.836 316.979 84.7495L316.189 84.2556L317.242 82.7081C317.901 81.7533 318.526 81.1607 318.921 81.1607C319.284 81.1607 319.58 80.9632 319.58 80.6998C319.58 80.0413 317.045 79.8766 315.925 80.4693C315.135 80.8644 315.003 80.8315 314.213 80.0413C313.752 79.5803 313.127 79.1852 312.83 79.1852C312.007 79.1852 312.271 78.6584 313.983 76.8805C315.563 75.2343 316.518 74.9709 316.189 76.255C316.024 76.9135 316.617 78.5267 317.012 78.5267C317.144 78.5267 317.407 78.2634 317.572 77.9012C318 77.111 319.284 76.7818 320.37 77.2098C321.062 77.4732 321.226 77.7366 321.226 78.6584C321.226 79.7449 321.292 79.7779 322.872 80.173C324.321 80.5022 324.519 80.6668 324.321 81.2265C324.189 81.6546 324.321 82.0167 324.716 82.2801C325.078 82.5435 325.276 83.1362 325.276 83.8276C325.276 85.5396 325.671 85.836 327.087 85.2433C327.745 84.9799 328.535 84.519 328.832 84.2556C329.358 83.7617 329.358 83.63 328.7 82.0826C328.173 80.7985 327.646 80.173 326.132 79.1523C325.078 78.4609 324.156 77.7366 324.058 77.6049C323.959 77.4402 324.255 76.9464 324.683 76.5513C325.276 75.9916 325.506 75.4319 325.506 74.51C325.506 73.1271 326.527 71.7443 327.35 72.0736C327.613 72.1723 328.009 72.3699 328.272 72.4687C329.062 72.765 330.379 71.2175 330.906 69.2421C331.202 68.2214 331.433 66.3776 331.433 65.1265C331.433 63.0523 331.301 62.5913 330.017 60.2208C327.91 56.3357 327.778 56.1711 326.198 55.4467C324.486 54.6895 323.663 54.6566 323.399 55.315C323.103 56.1052 322.741 55.9077 321.918 54.5578C321.193 53.3725 321.193 53.3725 321.391 54.3273C321.588 55.2492 321.588 55.2821 320.963 54.7224C320.634 54.4261 320.107 54.1627 319.81 54.1627C318.954 54.1627 318.823 53.5701 319.514 52.6811C319.876 52.2202 320.271 51.2983 320.37 50.6398C320.831 48.1046 321.127 47.6766 322.774 47.4461C325.408 47.084 331.103 47.2157 331.103 47.6107C331.103 47.8741 331.663 47.94 332.947 47.8083C334.758 47.6107 335.581 47.2815 334.857 47.0181C333.639 46.5901 333.408 46.1292 333.803 44.8451C334.133 43.7257 334.297 43.6269 335.351 43.6269C336.207 43.6269 336.799 43.8903 337.59 44.6805L338.676 45.7341L339.466 44.9768C340.125 44.3512 340.224 44.1208 339.894 43.594C339.499 42.9355 339.73 42.4416 340.289 42.8038C340.487 42.9026 340.882 43.4293 341.145 43.9561C341.573 44.7792 341.573 45.0426 341.145 46.2608C340.882 47.051 340.652 47.94 340.652 48.2692C340.652 48.5985 340.388 49.0594 340.059 49.257C339.499 49.6191 339.466 49.7508 339.894 51.002C340.191 51.7921 340.915 52.7799 341.738 53.5042C342.495 54.1298 344.339 55.8089 345.854 57.2247C347.368 58.6404 348.718 59.694 348.916 59.5952C349.344 59.2989 349.278 57.5539 348.817 57.2576C348.553 57.093 348.652 56.8954 349.047 56.5991C349.607 56.1711 349.607 56.1052 349.08 55.5126C348.586 54.9858 348.586 54.8212 348.981 54.4261C349.377 54.031 349.377 53.8664 348.85 53.2079C348.191 52.4177 347.994 51.6934 348.52 52.0226C348.685 52.1214 348.916 52.0555 349.014 51.9238C349.113 51.7592 348.685 51.397 348.06 51.1007C347.434 50.8044 346.907 50.3435 346.907 50.0471C346.907 49.7838 346.512 49.4874 346.018 49.3557C344.405 49.0265 344.24 48.8948 344.339 48.3022C344.405 47.94 344.24 47.4461 344.01 47.1827C343.681 46.7547 343.746 46.623 344.635 46.2608C345.459 45.8987 345.788 45.8987 346.315 46.2279C346.841 46.5572 347.072 46.5242 347.599 46.0633C348.158 45.5694 348.356 45.5694 349.442 45.9645L350.661 46.4255L351.352 45.1085C352.307 43.3306 354.085 42.3428 355.468 42.8696C357.147 43.4952 356.949 42.6721 355.237 41.9807C354.381 41.6185 353.196 41.0588 352.603 40.7625C351.582 40.2357 351.582 40.2028 352.208 39.7418C352.603 39.4784 352.801 39.0833 352.702 38.787C352.537 38.359 352.768 38.3261 354.216 38.5236C355.171 38.6553 356.422 39.0504 357.015 39.3796C358.233 40.1369 361.394 40.6308 361.394 40.0711C361.394 39.8735 361.131 39.5443 360.834 39.3796C360.307 39.0833 360.307 38.9845 360.735 38.6882C361.559 38.1285 360.406 37.5359 357.706 37.0749C356.389 36.8774 352.504 35.9555 349.047 35.0665C345.623 34.1776 340.948 33.2228 338.676 32.9265C336.404 32.6301 334.297 32.3338 333.935 32.268C333.441 32.1692 333.507 32.3338 334.264 33.124L335.219 34.1447L334.396 33.9471C331.038 33.2557 329.655 33.0911 326.527 33.0911C323.465 33.0911 322.905 32.9923 322.411 32.4655C321.654 31.6424 320.897 31.5107 315.135 31.1485C312.304 30.951 309.703 30.6217 309.044 30.3584C307.76 29.8316 298.936 28.9426 298.574 29.3048C298.442 29.4035 298.706 29.7986 299.167 30.1608L299.99 30.8522L296.928 30.6217C295.249 30.523 293.668 30.3584 293.405 30.2596C293.043 30.095 292.911 30.2925 292.911 30.9181C292.911 31.379 292.845 31.7741 292.779 31.7741C292.253 31.7741 289.289 30.2267 288.631 29.6011C287.808 28.8438 284.087 27.8232 282.145 27.8232C281.453 27.8232 281.355 27.889 281.717 28.317C282.079 28.7451 281.816 28.8109 279.807 28.8109C278.523 28.8109 277.371 28.6463 277.272 28.4817C277.173 28.2841 276.021 28.1524 274.737 28.1524C272.959 28.1524 272.235 27.9878 271.51 27.4939C270.588 26.8354 269.864 26.8684 268.876 27.6586C268.382 28.0536 266.242 28.6134 266.242 28.317C266.242 28.2512 267 27.7903 267.889 27.2964C269.502 26.4074 269.765 26.0453 269.271 25.3539C268.876 24.7941 266.012 24.2015 263.641 24.2015C261.929 24.2015 261.337 24.0698 261.172 23.7076C260.974 23.1808 258.308 23.0491 256.694 23.5101ZM189.858 38.787C189.858 38.9845 188.969 39.7747 187.882 40.4991L185.94 41.816L185.973 43.6927C186.006 46.5242 186.434 46.8206 190.088 46.2608C194.303 45.6353 195.323 45.7341 194.5 46.7218C194.237 47.051 193.479 47.1827 192.064 47.1827C190.944 47.1498 189.66 47.3144 189.232 47.5778L188.409 48.0058L189.166 48.5985C189.726 49.0594 189.891 49.4216 189.726 50.0471C189.496 51.002 189.133 51.1007 188.541 50.3764C188.31 50.113 187.882 49.8825 187.553 49.8825C186.565 49.8825 186.137 50.7386 186.368 52.1872C186.565 53.4384 186.532 53.5042 185.281 54.1627C183.997 54.7883 183.964 54.7883 183.536 54.1956C183.108 53.5701 183.042 53.603 181.297 54.3602C179.157 55.2821 178.466 55.315 178.071 54.6236C177.807 54.1298 177.676 54.1298 176.721 54.6566C175.437 55.315 175.108 55.1504 176.03 54.3273C176.392 53.9981 176.688 53.5371 176.688 53.3067C176.688 52.8128 178.499 53.0103 179.256 53.603C179.52 53.8005 179.651 53.8005 179.651 53.5701C179.651 53.3725 179.487 53.1091 179.322 53.0103C178.795 52.6811 179.289 52.1872 180.178 52.1872C181.067 52.1872 181.693 51.0678 181.429 50.0142C181.265 49.257 181.495 48.8948 182.878 47.94C183.438 47.5449 183.931 47.1169 183.931 46.9852C183.931 46.8535 183.47 46.4913 182.944 46.195C180.968 45.0756 182.088 42.277 185.018 41.0588C185.512 40.8612 185.907 40.4991 185.907 40.2357C185.907 40.0052 186.137 39.4784 186.434 39.0833C186.829 38.5236 187.257 38.359 188.409 38.359C189.364 38.359 189.858 38.4907 189.858 38.787ZM208.263 66.8386C207.867 67.4641 207.439 67.9909 207.275 67.9909C206.485 67.9909 207.176 68.6824 208.888 69.6372C210.864 70.7566 213.563 73.1271 213.563 73.7856C213.563 73.9832 213.3 74.3783 213.004 74.6417C212.213 75.3331 208.295 74.938 206.452 73.9832C205.168 73.3247 205.003 73.3247 203.028 73.7856C201.875 74.049 200.756 74.4112 200.525 74.6087C199.999 75.0368 198.286 74.7075 197.035 73.9832C196.278 73.5552 196.179 73.3247 196.344 72.4687C196.443 71.9089 196.673 71.3822 196.805 71.2834C196.937 71.1846 197.134 70.7237 197.266 70.2298C197.397 69.7359 197.694 69.275 197.957 69.1762C198.221 69.0774 198.418 68.814 198.418 68.5507C198.418 68.3202 198.747 67.7934 199.175 67.3983C199.768 66.8386 200.163 66.7398 201.151 66.9044C202.369 67.102 202.665 67.4312 202.04 67.8263C201.809 67.958 202.04 68.386 202.567 68.8799C203.258 69.5384 203.587 69.6372 204.147 69.3738C204.542 69.2091 205.201 68.9128 205.662 68.7153C206.221 68.4848 206.287 68.3531 205.925 68.3531C204.476 68.2873 205.102 66.5423 206.748 66.0484C208.822 65.4558 209.02 65.5545 208.263 66.8386ZM225.548 66.1801C226.733 66.674 227.029 67.3654 226.437 68.2873C226.272 68.5177 226.009 68.6494 225.811 68.5177C225.317 68.2214 224.428 68.6494 224.428 69.1433C224.428 69.3738 224.264 69.6372 224.066 69.703C223.869 69.7689 224.527 70.559 225.548 71.448C226.799 72.5345 227.392 73.2918 227.392 73.8186C227.392 74.7075 227.655 74.7734 228.248 73.9832C228.676 73.4564 228.742 73.4564 229.367 74.2137C230.256 75.2672 230.19 75.5636 229.071 75.5636C227.622 75.5636 227.556 76.0903 228.807 77.2756C229.696 78.1317 229.993 78.7243 230.124 79.9096L230.322 81.4241L228.742 81.6546C227.161 81.8521 225.745 81.4899 225.745 80.8315C225.745 80.6668 225.35 80.5022 224.889 80.4364C223.638 80.3047 223.144 79.3828 223.869 78.5926C224.165 78.2634 224.428 77.6707 224.428 77.3085C224.428 76.9135 224.626 76.5513 224.856 76.4525C225.087 76.3867 224.33 75.4648 223.046 74.2795C221.268 72.6333 220.807 72.0077 220.807 71.2505C220.807 70.6249 220.642 70.2956 220.313 70.2956C220.049 70.2956 219.819 70.0323 219.819 69.7359C219.819 69.1104 221.07 67.6617 221.597 67.6617C221.794 67.6288 222.486 67.2008 223.111 66.674C223.737 66.1143 224.264 65.6862 224.297 65.6862C224.33 65.6862 224.889 65.9167 225.548 66.1801ZM180.771 71.0858C181.33 71.5139 182.713 72.4028 183.866 73.0942C185.742 74.1807 185.907 74.3783 185.907 75.4319C185.907 76.9464 186.664 78.3951 187.784 78.9218C188.343 79.1852 188.771 79.7449 188.936 80.4034C189.101 80.9961 189.364 81.4899 189.496 81.4899C189.66 81.4899 190.022 81.5887 190.319 81.6875C190.681 81.8192 190.846 81.7204 190.846 81.3582C190.846 81.0948 191.208 80.601 191.669 80.3047C192.722 79.6133 192.689 79.4157 191.504 78.1975C190.977 77.6378 190.516 76.9793 190.516 76.7159C190.516 76.1233 190.911 76.0903 191.438 76.6171C191.702 76.8805 191.965 76.8147 192.426 76.222C193.381 75.0368 194.237 75.5636 194.895 77.8024C195.817 80.7327 196.212 81.4899 196.904 81.4899C197.233 81.4899 198.089 81.8192 198.813 82.2143C200.031 82.9057 200.13 82.9057 200.427 82.3789C200.822 81.6875 201.711 81.6546 202.567 82.313C202.896 82.5764 203.488 82.774 203.851 82.774C204.213 82.774 204.805 82.5764 205.135 82.313C205.497 82.0497 206.188 81.8192 206.682 81.8192C207.407 81.8192 207.571 81.9838 207.736 82.9715C208.032 84.8482 206.386 89.293 205.102 89.9844C204.805 90.182 203.686 90.2149 202.632 90.1161C201.48 90.0174 200.196 90.1161 199.439 90.3795C198.254 90.7417 197.957 90.6758 193.973 89.0955C190.154 87.581 189.594 87.4493 188.64 87.7785C187.125 88.2724 186.137 89.5893 186.598 90.4454C187.158 91.499 185.742 92.1904 184.952 91.2356C184.755 91.0051 183.898 90.7088 183.042 90.61C182.088 90.5112 181.33 90.2149 181.001 89.8198C180.079 88.6675 178.433 87.7456 177.281 87.7456C176.589 87.7127 175.832 87.3834 175.108 86.7908C174.054 85.9018 174.054 85.8689 174.515 84.7495C175.108 83.3337 174.614 81.3253 173.56 80.9961C172.671 80.6998 170.564 80.7985 168.951 81.2265C168.226 81.3912 166.251 81.6875 164.572 81.8521C161.345 82.1484 160.588 82.4118 159.238 83.63C158.481 84.3214 158.185 84.3873 156.176 84.2227C154.135 84.058 153.937 83.9593 154.036 83.3337C154.135 82.5764 155.155 81.9838 157.164 81.4899C158.645 81.1278 161.411 78.7901 161.049 78.1975C160.654 77.539 162.333 75.1685 163.683 74.51C165.197 73.7198 165.56 73.3247 165.296 72.5345C165.033 71.6785 166.646 71.1188 168.095 71.5797C169.115 71.876 169.379 71.8102 170.663 70.9541C172.605 69.6372 173.231 69.6701 174.021 71.2505C174.811 72.765 176.26 74.049 178.235 74.9709C179.552 75.5965 181.297 77.2427 181.297 77.8353C181.297 78 181.001 78.4938 180.606 78.9548C180.013 79.712 179.783 79.8108 178.532 79.6462C176.326 79.3169 176.326 80.0413 178.532 80.9961C179.552 81.457 180.441 81.8192 180.507 81.8192C180.573 81.8192 180.639 81.3582 180.639 80.8315C180.639 80.1071 180.804 79.8437 181.232 79.8437C181.561 79.8437 182.088 79.4157 182.384 78.856C182.845 78.0658 182.911 77.7366 182.614 77.1768C182.055 76.1891 182.647 75.6623 183.767 76.1562C184.458 76.4854 184.59 76.4525 184.59 76.0245C184.59 75.7611 183.898 75.2343 183.042 74.8721C182.153 74.51 181.33 73.9832 181.199 73.7198C181.067 73.4564 180.639 73.2588 180.31 73.2588C179.618 73.2588 176.688 69.8018 176.688 69.0116C176.688 68.7482 176.919 68.2543 177.215 67.958C177.742 67.3654 177.807 67.4312 178.762 68.847C179.289 69.6701 180.211 70.6578 180.771 71.0858Z" fill="black" fill-opacity="0.15"/>
<path d="M47.4271 27.0989C47.2295 27.2306 46.9991 27.5599 46.9003 27.8562C46.7686 28.1525 45.715 28.7451 44.5627 29.1732L42.3896 29.9634L43.0152 30.7865C43.5749 31.5437 43.6737 31.5437 45.3199 31.1816C46.2747 30.9511 47.3942 30.4901 47.8551 30.128C49.205 29.0744 49.3367 29.3707 48.2831 31.2803C47.7234 32.301 47.2954 33.1899 47.2954 33.2887C47.2954 33.3875 47.7563 33.618 48.2831 33.7826C48.8428 33.9801 49.2708 34.3423 49.2708 34.6057C49.2708 35.1983 50.0281 35.1983 51.1805 34.6057C52.8925 33.7497 57.469 33.4533 59.675 34.046C60.4651 34.2764 60.9261 34.1777 61.7492 33.6838C62.9345 32.9265 62.9345 32.9595 62.2431 31.9717C61.9138 31.4449 61.848 31.1157 62.0784 30.9511C62.276 30.8523 62.4406 30.1609 62.4406 29.4036C62.4406 28.1525 62.4077 28.0867 61.5846 28.2842C61.1236 28.4159 60.3993 28.9098 59.9713 29.4036C59.2469 30.2267 59.1811 30.2597 58.5885 29.7329C58.2592 29.4366 57.2386 29.0744 56.3167 28.9756C54.9338 28.7781 54.5388 28.5805 54.0778 27.7903C53.5181 26.8685 53.4522 26.8355 50.6537 26.8355C49.0733 26.8355 47.6246 26.9672 47.4271 27.0989Z" fill="black" fill-opacity="0.15"/>
<path d="M67.9386 27.7244C67.8069 27.8232 67.7081 28.2183 67.7081 28.5475C67.7081 29.206 67.3459 29.3048 66.8191 28.778C66.6216 28.5805 66.2924 28.5146 66.0948 28.6463C65.8643 28.778 66.0948 29.206 66.7204 29.8316C67.774 30.9181 68.1361 30.9181 70.375 29.7657C71.1652 29.3707 71.6261 28.8768 71.7249 28.3171C71.8895 27.5269 71.8566 27.494 70.0128 27.494C68.9922 27.494 68.0373 27.5927 67.9386 27.7244Z" fill="black" fill-opacity="0.15"/>
<path d="M73.1738 28.4817C72.7458 29.0414 71.4288 30.095 70.3093 30.8193C69.1899 31.5766 68.2022 32.4655 68.1034 32.8277C67.9717 33.3545 67.7412 33.4533 66.8852 33.2887C65.4695 33.0253 63.4281 33.8813 63.4281 34.7373C63.4281 35.33 63.1977 35.3958 61.3868 35.4287C58.2919 35.4946 57.7322 35.3958 56.975 34.7044C56.3494 34.1118 56.1519 34.0788 54.7361 34.4739C53.913 34.7044 53.2216 35.0666 53.2216 35.2971C53.2216 35.6263 52.3985 35.7251 49.8633 35.6921C47.1635 35.6921 46.6367 35.5934 47.2293 35.33C48.6451 34.6386 48.3817 34.4739 43.6406 33.4204C42.587 33.1899 41.3688 33.0911 40.9079 33.2228C40.2823 33.3874 40.0518 33.3216 40.0518 32.9265C40.0518 32.5314 39.8872 32.4985 39.1629 32.7948C38.4385 33.0582 38.1751 33.0253 37.8459 32.5643C37.5825 32.2022 37.2533 32.1034 36.8582 32.268C35.4753 32.8277 31.261 33.585 30.5037 33.4204C30.0428 33.3216 29.1539 33.4204 28.5283 33.6508C26.9479 34.2105 25.6968 34.1776 24.7091 33.5521C24.1823 33.1899 22.7007 32.9265 20.363 32.7289C15.8195 32.3997 11.671 31.6754 10.9137 31.1156C10.4857 30.7864 5.81045 31.7741 1.85952 33.0253C0.147455 33.585 -1.79508 34.1118 -2.42065 34.2435C-4.56073 34.6386 -4.75828 34.7703 -4.56073 35.4287C-4.46196 35.758 -4.29734 36.3506 -4.19856 36.7128C-4.06687 37.2725 -4.16564 37.3713 -5.02168 37.3713C-5.58139 37.3713 -6.04233 37.2396 -6.04233 37.075C-6.04233 36.9103 -7.26053 37.075 -8.74213 37.503C-10.8164 38.0627 -11.4749 38.392 -11.6724 38.9517C-11.9029 39.5443 -11.8041 39.7089 -11.1456 39.8736C-10.6847 39.9723 -9.72986 40.0052 -9.00553 39.9394C-7.98487 39.8406 -7.72148 39.9394 -7.85317 40.2686C-7.95195 40.532 -8.0178 40.8284 -8.0178 40.993C-8.0178 41.1247 -8.70921 41.3222 -9.56524 41.421C-13.7796 41.849 -17.1379 43.2648 -18.3231 45.0756C-19.2121 46.4255 -19.0475 46.9523 -17.8622 46.6889L-16.8415 46.4913L-17.4012 47.3803C-17.928 48.1376 -17.928 48.2363 -17.4342 48.0388C-16.7757 47.7754 -14.6027 48.1705 -14.6027 48.5327C-14.6027 48.7961 -27.4432 53.8335 -28.1675 53.8335C-28.398 53.8664 -28.9577 54.064 -29.4187 54.3274C-30.2418 54.7883 -30.2418 54.7883 -29.0894 54.6237C-25.1714 53.9981 -18.4548 52.0556 -16.1172 50.8703C-14.7014 50.146 -13.1869 49.5533 -12.7918 49.5533C-11.6395 49.5533 -9.00553 48.6644 -8.31412 48.0388C-7.85317 47.6108 -7.78732 47.3803 -8.05072 47.0181C-8.34704 46.6889 -8.24827 46.5901 -7.55685 46.5901C-7.09591 46.5901 -5.94356 46.2938 -4.98875 45.9316C-4.06687 45.5695 -3.24376 45.339 -3.17791 45.4048C-3.11206 45.4707 -3.67177 45.8987 -4.39611 46.3926C-5.12045 46.8535 -5.71309 47.3145 -5.71309 47.3803C-5.71309 47.6108 -1.49876 46.5901 0.0816059 45.9975C1.66198 45.3719 1.76075 45.3719 2.84726 45.9316C3.47282 46.2609 4.75687 46.623 5.71168 46.7547C8.14808 47.084 8.5761 47.8412 8.34563 51.2654L8.18101 53.8335H9.30044C10.354 53.8335 10.3869 53.8664 10.0577 54.7224C9.82723 55.2822 9.7943 56.5333 9.926 57.9161L10.1235 60.1879L9.30044 59.9574C8.01639 59.6282 8.04931 60.7147 9.36629 62.1304C10.2552 63.0523 10.4528 63.4474 10.1565 63.7767C9.99185 64.0071 9.49799 65.0278 9.10289 66.0155C8.7078 67.0033 7.58837 68.7153 6.63356 69.8347C5.64583 70.9212 4.75687 72.2711 4.62518 72.7979C4.49348 73.3247 4.03254 74.2795 3.53867 74.9051C2.55094 76.255 2.48509 77.144 2.94603 81.5888L3.3082 84.8483L4.69102 85.8031C6.30432 86.8896 6.37017 87.0542 6.66648 90.3796C6.79818 91.7295 7.09451 93.2769 7.3579 93.7708C7.78592 94.6268 7.78592 94.7585 7.25912 95.1207C6.76526 95.5158 6.76526 95.6475 7.16035 96.2072C7.42375 96.5694 8.08224 97.2608 8.64195 97.7217C9.43214 98.3802 9.62968 98.8082 9.53091 99.4009C9.39921 99.9935 9.66261 100.586 10.3869 101.475C10.9467 102.167 11.4076 102.891 11.4076 103.121C11.4076 103.352 11.5722 103.549 11.7368 103.549C12.4283 103.549 12.4612 102.463 11.8356 101.113C11.4734 100.389 11.0784 99.3021 10.9467 98.7094C10.815 98.1497 10.2223 96.4047 9.59676 94.8573C8.77365 92.7501 8.54318 91.7295 8.67487 90.8734C8.77365 90.2479 8.90535 89.7211 8.9712 89.7211C9.00412 89.7211 9.43214 89.8528 9.86015 90.0174C10.5186 90.2808 10.6833 90.61 10.8479 92.0587C11.0125 93.244 11.4076 94.3305 12.2307 95.5487C12.9221 96.5694 13.3831 97.6888 13.3831 98.2814C13.3831 99.0387 13.8769 99.8618 15.3585 101.607C16.9718 103.483 17.334 104.109 17.334 105.064C17.334 105.689 17.2023 106.48 17.0377 106.776C16.8731 107.072 16.8731 107.632 17.0047 108.027C17.334 108.85 20.2972 111.122 21.0544 111.122C21.3508 111.122 21.7129 111.319 21.8446 111.583C22.2397 112.241 26.7833 114.447 27.804 114.48C28.2978 114.48 29.2526 114.381 29.944 114.25C31.1293 114.019 31.261 114.052 32.7755 115.633C34.323 117.246 34.6852 117.411 38.669 118.464C39.6567 118.727 40.1177 119.057 40.2494 119.584C40.3481 119.979 40.7103 120.538 41.0725 120.868C41.4017 121.164 41.698 121.789 41.698 122.217C41.698 123.238 45.0563 126.399 46.2416 126.498C46.7026 126.531 47.394 126.893 47.822 127.288C48.7109 128.144 49.7645 127.913 49.5011 126.926C49.3036 126.168 50.3572 125.115 51.0815 125.411C51.3449 125.51 51.6741 125.872 51.7729 126.168C51.8717 126.498 52.168 127.156 52.4314 127.65C52.9911 128.704 53.057 133.247 52.4973 134.268C52.2997 134.663 51.8717 135.19 51.5095 135.42C51.1803 135.651 50.9169 136.144 50.9169 136.507C50.9169 136.869 50.5876 137.297 50.1925 137.494C49.139 137.955 47.822 141.379 48.25 142.499C48.4146 142.96 48.7439 143.421 48.9085 143.552C49.139 143.684 48.9743 144.145 48.4146 144.869C47.6244 145.89 47.6244 146.055 47.9866 147.405C48.2171 148.195 48.8097 149.248 49.3036 149.808C49.7974 150.335 50.5876 151.619 51.0815 152.607C51.5754 153.594 52.3985 155.01 52.8923 155.735C53.3862 156.459 54.4727 158.401 55.2958 160.081C56.8103 163.077 56.8433 163.11 60.3662 165.612C62.3087 167.028 63.9879 168.213 64.0208 168.279C64.0866 168.312 64.4159 169.958 64.7781 171.933C65.1731 174.37 65.3707 177.135 65.4036 180.691C65.4036 184.51 65.5353 186.387 65.9633 187.869C66.4243 189.581 66.4572 190.404 66.1609 194.026C65.8646 197.746 65.8975 198.339 66.3913 199.359C66.7206 199.985 67.0498 201.335 67.1486 202.323C67.4449 204.924 67.9717 206.603 68.5644 206.603C68.8936 206.603 68.9924 206.372 68.8278 205.78C68.6961 205.319 68.7619 204.956 68.9594 204.956C69.157 204.956 69.4533 205.714 69.6509 206.603C70.1118 208.71 70.1118 208.677 69.5521 208.479C68.8607 208.216 68.1693 209.105 68.6302 209.665C68.8607 209.928 68.9265 210.619 68.7948 211.311C68.6631 212.266 68.729 212.529 69.0911 212.529C69.9143 212.529 70.441 213.385 70.046 214.109C69.7826 214.636 70.046 215.229 71.5275 217.402C72.5482 218.884 74.2932 220.925 75.4126 222.011C77.3552 223.789 77.6515 223.987 80.7135 224.777L83.94 225.6L85.0595 224.975C85.6521 224.612 86.146 224.217 86.146 224.086C86.146 223.954 85.3229 223.592 84.3681 223.262C82.9852 222.867 82.228 222.341 81.1744 221.155C79.4623 219.213 79.166 218.456 79.7587 217.764C80.022 217.468 80.1537 217.007 80.022 216.711C79.9233 216.414 80.1537 215.624 80.5818 214.933C81.0756 214.142 81.2073 213.681 80.9439 213.583C80.7464 213.517 80.2196 213.188 79.7587 212.825C78.7709 212.035 78.5405 210.027 79.3965 209.698C79.7257 209.566 79.8904 209.039 79.8904 208.249C79.8904 207.558 80.1208 206.833 80.3842 206.603C81.0756 206.043 81.0098 205.615 80.2525 205.615C79.594 205.615 78.5734 204.463 78.5734 203.738C78.5734 203.475 79.0014 203.343 79.7257 203.376C81.1415 203.442 81.9646 202.783 81.7341 201.796C81.4049 200.578 81.8329 200.018 83.0182 200.018C85.1253 200.018 86.146 199.623 86.6399 198.668C87.3642 197.285 87.2654 195.507 86.4752 195.079C86.1131 194.882 85.718 194.355 85.6192 193.927C85.5204 193.466 85.1912 193.104 84.8949 193.104C84.4998 193.104 84.4668 193.005 84.7632 192.709C85.0595 192.412 85.2899 192.478 85.7838 192.906C86.146 193.235 87.0349 193.565 87.7922 193.663C88.8787 193.828 89.2738 193.729 89.9323 193.104C90.7554 192.314 92.4016 188.626 92.4016 187.507C92.4016 187.079 92.6321 186.848 93.0272 186.848C94.2125 186.848 95.2002 184.675 95.266 181.909C95.299 180.56 95.3319 179.341 95.3319 179.243C95.3977 178.782 100.04 175.95 101.588 175.423C104.221 174.6 105.308 172.921 106.065 168.608C106.394 166.764 106.691 164.163 106.724 162.78C106.79 160.377 106.855 160.179 108.271 158.171C109.094 157.019 110.312 154.911 110.938 153.496L112.123 150.928L111.564 149.413C111.136 148.261 110.773 147.8 109.983 147.536C109.424 147.339 108.074 146.384 106.954 145.396L104.946 143.585L102.213 143.52C100.699 143.454 99.217 143.388 98.9207 143.388C98.5585 143.355 98.328 143.092 98.328 142.631C98.2951 142.071 97.8671 141.709 96.2867 140.984C94.4759 140.161 94.2125 140.128 93.7186 140.589C92.9613 141.281 92.7309 141.215 92.7309 140.326C92.7309 139.865 92.3687 139.404 91.7431 139.042C90.92 138.581 90.7883 138.318 90.9529 137.659C91.0846 137.099 90.9529 136.737 90.492 136.408C90.1298 136.177 89.7347 135.387 89.6031 134.663C89.2738 132.951 89.208 132.819 87.5288 131.403C86.2777 130.383 85.8497 130.218 84.401 130.218C82.2609 130.218 79.3965 128.802 78.9355 127.584C78.7709 127.09 78.1124 126.498 77.3552 126.103C76.6308 125.74 75.9065 125.181 75.7419 124.786C75.5773 124.423 75.0505 123.93 74.5566 123.699C73.5689 123.238 73.4042 122.81 74.0627 122.514C74.2603 122.415 73.7335 122.415 72.8116 122.514C71.9226 122.613 71.0666 122.843 70.9678 123.008C70.8691 123.205 70.2764 123.106 69.585 122.81C68.9265 122.547 67.8729 122.316 67.2145 122.316C65.8316 122.316 64.2513 121.592 63.9549 120.802C63.7903 120.341 63.5598 120.472 62.605 121.526C61.9795 122.217 61.4856 123.172 61.4527 123.6C61.4527 124.259 61.3868 124.325 60.9588 123.962C60.5966 123.666 60.5308 123.436 60.7942 123.172C60.9588 123.008 61.1234 122.448 61.1234 121.921C61.1234 121.427 61.3539 120.9 61.6173 120.769C61.8807 120.604 61.9795 120.308 61.8478 120.11C61.6502 119.814 61.1893 119.979 60.1357 120.67C59.3455 121.197 58.2261 121.724 57.6664 121.855C56.5799 122.086 55.8885 122.81 55.8555 123.699C55.8555 124.028 55.4275 124.753 54.9337 125.345L53.9789 126.366L52.7936 125.411C51.8388 124.687 51.312 124.489 50.3572 124.588C49.6657 124.621 48.8426 124.819 48.4805 125.016C47.1306 125.74 44.9905 123.436 44.9905 121.296C44.9905 120.67 45.221 119.156 45.5502 117.904L46.077 115.666L45.2868 115.04C44.6612 114.546 43.904 114.414 41.6322 114.414H38.7678L39.6238 112.34C40.0848 111.221 40.7432 109.476 41.1054 108.488C41.5005 107.5 41.9285 106.513 42.0602 106.315C42.2578 106.052 41.8956 105.887 40.842 105.722C38.7678 105.459 37.6154 106.085 37.0228 107.895C36.5618 109.278 36.496 109.311 34.1584 109.937C31.3927 110.661 30.6354 110.431 29.4172 108.521C27.9686 106.216 27.8698 105.031 28.9234 101.936C29.4172 100.389 29.8453 98.6107 29.8453 97.9193C29.8453 96.7669 29.977 96.6352 32.9072 94.6927C35.4095 93.0464 36.1997 92.6843 37.3191 92.6843C38.0764 92.6843 38.8007 92.816 38.8995 93.0135C39.2616 93.5732 40.4798 93.3757 41.27 92.6184C42.2578 91.6965 46.2087 91.4332 46.5379 92.2563C46.6696 92.6184 47.0318 92.6843 47.7891 92.5526C48.6122 92.388 48.9743 92.5197 49.5999 93.1781C50.2584 93.9025 50.3572 94.1659 50.0608 94.9231C49.6657 95.9109 49.995 97.59 50.8181 98.8082C52.1351 100.85 53.057 98.6436 52.7277 94.1988L52.5302 91.2027L54.1105 89.4906C54.9666 88.5358 56.7445 87.1201 57.9956 86.297C59.2797 85.4738 60.86 84.2556 61.5515 83.5642C62.605 82.5107 62.7697 82.1485 62.638 81.2266C62.5392 80.4693 62.605 80.173 62.9672 80.173C63.2306 80.173 63.6915 79.6791 63.9879 79.0536C64.2842 78.428 64.6793 78 64.9097 78.0659C65.1402 78.1646 65.7658 77.6708 66.3255 76.9793C67.0498 76.0245 67.8071 75.5636 69.1241 75.1356C70.0789 74.8393 71.1325 74.5759 71.3959 74.5759C72.0873 74.5759 72.7787 73.7198 72.3507 73.4235C71.8239 73.1272 73.3055 71.02 74.2932 70.6579C74.7541 70.4932 76.3674 69.9006 77.9149 69.3409C80.6476 68.3531 80.6805 68.3531 79.7587 69.1104C78.4746 70.164 78.7709 71.0529 80.2196 70.6249C80.8122 70.4603 81.4378 70.164 81.6683 69.9994C81.8658 69.8347 82.7218 69.5055 83.5779 69.308C84.4339 69.0775 85.3558 68.6165 85.685 68.2873C85.9814 67.9581 86.5082 67.6617 86.8703 67.6617C87.2983 67.6617 87.463 67.4313 87.463 66.8386C87.463 66.3448 87.2654 66.0155 87.002 66.0155C86.7386 66.0155 86.2448 66.3777 85.8826 66.8386C84.9936 67.9581 83.084 67.991 82.3597 66.9045C81.8987 66.1801 81.9317 66.0155 82.7218 64.5668C83.4462 63.2499 83.512 62.9206 83.1499 62.6902C82.3926 62.1963 81.6353 62.3609 79.2977 63.3816L77.0918 64.3693L78.2441 63.3816C78.8697 62.8219 79.594 62.3938 79.8574 62.3938C80.1208 62.3938 80.6147 62.1304 80.9769 61.8012C81.4707 61.3403 82.4585 61.2086 85.9484 61.0439C89.9652 60.8793 90.3932 60.7805 92.3358 59.8257C93.4552 59.2331 94.3771 58.8709 94.3771 59.0356C94.3771 59.1672 93.2577 60.3855 91.9078 61.7354C90.5579 63.0853 89.4384 64.3035 89.4384 64.4352C89.4384 64.5998 90.3932 64.6985 91.5456 64.6985C92.7309 64.6985 93.7844 64.8632 93.8832 65.0607C94.0149 65.2583 94.3112 65.3241 94.5746 65.2253C94.8051 65.1266 95.1673 65.2912 95.3319 65.5875C95.5953 66.0814 95.6941 66.0814 96.4842 65.5875C97.1757 65.1266 97.2744 64.8961 97.011 64.2376C96.8464 63.8096 96.8135 63.1511 96.9123 62.756C97.044 62.1634 96.9452 62.0646 96.155 62.0646C94.9697 62.0646 94.1466 60.6818 94.9039 60.0562C95.1673 59.8587 95.266 59.5623 95.1673 59.3977C95.0685 59.2331 95.299 58.6734 95.6611 58.1466C96.3196 57.2576 96.3196 57.1259 95.8258 55.6773C95.5294 54.8212 95.0026 53.9981 94.5746 53.8006C94.2125 53.603 93.4881 53.0433 92.9943 52.5824C92.3028 51.9568 92.1712 51.6275 92.4345 51.1666C92.7638 50.5081 92.1712 45.9316 91.7102 45.9316C91.5785 45.9316 91.0517 46.2938 90.5249 46.7218C90.0311 47.1498 88.9775 47.8083 88.2531 48.1705C86.9032 48.8619 86.8703 48.8619 86.2118 48.2363C85.4546 47.5449 85.5533 46.3596 86.4094 45.7012C86.8374 45.339 86.7715 45.2402 86.0472 44.9768C85.5533 44.7793 84.7302 44.1537 84.2034 43.5611C83.512 42.8038 83.1169 42.5733 82.8865 42.8367C82.656 43.0343 81.8 43.1001 80.6805 42.9684C78.8697 42.7709 78.8368 42.7709 78.0466 43.9232C77.6186 44.5817 77.2564 45.339 77.2564 45.6024C77.2564 45.8987 76.6638 46.7218 75.9394 47.4132C74.8529 48.4668 74.7212 48.7631 75.1163 48.9936C75.709 49.3228 75.7419 49.8826 75.248 50.9691C74.8529 51.8251 71.9226 53.7018 70.6715 53.8993C69.9801 53.9981 69.7826 54.2615 69.3875 56.0065C68.9924 57.7515 68.7948 58.0807 67.7083 58.7063L66.4572 59.3977L66.2597 58.6405C66.1609 58.2124 65.9633 57.6198 65.8646 57.3235C65.7329 56.9284 65.7987 56.8296 66.1609 56.9942C66.4243 57.093 66.7535 57.0272 66.8852 56.8296C66.984 56.6321 66.8523 56.4674 66.5889 56.4674C65.8975 56.4674 65.9304 55.8748 66.7206 54.5578L67.3791 53.5042H66.2926C65.7329 53.4713 64.6464 53.2079 63.922 52.8458C63.1977 52.4836 62.4075 52.2202 62.2099 52.1873C61.9795 52.1873 61.7819 52.0556 61.7819 51.858C61.7819 51.2983 60.1357 50.4423 59.1151 50.4752C58.2261 50.5081 58.1602 50.4093 58.1602 49.1911C58.1602 48.2034 58.0285 47.9071 57.6005 47.9071C56.3823 47.9071 59.4114 45.5036 62.8026 43.7915C64.7122 42.8367 66.4572 41.8161 66.6877 41.5198C66.9511 41.2234 67.412 40.993 67.7083 40.993C68.5644 40.993 71.33 39.7748 72.5482 38.82C73.1079 38.392 73.7006 38.0298 73.8323 38.0298C74.2603 38.0298 71.8897 40.3674 71.1654 40.6637C70.6386 40.8942 70.6057 40.9601 71.0666 40.9601C71.3629 40.993 71.6592 41.2234 71.7251 41.4868C71.8239 41.9149 72.0214 41.8819 73.1079 41.2893C74.1615 40.7296 74.5566 40.6637 75.1822 40.9601C76.2687 41.4539 77.2564 41.421 77.2564 40.8613C77.2564 40.6308 76.5979 39.8736 75.7748 39.2151C74.1286 37.8652 73.8323 37.1737 75.1163 37.7664C75.7419 38.0627 76.0382 38.0627 76.3345 37.7664C76.565 37.5359 77.0259 37.3713 77.421 37.3713C78.31 37.3713 80.2196 36.186 80.2196 35.6263C80.2196 35.3629 80.5159 34.902 80.8781 34.5727C81.339 34.1447 81.4378 33.8484 81.2073 33.6179C80.5159 32.9265 80.9439 32.7619 83.6108 32.7619C85.7838 32.7948 86.4423 32.8936 87.0679 33.4204C87.9898 34.2105 87.7593 34.7373 86.4752 34.7373C85.4875 34.7373 84.3681 35.5604 84.6644 36.0872C84.9936 36.5811 86.2448 36.4165 86.9362 35.758C87.9568 34.8032 88.9116 34.7373 89.0433 35.6263C89.1421 36.2189 88.8458 36.5153 87.6605 37.1079C86.6399 37.6018 86.146 38.0298 86.146 38.4578C86.146 39.0504 85.9814 39.0834 84.2034 38.9187C82.6231 38.7541 82.1292 38.82 81.5366 39.2809C80.911 39.8077 80.8781 39.9065 81.3061 40.2686C81.7012 40.5979 82.0634 40.565 83.1499 40.1369C84.4668 39.6102 84.5656 39.6102 85.1912 40.2028C85.5863 40.565 86.0801 41.2234 86.3106 41.6844C86.6728 42.3429 87.2983 42.6721 89.0763 43.1989C91.6444 43.9562 91.9736 43.7586 90.7225 42.1783C89.8664 41.0918 90.0969 41.0918 91.9407 42.1783C92.8955 42.738 93.3894 42.9026 93.3894 42.6063C93.3894 42.3758 93.6857 41.849 94.0478 41.4539L94.7393 40.7625L93.8832 39.7419C92.9284 38.5895 92.8626 38.2603 93.5869 37.6676C94.0478 37.3054 94.2454 37.3713 95.0026 38.2932C95.9245 39.4126 96.8135 39.676 97.1427 38.8529C97.2415 38.5895 97.6366 38.359 97.9988 38.359C98.3939 38.359 98.9865 38.0956 99.3487 37.7335C100.007 37.1408 100.007 37.1408 98.789 36.0872C98.0317 35.4287 97.3403 35.0666 96.9781 35.1654C96.0562 35.3958 95.4965 34.5398 96.155 33.9142C96.4513 33.6179 96.6818 33.1899 96.6818 32.9594C96.6818 32.3668 95.5953 31.4449 94.9039 31.4449C94.6076 31.4449 94.2783 31.2144 94.1795 30.951C94.0478 30.6876 93.6198 30.4572 93.2247 30.4572C92.7638 30.4572 92.1053 30.0291 91.5456 29.4036C90.7225 28.3829 90.492 28.3171 87.9898 28.1195C85.1253 27.8891 82.9523 28.3171 81.8329 29.3377C81.3061 29.8316 81.2073 29.8316 81.2073 29.4036C81.2073 29.1073 81.5366 28.6463 81.9646 28.3829C82.656 27.8561 82.6889 27.8561 81.9975 27.8561C80.7793 27.8232 78.4417 28.8109 77.1906 29.8974C76.2028 30.7864 76.0382 31.0827 76.3016 31.6754C76.4991 32.2351 76.8284 32.4326 77.6186 32.4326C78.4088 32.4326 78.6063 32.5314 78.4417 32.9594C78.3429 33.2557 78.2441 33.5191 78.2441 33.585C78.2441 33.8155 75.0175 35.9885 74.359 36.186C73.4701 36.4823 73.3384 35.5934 74.1615 35.1324C74.8858 34.7373 74.6224 33.6179 73.7335 33.4862C73.1738 33.3874 73.0091 33.124 72.9104 31.84C72.7128 29.9304 72.9762 29.5682 74.7212 29.3048C75.4785 29.1731 76.6967 28.7122 77.421 28.2841L78.738 27.494H76.3674C74.1615 27.494 73.964 27.5598 73.1738 28.4817Z" fill="black" fill-opacity="0.15"/>
<path d="M138.364 37.9968L137.442 38.6224L138.167 39.0175C138.562 39.215 139.089 39.3138 139.352 39.215C139.648 39.1163 139.813 39.248 139.813 39.6431C139.813 39.9723 140.175 40.4332 140.636 40.6637C141.097 40.8942 141.459 41.2564 141.459 41.421C141.459 41.7832 143.632 41.4539 146.036 40.7296C148.143 40.0711 148.9 39.0175 147.846 38.1944C147.517 37.931 146.859 37.7664 146.398 37.8651C143.336 38.3919 141.097 38.4249 140.307 37.8981C139.319 37.2725 139.517 37.2396 138.364 37.9968Z" fill="black" fill-opacity="0.15"/>
<path d="M158.909 48.0719C158.679 48.3682 158.284 48.5329 158.02 48.4341C157.757 48.3353 157.098 48.5658 156.539 48.9938C155.32 49.8828 154.794 51.101 155.32 51.7265C155.617 52.0887 155.584 52.1875 155.255 52.1875C154.958 52.2204 155.057 52.4509 155.551 52.813C155.946 53.1752 156.275 53.6032 156.275 53.8008C156.275 53.9983 156.637 54.1629 157.065 54.1629C157.658 54.1629 157.954 54.4263 158.185 55.1177C158.514 56.0067 158.448 56.0726 157.559 56.2701C156.67 56.4347 156.176 57.1261 156.934 57.1261C157.592 57.1261 157.23 57.7188 156.44 57.9163C155.386 58.1797 155.386 58.7724 156.407 58.7724C156.868 58.7724 157.329 58.9041 157.428 59.1016C157.526 59.2662 157.428 59.4308 157.164 59.4308C156.736 59.4308 155.287 60.7478 155.287 61.1429C155.287 61.4392 157.23 60.8466 157.757 60.4186C157.987 60.221 159.205 60.1223 160.457 60.1552C162.926 60.221 163.683 59.9576 163.387 59.2004C163.288 58.937 163.42 58.509 163.683 58.2126C164.375 57.5542 164.144 56.9944 163.156 56.7969C162.728 56.6981 162.333 56.4347 162.267 56.1713C162.136 55.5458 160.226 52.7801 159.601 52.2862C159.14 51.957 159.14 51.8582 159.666 51.2985C160.457 50.4096 160.358 49.8828 159.436 49.8828C158.481 49.8828 158.02 49.3889 158.712 49.1255C159.271 48.895 160.062 47.5781 159.634 47.5781C159.469 47.5781 159.14 47.8085 158.909 48.0719Z" fill="black" fill-opacity="0.15"/>
<path d="M152.258 54.0313C151.995 54.6239 151.699 54.8214 151.238 54.6897C150.382 54.4922 149.888 55.8092 150.612 56.4018C151.106 56.764 151.073 56.8628 150.415 57.3237C148.637 58.5748 150.184 59.3321 152.687 58.4431C154.563 57.8176 154.958 57.3895 154.958 56.0726C154.958 55.5787 155.123 55.0848 155.288 54.9861C156.012 54.5251 155.617 53.5703 154.596 53.3728C152.95 53.0435 152.654 53.1423 152.258 54.0313Z" fill="black" fill-opacity="0.15"/>
<path d="M323.07 100.553C322.379 101.87 322.412 102.858 323.202 104.01L323.827 104.998L324.157 104.109C324.782 102.529 324.848 101.771 324.585 100.784C324.222 99.4338 323.663 99.368 323.07 100.553Z" fill="black" fill-opacity="0.15"/>
<path d="M46.5713 103.912C46.0445 104.274 45.6494 104.866 45.6494 105.229C45.6494 106.085 46.1433 106.019 46.8676 105.097C47.8553 103.846 48.1846 103.813 50.3576 104.57C52.8599 105.426 53.4196 105.92 53.7159 107.369L53.9134 108.488L56.1194 108.29C57.3376 108.159 58.6216 107.928 58.9838 107.731C59.5764 107.434 59.5106 107.336 58.3253 106.842C57.601 106.513 56.6462 105.887 56.1852 105.393C55.2633 104.372 52.9586 103.648 49.765 103.385C47.7566 103.22 47.3615 103.286 46.5713 103.912Z" fill="black" fill-opacity="0.15"/>
<path d="M61.058 108.916C60.9592 109.838 60.8275 110.002 59.8398 110.134C58.0618 110.398 58.1606 111.122 59.9385 111.122C60.7617 111.122 61.4531 111.254 61.4531 111.451C61.4531 111.978 62.5066 111.813 62.9347 111.221C63.1981 110.891 63.9882 110.628 65.2064 110.529C66.2271 110.463 67.0502 110.266 67.0502 110.101C67.0502 109.97 66.5234 109.443 65.8979 108.949C65.0747 108.323 64.4821 108.126 63.8895 108.257C63.3956 108.356 62.6054 108.29 62.0786 108.159C61.2226 107.895 61.1567 107.961 61.058 108.916Z" fill="black" fill-opacity="0.15"/>
<path d="M309.439 108.06C309.044 108.126 308.55 108.488 308.385 108.817C307.562 110.398 309.571 111.155 310.558 109.64C311.052 108.85 311.019 107.764 310.46 107.862C310.328 107.895 309.867 107.994 309.439 108.06Z" fill="black" fill-opacity="0.15"/>
<path d="M325.407 109.838C325.078 110.035 324.848 110.562 324.848 111.221C324.848 111.813 324.617 112.702 324.354 113.196C323.761 114.348 324.057 115.962 324.913 116.423C325.374 116.653 325.506 116.982 325.374 117.476C325.276 117.904 325.473 118.497 325.835 118.925C326.626 119.913 326.823 119.88 326.823 118.694C326.823 117.74 326.856 117.74 327.712 118.135C328.206 118.332 329.161 119.122 329.819 119.847C330.873 120.966 330.972 121.197 330.544 121.46C330.214 121.658 329.72 121.559 329.128 121.197C328.601 120.9 328.107 120.67 328.008 120.67C327.547 120.67 327.844 122.349 328.403 122.909C328.733 123.238 329.095 123.765 329.227 124.061C329.457 124.654 330.017 124.753 330.906 124.423C331.597 124.16 331.564 123.666 330.873 122.909C330.379 122.349 330.379 122.25 330.774 121.987C331.531 121.493 331.828 121.756 332.289 123.337C332.717 124.687 332.684 124.818 332.025 125.312C331.663 125.609 331.07 125.773 330.741 125.707C330.017 125.51 328.963 126.563 328.667 127.782C328.469 128.671 328.502 128.703 328.963 128.111C329.227 127.749 329.786 127.452 330.247 127.387C330.906 127.321 331.07 127.485 331.235 128.407C331.367 129.132 331.828 129.79 332.42 130.218L333.408 130.909V129.724C333.408 128.769 333.54 128.572 334.001 128.638C334.363 128.703 334.527 128.572 334.429 128.243C334.396 127.979 334.297 126.991 334.264 126.037C334.231 124.785 334.034 124.127 333.474 123.534C333.079 123.106 332.749 122.349 332.749 121.855C332.749 120.538 332.223 119.748 331.103 119.518C330.247 119.32 330.148 119.188 330.313 118.365C330.511 117.476 330.412 117.41 329.095 117.048C328.305 116.818 327.449 116.587 327.251 116.521C326.724 116.39 326.691 114.283 327.152 113.394C327.416 112.966 327.383 112.373 327.119 111.451C326.626 109.838 326.198 109.41 325.407 109.838Z" fill="black" fill-opacity="0.15"/>
<path d="M320.798 129.23C320.469 129.922 319.712 130.811 319.086 131.206C318.494 131.568 317.572 132.358 317.045 132.951C316.518 133.544 315.728 134.169 315.234 134.4C314.74 134.63 314.115 135.256 313.818 135.848C313.324 136.77 313.16 136.869 312.106 136.704C311.217 136.54 310.987 136.606 311.151 136.968C311.25 137.231 311.184 137.527 311.02 137.626C310.493 137.955 310.658 139.536 311.349 140.688C311.711 141.281 312.008 142.236 312.008 142.795C312.008 144.31 312.765 145.001 314.246 144.804C315.004 144.705 315.991 144.837 316.749 145.166C319.317 146.219 321.161 145.594 320.798 143.783C320.634 142.927 320.765 142.565 321.556 141.742C322.28 141.017 322.543 140.425 322.543 139.602C322.543 138.647 322.675 138.416 323.366 138.252C324.354 138.021 324.387 137.791 323.531 136.704C322.642 135.585 322.708 134.235 323.696 132.786C324.157 132.128 324.519 131.371 324.519 131.14C324.519 130.745 321.918 127.913 321.556 127.913C321.457 127.913 321.128 128.506 320.798 129.23Z" fill="black" fill-opacity="0.15"/>
<path d="M291.463 130.778C291.035 131.206 291.298 131.733 292.22 132.259C292.78 132.556 293.57 133.379 294.031 134.103C294.492 134.827 295.15 135.519 295.513 135.651C295.875 135.749 296.402 136.243 296.665 136.737C297.949 139.206 298.937 141.445 299.496 143.157C300.155 145.232 301.999 147.273 304.106 148.195C305.192 148.689 305.258 148.689 305.851 147.964C306.213 147.536 306.378 146.944 306.279 146.516C306.18 146.12 306.378 145.264 306.74 144.606L307.398 143.388H306.575C306.114 143.388 305.752 143.223 305.752 143.058C305.752 142.861 305.127 142.137 304.402 141.412C303.349 140.392 303.118 139.997 303.382 139.667C303.678 139.338 303.447 138.976 302.361 138.087C301.604 137.461 300.418 136.605 299.76 136.177C299.068 135.782 298.245 134.992 297.949 134.432C297.521 133.741 296.467 133.017 294.525 131.996C292.944 131.239 291.595 130.679 291.463 130.778Z" fill="black" fill-opacity="0.15"/>
<path d="M331.927 137.165C331.137 137.626 330.61 137.692 329.293 137.462C326.659 137.001 326.297 137.067 325.902 137.955C325.671 138.416 325.506 139.174 325.506 139.602C325.506 140.03 325.21 141.05 324.848 141.873C324.354 143.092 324.288 143.586 324.552 144.31C324.749 144.804 324.914 145.89 324.881 146.746C324.848 148.096 324.947 148.327 325.506 148.327C326.461 148.327 326.889 147.24 326.626 145.363C326.494 144.277 326.527 143.717 326.758 143.717C327.153 143.717 327.614 144.343 327.647 144.87C327.745 145.824 328.272 147.207 328.7 147.569C330.017 148.623 330.577 146.68 329.556 144.639C329.26 144.046 328.898 143.289 328.733 142.96C328.503 142.499 328.634 142.203 329.26 141.709C329.754 141.347 330.116 140.886 330.116 140.721C330.116 140.293 328.568 140.359 327.778 140.82C327.219 141.182 327.054 141.149 326.626 140.589C325.506 139.075 326.758 137.659 328.535 138.449C330.84 139.437 333.277 138.779 333.013 137.231C332.914 136.606 332.882 136.606 331.927 137.165Z" fill="black" fill-opacity="0.15"/>
<path d="M341.08 140.326C340.652 140.392 340.322 140.589 340.322 140.721C340.322 141.083 341.442 142.071 341.87 142.071C342.331 142.071 343.45 143.355 343.187 143.586C342.792 143.981 343.944 145.693 344.537 145.594C345.294 145.495 349.574 146.977 350.265 147.569C351.089 148.294 351.418 150.631 350.726 151.026C349.936 151.487 350.101 151.948 351.023 151.948C351.484 151.948 352.603 152.311 353.492 152.771C355.764 153.924 356.521 153.825 358.134 152.278C358.892 151.553 359.616 150.961 359.781 150.961C359.912 150.961 360.735 151.784 361.591 152.771C362.744 154.121 363.567 154.714 364.752 155.109C365.608 155.373 366.497 155.57 366.728 155.504C366.925 155.438 366.201 154.451 365.114 153.298C362.908 151.059 362.349 149.973 363.402 149.973C363.732 149.973 364.028 149.775 364.028 149.512C364.028 148.886 362.48 147.668 361.69 147.668C361.295 147.668 361.065 147.438 361.065 147.043C361.065 146.252 359.616 145.133 356.784 143.717C354.644 142.631 351.385 141.445 350.562 141.413C350.331 141.413 349.508 142.104 348.718 142.96L347.302 144.475L346.117 143.19C345.162 142.17 344.965 141.742 345.129 140.985C345.327 140.096 345.294 140.096 343.549 140.129C342.594 140.161 341.475 140.26 341.08 140.326Z" fill="black" fill-opacity="0.15"/>
<path d="M306.904 148.557C305.323 148.952 304.928 149.973 306.377 149.973C306.937 149.973 307.76 150.335 308.32 150.796C308.978 151.323 309.999 151.751 311.25 151.948C315.76 152.706 317.473 153.035 317.999 153.298C318.362 153.496 319.086 153.43 319.942 153.134C320.864 152.804 321.522 152.739 321.917 152.936C322.247 153.134 323.596 153.232 324.946 153.2C326.296 153.2 327.547 153.265 327.778 153.397C327.975 153.529 328.634 153.496 329.227 153.331C329.786 153.134 330.807 152.903 331.433 152.804L332.585 152.607L331.795 153.298C331.367 153.66 330.807 154.056 330.609 154.187C330.379 154.319 330.083 154.78 329.951 155.208C329.753 155.899 329.951 155.801 331.498 154.484C332.486 153.66 333.704 152.804 334.231 152.607C335.12 152.278 335.153 152.179 334.626 151.915C334.231 151.685 333.474 151.718 332.256 151.981C330.906 152.278 330.247 152.278 329.622 152.014C328.996 151.718 328.568 151.751 327.745 152.08C326.889 152.442 326.263 152.475 324.848 152.212C323.86 152.014 322.148 151.817 321.061 151.784C317.44 151.685 315.267 150.994 316.781 150.434C317.637 150.105 316.946 149.644 315.596 149.644C314.872 149.644 313.917 149.413 313.456 149.084C312.666 148.59 312.633 148.59 312.435 149.249C312.172 150.302 310.262 150.236 308.978 149.15C308.451 148.689 307.892 148.36 307.793 148.36C307.661 148.393 307.266 148.491 306.904 148.557Z" fill="black" fill-opacity="0.15"/>
<path d="M341.738 157.216C341.935 158.072 341.837 158.204 341.046 158.369C340.553 158.5 339.927 158.698 339.664 158.83C339.038 159.159 337.688 161.529 337.886 161.891C337.985 162.023 338.017 162.155 337.952 162.155C337.886 162.155 337.359 162.287 336.766 162.451C335.779 162.748 335.647 162.682 335.318 161.957C334.593 160.41 332.585 160.607 332.354 162.254C332.289 162.649 332.025 162.978 331.729 162.978C331.433 162.978 330.609 163.604 329.852 164.394C328.733 165.546 328.436 165.711 328.272 165.316C328.107 164.855 327.975 164.888 327.449 165.48C327.087 165.875 326.823 166.501 326.823 166.863C326.823 168.114 324.518 169.892 321.72 170.814C320.271 171.308 318.888 171.703 318.658 171.703C318.427 171.703 317.538 172.197 316.682 172.757C315.826 173.349 314.905 173.843 314.641 173.843C314.312 173.843 314.114 174.271 314.048 175.16C313.983 175.884 313.719 176.707 313.456 177.004C313.094 177.399 313.061 177.761 313.291 178.387C313.555 179.078 313.489 179.308 312.929 179.671C312.336 180.066 312.303 180.23 312.633 180.889C312.896 181.35 313.061 183.161 313.094 185.498C313.16 188.626 313.061 189.581 312.534 190.733C312.205 191.491 311.711 192.116 311.447 192.116C310.624 192.116 310.987 193.4 312.007 193.927C313.357 194.618 313.983 194.552 316.057 193.433C317.604 192.61 318.296 192.445 320.205 192.445C321.819 192.445 322.576 192.314 322.773 191.984C323.531 190.7 329.161 188.988 332.486 189.054C335.351 189.087 338.149 191.227 337.491 192.906C337.128 193.828 338.314 193.96 339.104 193.038C339.993 192.017 341.639 190.997 341.639 191.458C341.639 191.622 341.211 192.182 340.651 192.676C339.466 193.729 339.334 194.388 340.487 193.631C341.507 192.939 341.606 192.972 341.409 193.762C341.31 194.124 340.651 194.651 339.96 194.981C338.61 195.606 338.413 195.902 339.137 196.166C339.4 196.265 339.927 196.001 340.355 195.54C341.409 194.421 341.738 194.552 341.54 196.034C341.31 197.812 342.199 199.195 343.845 199.656C345.557 200.15 346.413 200.117 346.907 199.524C347.434 198.899 347.895 198.899 347.895 199.491C347.895 199.722 348.092 200.117 348.323 200.314C348.685 200.578 349.113 200.413 350.232 199.557C351.088 198.899 352.208 198.372 352.965 198.273C353.657 198.174 354.315 197.977 354.447 197.812C355.5 196.199 360.208 190.832 360.834 190.503C362.184 189.778 364.357 185.696 365.345 182.074L366.234 178.749L365.312 177.465C364.818 176.74 364.291 175.753 364.192 175.259C364.061 174.732 363.666 174.139 363.303 173.876C362.908 173.58 362.612 172.954 362.546 172.296C362.48 171.604 362.019 170.715 361.229 169.793C359.945 168.312 359.089 166.106 359.089 164.262C359.089 162.55 358.529 161.431 357.805 161.661C357.278 161.826 357.147 161.628 356.949 160.443C356.06 154.846 355.336 154.879 354.348 160.673C353.788 163.9 352.405 166.764 351.451 166.764C350.562 166.764 349.409 165.941 347.434 163.867L345.689 162.056L346.644 160.64C347.17 159.85 347.73 159.126 347.928 159.027C348.29 158.764 348.29 158.5 347.928 157.908C347.697 157.545 347.434 157.545 346.512 157.875C345.524 158.237 345.228 158.204 344.043 157.578C343.285 157.216 342.594 156.755 342.462 156.558C342.001 155.833 341.573 156.261 341.738 157.216Z" fill="black" fill-opacity="0.15"/>
<path d="M226.997 159.554C226.371 160.344 225.548 161.464 225.153 162.023C224.725 162.649 223.737 163.373 222.651 163.834C220.412 164.789 219.589 166.205 220.148 168.081C220.675 169.859 220.543 171.045 219.687 172.493C218.996 173.678 218.601 175.819 218.798 177.564C218.864 178.354 220.543 179.605 221.498 179.605C223.243 179.605 224.264 178.189 225.449 174.172C226.009 172.164 226.601 169.958 226.766 169.234C226.898 168.509 227.26 167.324 227.556 166.633C227.853 165.941 228.017 165.052 227.918 164.69C227.82 164.262 227.951 163.999 228.412 163.9C228.939 163.735 229.038 163.439 229.038 161.694C229.005 160.607 228.807 159.323 228.577 158.895L228.149 158.138L226.997 159.554Z" fill="black" fill-opacity="0.15"/>
<path d="M344.306 204.462C343.45 207.195 343.45 207.195 344.372 207.327C345.623 207.557 347.434 206.306 348.389 204.594L349.245 202.981L347.731 203.178C346.578 203.343 346.084 203.277 345.623 202.816C344.998 202.289 344.965 202.322 344.306 204.462Z" fill="black" fill-opacity="0.15"/>
</g>
<defs>
<filter id="filter0_b_47_527" x="-22.1752" y="-22.1752" width="408.35" height="278.35" filterUnits="userSpaceOnUse" color-interpolation-filters="sRGB">
<feFlood flood-opacity="0" result="BackgroundImageFix"/>
<feGaussianBlur in="BackgroundImageFix" stdDeviation="11.4545"/>
<feComposite in2="SourceAlpha" operator="in" result="effect1_backgroundBlur_47_527"/>
<feBlend mode="normal" in="SourceGraphic" in2="effect1_backgroundBlur_47_527" result="shape"/>
</filter>
<linearGradient id="paint0_linear_47_527" x1="2" y1="2" x2="130.405" y2="324.275" gradientUnits="userSpaceOnUse">
<stop stop-color="white" stop-opacity="0.4"/>
<stop offset="1" stop-color="white" stop-opacity="0"/>
</linearGradient>
<radialGradient id="paint1_radial_47_527" cx="0" cy="0" r="1" gradientUnits="userSpaceOnUse" gradientTransform="translate(2 2) rotate(32.5741) scale(427.2 269.348)">
<stop stop-color="white" stop-opacity="0.7"/>
<stop offset="0.677083" stop-color="#B691FF" stop-opacity="0.4"/>
<stop offset="1" stop-color="white" stop-opacity="0"/>
</radialGradient>
<linearGradient id="paint2_linear_47_527" x1="351.951" y1="228.167" x2="316.94" y2="84.1868" gradientUnits="userSpaceOnUse">
<stop stop-color="white" stop-opacity="0.32"/>
<stop offset="0.140625" stop-color="#F9FFF5"/>
<stop offset="1" stop-color="white" stop-opacity="0"/>
</linearGradient>
<linearGradient id="paint3_linear_47_527" x1="357.631" y1="3.74243" x2="323.401" y2="148.648" gradientUnits="userSpaceOnUse">
<stop stop-color="#53555E"/>
<stop offset="1" stop-color="white" stop-opacity="0"/>
</linearGradient>
<linearGradient id="paint4_linear_47_527" x1="2" y1="55.7746" x2="344.098" y2="229.341" gradientUnits="userSpaceOnUse">
<stop/>
<stop offset="0.706073" stop-color="#404040" stop-opacity="0.293927"/>
<stop offset="1" stop-color="#050505" stop-opacity="0"/>
</linearGradient>
</defs>
</svg>
