<svg width="27" height="25" viewBox="0 0 27 25" fill="none" xmlns="http://www.w3.org/2000/svg">
<path d="M17.2 15.5629C19.8163 11.9896 19.2564 6.94897 15.8226 4.04611C14.6348 3.042 13.252 2.41953 11.8235 2.16622C13.9611 1.71331 16.2778 2.21753 18.0757 3.73738C21.165 6.34903 21.5523 10.9706 18.9406 14.06C18.4287 14.6655 17.8396 15.1672 17.2 15.5629Z" fill="#9B51E0"/>
<path d="M16.6249 10.6878C14.1485 7.01624 9.21597 5.83637 5.32196 8.08458C3.975 8.86225 2.92113 9.95262 2.1991 11.211C2.49666 9.04638 3.75549 7.03716 5.79428 5.86007C9.29765 3.83739 13.7774 5.03774 15.8001 8.54111C16.1965 9.22779 16.4692 9.95198 16.6249 10.6878Z" fill="#9B51E0"/>
<path d="M11.804 10.0601C7.65166 11.5999 5.3408 16.1145 6.60628 20.4291C7.04401 21.9216 7.8548 23.2031 8.90723 24.2017C6.87398 23.4016 5.21869 21.7041 4.55612 19.445C3.41759 15.5632 5.64147 11.4934 9.5233 10.3549C10.2842 10.1317 11.0522 10.0378 11.804 10.0601Z" fill="#9B51E0"/>
<path d="M9.9707 14.0743C10.0614 18.502 13.5668 22.1673 18.0578 22.3889C19.6112 22.4655 21.0879 22.1205 22.3768 21.4544C20.9533 23.1122 18.8063 24.1182 16.455 24.0022C12.4146 23.8028 9.30078 20.3658 9.50015 16.3253C9.53923 15.5334 9.70269 14.777 9.9707 14.0743Z" fill="#9B51E0"/>
<path d="M13.6781 17.1247C17.9432 18.3172 22.465 16.0205 23.9748 11.7851C24.497 10.3201 24.5934 8.8067 24.3282 7.38031C25.5039 9.22204 25.8466 11.5681 25.0562 13.7856C23.6978 17.5961 19.5077 19.584 15.6972 18.2256C14.9503 17.9594 14.2735 17.5844 13.6781 17.1247Z" fill="#9B51E0"/>
</svg>
