<svg width="360" height="230" viewBox="0 0 360 230" fill="none" xmlns="http://www.w3.org/2000/svg">
<g filter="url(#filter0_b_932_615)">
<rect width="360" height="230" rx="15.1928" fill="url(#paint0_linear_932_615)"/>
</g>
<mask id="mask0_932_615" style="mask-type:alpha" maskUnits="userSpaceOnUse" x="0" y="0" width="360" height="230">
<rect width="360" height="230" rx="15.4" fill="#16084C"/>
<rect width="360" height="230" rx="15.4" fill="url(#paint1_linear_932_615)" fill-opacity="0.5"/>
</mask>
<g mask="url(#mask0_932_615)">
<path d="M128.1 15.2547C126.487 15.3535 124.84 15.6168 124.478 15.8144C124.116 16.0119 121.515 16.2753 118.717 16.3741C114.074 16.5387 106.271 17.4277 105.876 17.8557C105.777 17.9216 105.909 18.0862 106.139 18.152C106.567 18.3166 106.699 19.2385 106.304 19.2385C106.139 19.2715 104.427 19.469 102.452 19.6995C98.6326 20.1933 97.8095 20.6214 98.929 21.5762C99.5216 22.07 100.509 22.3005 105.316 23.1565C108.576 23.7492 109.959 25.2966 108.675 27.0087C107.95 27.9964 108.082 28.3257 109.432 28.6878L110.65 29.0171L109.267 29.2805C108.148 29.478 107.851 29.6756 107.851 30.2024C107.851 30.7621 108.016 30.8279 108.971 30.6633C109.893 30.5316 110.09 30.5645 109.926 30.9596C109.827 31.223 109.432 31.4206 109.004 31.4206C108.543 31.4206 107.917 31.8486 107.391 32.54C106.633 33.5606 106.534 33.9557 106.534 36.5568C106.534 40.3101 107.325 43.2733 108.312 43.2733C108.675 43.2733 109.498 43.5697 110.123 43.9648C111.769 44.9525 113.152 44.6232 114.535 42.8124C115.128 42.0222 116.544 40.376 117.663 39.1578L119.704 36.9189L122.931 36.1946C125.268 35.6678 126.651 35.141 127.935 34.285C129.68 33.1326 137.088 30.5974 139.294 30.367C140.216 30.2682 140.282 30.1694 140.381 28.8854C140.48 27.4038 141.171 26.6136 143.443 25.3954C144.233 24.9345 144.398 24.704 144.101 24.5064C143.509 24.1772 143.904 22.531 144.562 22.531C145.319 22.531 145.451 21.9383 144.891 20.9177C144.332 19.7982 144.266 19.8312 146.867 18.9751C147.953 18.613 149.665 17.9216 150.653 17.4277L152.464 16.5717L150.159 16.7692C148.908 16.868 147.525 17.0326 147.13 17.1314C146.735 17.1972 146.307 17.0655 146.143 16.8021C146.011 16.5717 144.496 16.0449 142.817 15.6498C139.624 14.9254 135.146 14.8267 128.1 15.2547Z" fill="black" fill-opacity="0.15"/>
<path d="M96.3281 15.9788C93.76 16.4398 85.1667 17.2629 84.6728 17.0653C84.4094 16.9666 83.5863 17.2958 82.7961 17.8226C81.8413 18.4481 81.3475 18.6128 81.2487 18.3165C80.9853 17.4933 80.5244 17.9543 80.5244 19.0408C80.5244 20.4895 81.5121 21.2796 82.9278 20.9833C84.8375 20.5882 83.5205 21.5101 81.1499 22.2015C79.0757 22.8271 78.7464 22.86 78.2855 22.3991C77.9563 22.1357 77.1331 21.8723 76.4088 21.8064C75.1906 21.7077 75.0918 21.7735 74.9272 22.6954C74.7955 23.5185 74.598 23.6831 73.7749 23.6831C73.0505 23.6831 72.82 23.5514 72.8859 23.1234C72.9847 22.4978 72.82 22.3662 71.4701 22.0698C70.6141 21.8723 70.3836 21.9711 69.8569 22.86C69.5276 23.4197 69.3301 23.9465 69.4288 24.0453C69.4947 24.1441 70.8775 24.3416 72.4908 24.5392L75.4211 24.8684L76.1125 23.9794C76.8039 23.1234 77.6929 23.1234 77.3636 23.9465C77.1002 24.6709 80.9524 25.2306 83.2571 24.8684C84.3107 24.6709 85.5947 24.605 86.0557 24.7038C87.0105 24.9013 88.4591 24.0782 87.9982 23.6502C87.8665 23.5185 86.352 23.3868 84.6399 23.3539C81.8743 23.3539 81.5779 23.288 82.0389 22.86C82.401 22.4978 83.3559 22.3662 85.7593 22.3332C87.5043 22.3332 89.1176 22.2015 89.3152 22.1028C89.5127 21.9711 89.9078 21.9711 90.2041 22.0698C90.4675 22.1686 92.1467 21.576 93.9246 20.7199C95.7025 19.8639 98.2048 18.8762 99.4559 18.5469C101.596 17.9543 102.748 17.6909 108.444 16.5715C109.564 16.341 110.486 16.0776 110.486 15.9788C110.486 15.6825 97.9743 15.6825 96.3281 15.9788Z" fill="black" fill-opacity="0.15"/>
<path d="M77.0015 19.2382C76.343 19.5016 76.2772 19.6333 76.6064 20.3576C77.3637 22.0368 78.8124 21.8063 78.6148 20.0613C78.4831 18.876 78.2197 18.7443 77.0015 19.2382Z" fill="black" fill-opacity="0.15"/>
<path d="M63.9632 19.7649C63.4364 20.0283 62.745 20.5551 62.3828 20.9173C61.7572 21.5428 61.7572 21.5428 62.6791 21.5428C63.7656 21.5428 65.8069 20.3576 65.6423 19.8308C65.4448 19.2381 64.9838 19.2052 63.9632 19.7649Z" fill="black" fill-opacity="0.15"/>
<path d="M70.8774 19.4688C70.3836 19.9627 70.7457 20.2261 72.4578 20.72C73.8077 21.115 74.4003 21.1809 74.9271 20.8846C75.849 20.3907 75.5527 20.0615 73.8077 19.6005C72.1286 19.1725 71.1737 19.1396 70.8774 19.4688Z" fill="black" fill-opacity="0.15"/>
<path d="M54.8434 21.6091C53.4935 21.9713 51.8144 22.3335 51.1559 22.4323C49.6414 22.6298 49.8389 23.1895 51.4193 23.1895C52.1107 23.1895 52.8021 23.4529 53.1972 23.848C53.5594 24.2102 54.152 24.5065 54.4813 24.5065C54.8434 24.5065 55.5678 24.7699 56.0946 25.0662C57.0165 25.593 57.1811 25.593 58.7944 25.0662C59.7492 24.7699 61.2637 24.5065 62.1527 24.5065C63.7989 24.5065 65.05 24.0785 65.05 23.5188C65.05 23.3212 64.8195 23.1895 64.5232 23.1895C64.194 23.1895 64.0623 22.992 64.194 22.6957C64.4574 22.0042 63.6672 22.0701 62.2514 22.8932C61.0332 23.6175 60.5723 23.6175 58.3334 22.7615C57.6091 22.4981 57.214 22.2018 57.4445 22.0701C57.8396 21.8067 57.9383 20.8519 57.5762 20.9177C57.4115 20.9507 56.1933 21.247 54.8434 21.6091Z" fill="black" fill-opacity="0.15"/>
<path d="M254.694 21.5101C254.233 21.6418 253.871 21.9052 253.871 22.1357C253.871 22.86 252.949 23.1892 250.875 23.1892C248.768 23.1892 243.698 24.0123 242.842 24.5062C242.414 24.7696 242.414 24.8354 242.94 25.0001C244.159 25.4939 243.368 25.8232 240.965 25.8232L238.397 25.8561L239.549 26.8109C240.175 27.3706 241.064 27.7986 241.525 27.7986C242.282 27.8316 242.282 27.8645 241.722 28.1937C241.261 28.4571 240.833 28.4242 239.977 27.9962C238.891 27.4694 236.553 27.2719 236.158 27.6669C235.796 28.062 236.323 28.7864 237.014 28.7864C237.508 28.7864 237.607 28.8851 237.343 29.1485C236.718 29.7741 235.631 29.1156 234.94 27.7657C234.578 27.0414 234.018 26.4817 233.721 26.4817C233.261 26.4817 233.293 26.6134 233.919 27.2719C234.545 27.9303 234.578 28.062 234.149 28.2267C233.392 28.523 233.524 29.2473 234.38 29.6095C234.775 29.807 235.137 30.268 235.203 30.6631C235.368 31.8154 236.092 32.2105 237.31 31.7825C238.002 31.5191 238.463 31.5191 238.693 31.7496C239.022 32.0788 238.594 32.2105 237.672 32.1117C237.08 32.0459 236.816 32.7044 237.211 33.1982C237.87 33.9884 236.981 35.3712 235.862 35.3712C234.874 35.3712 234.61 34.9103 235.434 34.5811C236.158 34.3177 236.059 32.6385 235.269 32.1447C234.907 31.9471 234.347 31.1898 233.985 30.4655C233.623 29.7741 233.096 29.1156 232.8 29.0168C232.536 28.8851 232.306 28.4242 232.306 27.9633C232.306 27.3706 232.141 27.1402 231.68 27.1402C231.318 27.1402 230.791 26.9097 230.528 26.6134C229.738 25.8232 228.75 26.317 228.487 27.634C228.388 28.2267 228.058 28.8193 227.795 28.951C227.334 29.1156 227.334 29.1815 227.762 29.7083C228.026 30.0046 228.355 30.4984 228.454 30.8277C228.552 31.124 229.112 31.4532 229.672 31.5849C230.594 31.7825 231.318 32.5397 230.923 32.9019C230.857 32.9678 229.672 32.6714 228.322 32.2105C227.005 31.7496 225.062 31.2886 224.075 31.1898C223.087 31.0911 221.935 30.7948 221.539 30.5643C221.144 30.3009 220.585 30.1033 220.288 30.1033C219.366 30.1033 219.794 30.6631 221.144 31.1898C222.363 31.6508 222.461 31.8154 222.099 32.2434C221.704 32.7373 221.605 32.7044 221.309 32.1117C221.013 31.5849 220.815 31.5191 220.288 31.8154C219.926 32.0459 219.136 32.3093 218.477 32.441C217.852 32.5397 217.062 32.7702 216.765 32.9019C216.337 33.0665 216.173 32.9678 216.173 32.6056C216.173 32.3093 215.942 32.0788 215.646 32.0788C214.823 32.0788 210.773 33.758 210.378 34.2518C209.983 34.7457 208.864 34.8774 208.501 34.4823C208.37 34.3835 208.436 34.0872 208.633 33.8238C209.226 33.1324 208.37 32.4081 206.954 32.4081H205.703L206.493 33.9226C207.382 35.6346 207.316 35.9639 206.197 35.47C205.604 35.2066 205.275 35.2396 204.682 35.7334C204.254 36.0956 203.694 36.359 203.431 36.359C203.102 36.359 203.036 36.5565 203.168 36.9845C203.365 37.676 202.838 38.2357 202.509 37.676C202.246 37.2479 199.711 37.2479 199.711 37.676C199.711 37.8406 200.073 38.0711 200.534 38.2028C200.995 38.3015 201.357 38.5649 201.357 38.7295C201.357 39.1576 199.842 38.7954 198.558 38.0381C197.999 37.7089 197.57 37.215 197.57 36.8199C197.57 36.4907 197.274 36.0297 196.912 35.7993C196.286 35.4042 196.286 35.4042 197.077 35.4042C197.538 35.4042 198.723 35.5359 199.711 35.6676C202.015 36.0297 203.991 35.3712 203.991 34.2518C203.991 33.5933 203.727 33.4287 202.114 33.0995C201.06 32.869 198.591 32.2434 196.649 31.7166C194.673 31.1569 192.862 30.7948 192.566 30.8935C192.237 31.0252 192.138 30.9265 192.303 30.4655C192.467 29.9387 192.237 29.7741 190.92 29.5107C189.833 29.2802 189.208 29.2802 188.944 29.5107C188.681 29.7083 187.924 29.7741 187.101 29.6753C185.52 29.4449 181.767 30.3009 178.079 31.6837C175.807 32.5397 175.083 33.0665 176.17 33.0665C176.433 33.0665 176.663 33.1982 176.663 33.3958C176.663 33.725 174.984 35.3712 174.655 35.3712C174.359 35.3712 173.042 37.6101 173.042 38.0711C173.042 38.8612 171.988 39.6514 171.396 39.3222C169.716 38.4332 166.128 41.0013 166.128 43.1414C166.128 43.767 166.325 44.3596 166.556 44.4584C166.819 44.5572 166.951 44.9852 166.852 45.5449C166.753 46.3351 166.885 46.5326 167.873 46.9936C169.354 47.7179 169.321 47.7179 171.033 46.5656C172.68 45.4461 173.042 45.3474 173.042 46.0717C173.042 46.368 173.404 47.1582 173.865 47.8496C174.721 49.1007 174.688 50.1872 173.865 50.1872C173.634 50.1872 173.206 50.286 172.943 50.3848C172.548 50.5165 172.482 50.3848 172.614 49.9238C172.68 49.5617 172.614 49.1666 172.416 49.0678C172.252 48.9361 172.153 48.6398 172.285 48.3764C172.581 47.5533 171.132 47.7838 170.243 48.7056C169.288 49.6275 169.223 50.4836 169.947 51.8993C170.572 53.1504 170.309 53.4797 168.399 53.7101C166.259 53.9735 165.206 54.632 165.074 55.6856C165.008 56.4429 164.646 56.7721 163.23 57.4306C162.308 57.8915 161.42 58.5171 161.321 58.8463C161.222 59.1756 160.662 59.6365 160.103 59.867C159.214 60.2292 158.917 60.2292 158.16 59.8341C157.139 59.3402 157.106 59.3731 157.534 60.4926C157.831 61.2827 157.831 61.3157 156.58 61.1511C155.131 60.9535 153.616 61.2498 153.616 61.7108C153.616 61.8754 154.308 62.4022 155.197 62.8302C157.172 63.8179 158.028 65.3983 157.699 67.5055C157.567 68.4603 157.304 68.9871 156.909 69.1188C156.053 69.3822 150.884 69.2175 150.225 68.8883C149.83 68.6907 149.27 68.7237 148.645 69.02C147.69 69.448 147.657 69.5139 147.855 71.0942C147.986 72.2795 147.888 73.2343 147.394 74.5513C146.966 75.7695 146.867 76.5267 147.064 76.9218C147.229 77.2182 147.361 77.8766 147.361 78.3376C147.361 79.1607 147.427 79.1936 148.645 78.9961C149.83 78.7985 149.962 78.8644 150.554 79.885C151.147 80.9057 151.18 81.0374 150.653 82.1897C150.324 82.9799 149.435 83.9018 148.316 84.7249C146.307 86.1736 145.715 87.1284 145.715 89.0051C145.715 90.0916 145.484 90.4867 144.068 91.8037C143.179 92.6268 142.159 93.3182 141.797 93.3182C141.434 93.3182 140.941 93.6474 140.743 94.0425C140.513 94.4705 139.854 95.3595 139.228 96.0509C138.603 96.7423 138.175 97.5325 138.274 97.763C138.339 97.9935 138.01 98.5861 137.483 99.08C136.99 99.5738 136.463 100.463 136.364 101.055C136.232 101.648 135.936 102.307 135.673 102.537C135.047 103.064 135.047 104.512 135.64 105.369C135.969 105.797 136.002 106.126 135.771 106.389C135.574 106.653 135.574 106.982 135.804 107.443C136.002 107.805 136.166 108.496 136.166 109.023C136.134 110.241 135.014 113.501 134.553 113.665C133.993 113.863 134.125 114.62 134.718 114.851C135.113 115.015 135.212 115.312 135.047 116.168C134.784 117.616 135.31 118.933 136.298 119.296C137.418 119.724 139.327 122.193 139.821 123.872C140.249 125.387 140.677 125.782 144.957 128.811L147.328 130.49L148.744 129.864C150.291 129.173 153.583 128.975 154.604 129.535C155.098 129.798 155.789 129.634 157.699 128.712C162.078 126.638 164.416 126.868 165.601 129.469L166.161 130.753L167.906 130.589C169.19 130.49 169.881 130.589 170.54 131.017C171.297 131.51 171.396 131.807 171.396 133.519C171.396 134.638 171.132 136.12 170.77 137.042L170.112 138.655L171.955 141.421C174.161 144.68 176.499 150.179 175.972 150.804C175.742 151.1 175.807 151.561 176.17 152.417C176.861 154.13 176.795 155.381 175.807 157.685C173.634 162.822 173.733 164.402 176.466 170.197C178.145 173.785 178.31 174.345 178.31 176.386C178.31 178.329 178.474 178.922 179.561 180.996C182.162 186.066 183.051 188.47 182.261 188.47C181.833 188.47 183.314 191.334 183.874 191.598C184.104 191.696 185.29 191.532 186.442 191.235C187.627 190.939 189.01 190.807 189.57 190.906C190.163 191.005 190.92 190.906 191.479 190.61C192.006 190.346 192.862 190.116 193.389 190.116C194.377 190.116 195.76 188.799 199.908 183.992C202.081 181.457 202.081 181.457 202.312 179.284C202.509 177.506 202.575 177.407 204.221 176.354C205.67 175.399 205.966 175.037 206.131 173.95C206.263 173.226 206.164 171.678 205.933 170.526L205.505 168.386L207.481 166.575C208.534 165.587 210.082 164.402 210.905 163.974C213.243 162.723 213.473 162.328 213.736 159.002C213.934 156.27 213.868 155.743 212.88 152.253C211.498 147.38 211.465 146.392 212.782 143.594C213.934 141.157 218.346 135.857 220.65 134.112C222.099 133.025 225.556 127.79 227.235 124.135C228.651 121.041 228.651 117.452 227.268 118.637C227.038 118.802 225.951 119.098 224.898 119.296C223.811 119.46 222.066 119.888 221.046 120.25L219.169 120.876L218.313 119.987C217.819 119.46 217.556 118.9 217.654 118.604C217.885 118.011 214.987 114.456 212.814 112.678C211.728 111.789 211.234 111.064 210.905 109.978C210.674 109.188 210.148 108.167 209.72 107.772C209.16 107.245 208.929 106.685 208.929 105.829C208.929 104.973 208.436 103.755 207.316 101.813C206.427 100.265 205.176 97.7959 204.55 96.3472C203.398 93.7133 203.398 93.6804 204.09 93.4499C204.946 93.1865 206.328 94.701 208.304 97.9935C208.995 99.2117 209.72 100.298 209.884 100.397C210.082 100.496 210.378 101.385 210.576 102.372C210.872 103.821 211.234 104.447 212.255 105.401C212.946 106.06 213.605 106.883 213.736 107.278C213.868 107.673 214.461 108.529 215.053 109.221C216.337 110.603 216.667 111.986 215.514 110.933C214.987 110.439 214.856 110.439 214.856 110.834C214.856 111.097 215.152 111.591 215.514 111.92C215.844 112.217 216.469 113.468 216.864 114.686C217.259 115.871 217.753 116.958 217.951 117.09C218.445 117.452 220.222 117.057 220.65 116.497C220.848 116.234 221.474 116.036 222.066 116.036C222.988 116.036 223.647 115.806 225.062 114.982C225.326 114.818 226.478 114.258 227.565 113.698C228.684 113.172 229.672 112.447 229.738 112.151C229.836 111.789 230.594 111.361 231.746 110.999C232.964 110.603 233.656 110.208 233.787 109.78C233.919 109.418 234.182 109.122 234.446 109.122C235.17 109.122 236.915 107.146 236.915 106.323C236.915 105.829 237.146 105.5 237.607 105.401C238.002 105.303 238.199 105.072 238.068 104.875C237.969 104.677 238.166 104.084 238.528 103.558C238.924 103.031 239.22 102.438 239.22 102.241C239.22 101.648 237.146 99.936 236.421 99.9031C235.203 99.8701 234.281 98.6849 234.281 97.1374C234.281 95.9851 233.985 96.0509 232.47 97.5984C231.219 98.8824 229.046 99.8372 228.355 99.4092C228.157 99.3104 228.026 98.8824 228.026 98.4873C228.026 98.0593 227.795 97.4008 227.466 96.9728C226.972 96.2485 226.906 96.2155 226.511 96.7423C226.149 97.2691 226.083 97.2362 225.589 96.5448C225.293 96.1497 225.062 95.6229 225.062 95.3924C225.062 95.162 224.536 94.4047 223.91 93.6804C222.593 92.2646 222.395 90.9147 223.383 90.355C224.667 89.6636 225.26 89.9599 226.412 91.8695C227.301 93.3511 227.927 93.9767 229.474 94.7998C231.45 95.8863 232.174 95.9192 233.425 95.0961C234.084 94.6352 235.466 95.0632 235.104 95.6229C234.446 96.7094 237.969 97.5654 243.994 97.7959L247.945 97.9605L249.262 99.2117C249.986 99.936 251.106 100.759 251.731 101.088C252.357 101.385 252.686 101.714 252.488 101.78C251.764 102.043 252.027 102.767 253.213 103.821C254.233 104.71 254.464 104.776 255.188 104.447C255.649 104.249 256.011 103.821 256.011 103.492C256.011 103.163 256.143 102.833 256.308 102.702C256.637 102.537 256.769 103.13 257.164 106.159C257.427 108.398 258.711 112.052 260.917 117.155C262.036 119.658 263.057 122.259 263.255 122.983C263.749 124.761 264.736 125.024 265.889 123.609C266.646 122.687 266.843 122.588 267.403 122.95C267.897 123.246 268.029 123.74 268.062 125.189C268.095 126.539 268.259 127.132 268.72 127.461C269.214 127.823 269.379 127.79 269.872 127.362C270.202 127.066 270.597 126.407 270.794 125.913C271.058 125.09 270.959 124.761 270.169 123.674C269.016 122.094 268.523 121.732 268.193 122.292C267.897 122.786 267.206 122.456 267.206 121.798C267.206 121.567 267.403 121.304 267.667 121.205C268.029 121.073 268.095 120.119 268.062 116.826L268.029 112.645L268.918 112.348C269.412 112.184 269.905 111.789 270.004 111.46C270.103 111.13 270.992 110.208 271.947 109.352C272.934 108.496 273.856 107.509 273.955 107.146C274.087 106.784 274.614 106.257 275.14 105.994C275.799 105.632 276.095 105.237 276.095 104.71C276.095 103.591 276.655 103.294 278.894 103.261C280.441 103.261 280.968 103.097 281.396 102.57C282.022 101.813 282.417 102.076 282.845 103.525C283.24 104.908 284.623 106.488 285.182 106.257C285.61 106.093 285.676 106.192 285.479 106.784C285.314 107.344 285.479 107.673 286.104 108.167C286.829 108.76 286.96 109.089 286.96 110.636C286.96 112.25 287.026 112.414 287.816 112.612C288.376 112.777 288.87 112.645 289.364 112.184C291.273 110.538 291.109 110.439 292.195 113.962C293.479 118.143 293.907 120.053 293.611 120.481C293.479 120.645 293.38 121.765 293.38 122.95C293.38 124.794 293.446 125.09 293.94 124.991C294.829 124.86 297.167 128.712 296.936 129.93C296.706 131.115 298.056 133.157 299.669 134.013C300.295 134.375 301.052 134.968 301.315 135.363C302.468 137.141 302.863 135.593 301.776 133.486C301.414 132.762 301.118 131.675 301.118 131.05C301.118 129.765 299.34 127.395 297.364 126.045C296.574 125.485 296.179 124.991 296.179 124.432C296.179 124.004 295.784 123.214 295.323 122.654L294.467 121.633L295.06 119.263C295.356 117.946 295.652 116.662 295.718 116.431C295.949 115.641 296.673 116.234 296.607 117.155C296.541 117.913 296.64 118.011 297.233 117.847C297.727 117.682 298.253 117.979 299.34 119.065C300.13 119.822 300.788 120.645 300.788 120.876C300.788 121.073 301.118 121.304 301.546 121.37C302.007 121.436 302.303 121.699 302.303 122.127C302.336 122.489 302.369 123.049 302.402 123.378C302.435 123.905 302.632 123.839 303.752 122.95C304.476 122.39 305.069 121.699 305.069 121.436C305.069 121.205 305.431 120.909 305.859 120.777C306.287 120.678 307.044 120.152 307.538 119.658C308.361 118.769 308.427 118.538 308.262 116.925C308.032 114.521 307.472 113.567 304.575 110.472C302.896 108.661 302.105 107.574 302.105 107.015C302.105 105.797 304.608 103.525 305.958 103.525C306.847 103.525 307.011 103.656 307.11 104.414C307.242 105.599 308.361 105.895 308.361 104.776C308.361 103.953 309.711 103.097 310.534 103.426C310.798 103.525 311.258 103.393 311.588 103.163C312.082 102.735 313.267 102.142 315.111 101.352C316.658 100.693 318.831 97.7959 319.687 95.2937C320.708 92.2646 321.169 89.0051 320.51 89.5977C319.918 90.1904 319.094 90.1245 319.358 89.5319C319.457 89.2685 319.654 88.8075 319.753 88.5442C319.885 88.2149 319.753 88.0503 319.391 88.0503C319.029 88.0503 318.897 87.8857 319.029 87.5564C319.259 86.9309 316.625 83.836 314.979 82.7495L314.189 82.2556L315.242 80.7081C315.901 79.7533 316.526 79.1607 316.921 79.1607C317.284 79.1607 317.58 78.9632 317.58 78.6998C317.58 78.0413 315.045 77.8766 313.925 78.4693C313.135 78.8644 313.003 78.8315 312.213 78.0413C311.752 77.5803 311.127 77.1852 310.83 77.1852C310.007 77.1852 310.271 76.6584 311.983 74.8805C313.563 73.2343 314.518 72.9709 314.189 74.255C314.024 74.9135 314.617 76.5267 315.012 76.5267C315.144 76.5267 315.407 76.2634 315.572 75.9012C316 75.111 317.284 74.7818 318.37 75.2098C319.062 75.4732 319.226 75.7366 319.226 76.6584C319.226 77.7449 319.292 77.7779 320.872 78.173C322.321 78.5022 322.519 78.6668 322.321 79.2265C322.189 79.6546 322.321 80.0167 322.716 80.2801C323.078 80.5435 323.276 81.1362 323.276 81.8276C323.276 83.5396 323.671 83.836 325.087 83.2433C325.745 82.9799 326.535 82.519 326.832 82.2556C327.358 81.7617 327.358 81.63 326.7 80.0826C326.173 78.7985 325.646 78.173 324.132 77.1523C323.078 76.4609 322.156 75.7366 322.058 75.6049C321.959 75.4402 322.255 74.9464 322.683 74.5513C323.276 73.9916 323.506 73.4319 323.506 72.51C323.506 71.1271 324.527 69.7443 325.35 70.0736C325.613 70.1723 326.009 70.3699 326.272 70.4687C327.062 70.765 328.379 69.2175 328.906 67.2421C329.202 66.2214 329.433 64.3776 329.433 63.1265C329.433 61.0523 329.301 60.5913 328.017 58.2208C325.91 54.3357 325.778 54.1711 324.198 53.4467C322.486 52.6895 321.663 52.6566 321.399 53.315C321.103 54.1052 320.741 53.9077 319.918 52.5578C319.193 51.3725 319.193 51.3725 319.391 52.3273C319.588 53.2492 319.588 53.2821 318.963 52.7224C318.634 52.4261 318.107 52.1627 317.81 52.1627C316.954 52.1627 316.823 51.5701 317.514 50.6811C317.876 50.2202 318.271 49.2983 318.37 48.6398C318.831 46.1046 319.127 45.6766 320.774 45.4461C323.408 45.084 329.103 45.2157 329.103 45.6107C329.103 45.8741 329.663 45.94 330.947 45.8083C332.758 45.6107 333.581 45.2815 332.857 45.0181C331.639 44.5901 331.408 44.1292 331.803 42.8451C332.133 41.7257 332.297 41.6269 333.351 41.6269C334.207 41.6269 334.799 41.8903 335.59 42.6805L336.676 43.7341L337.466 42.9768C338.125 42.3512 338.224 42.1208 337.894 41.594C337.499 40.9355 337.73 40.4416 338.289 40.8038C338.487 40.9026 338.882 41.4293 339.145 41.9561C339.573 42.7792 339.573 43.0426 339.145 44.2608C338.882 45.051 338.652 45.94 338.652 46.2692C338.652 46.5985 338.388 47.0594 338.059 47.257C337.499 47.6191 337.466 47.7508 337.894 49.002C338.191 49.7921 338.915 50.7799 339.738 51.5042C340.495 52.1298 342.339 53.8089 343.854 55.2247C345.368 56.6404 346.718 57.694 346.916 57.5952C347.344 57.2989 347.278 55.5539 346.817 55.2576C346.553 55.093 346.652 54.8954 347.047 54.5991C347.607 54.1711 347.607 54.1052 347.08 53.5126C346.586 52.9858 346.586 52.8212 346.981 52.4261C347.377 52.031 347.377 51.8664 346.85 51.2079C346.191 50.4177 345.994 49.6934 346.52 50.0226C346.685 50.1214 346.916 50.0555 347.014 49.9238C347.113 49.7592 346.685 49.397 346.06 49.1007C345.434 48.8044 344.907 48.3435 344.907 48.0471C344.907 47.7838 344.512 47.4874 344.018 47.3557C342.405 47.0265 342.24 46.8948 342.339 46.3022C342.405 45.94 342.24 45.4461 342.01 45.1827C341.681 44.7547 341.746 44.623 342.635 44.2608C343.459 43.8987 343.788 43.8987 344.315 44.2279C344.841 44.5572 345.072 44.5242 345.599 44.0633C346.158 43.5694 346.356 43.5694 347.442 43.9645L348.661 44.4255L349.352 43.1085C350.307 41.3306 352.085 40.3428 353.468 40.8696C355.147 41.4952 354.949 40.6721 353.237 39.9807C352.381 39.6185 351.196 39.0588 350.603 38.7625C349.582 38.2357 349.582 38.2028 350.208 37.7418C350.603 37.4784 350.801 37.0833 350.702 36.787C350.537 36.359 350.768 36.3261 352.216 36.5236C353.171 36.6553 354.422 37.0504 355.015 37.3796C356.233 38.1369 359.394 38.6308 359.394 38.0711C359.394 37.8735 359.131 37.5443 358.834 37.3796C358.307 37.0833 358.307 36.9845 358.735 36.6882C359.559 36.1285 358.406 35.5359 355.706 35.0749C354.389 34.8774 350.504 33.9555 347.047 33.0665C343.623 32.1776 338.948 31.2228 336.676 30.9265C334.404 30.6301 332.297 30.3338 331.935 30.268C331.441 30.1692 331.507 30.3338 332.264 31.124L333.219 32.1447L332.396 31.9471C329.038 31.2557 327.655 31.0911 324.527 31.0911C321.465 31.0911 320.905 30.9923 320.411 30.4655C319.654 29.6424 318.897 29.5107 313.135 29.1485C310.304 28.951 307.703 28.6217 307.044 28.3584C305.76 27.8316 296.936 26.9426 296.574 27.3048C296.442 27.4035 296.706 27.7986 297.167 28.1608L297.99 28.8522L294.928 28.6217C293.249 28.523 291.668 28.3584 291.405 28.2596C291.043 28.095 290.911 28.2925 290.911 28.9181C290.911 29.379 290.845 29.7741 290.779 29.7741C290.253 29.7741 287.289 28.2267 286.631 27.6011C285.808 26.8438 282.087 25.8232 280.145 25.8232C279.453 25.8232 279.355 25.889 279.717 26.317C280.079 26.7451 279.816 26.8109 277.807 26.8109C276.523 26.8109 275.371 26.6463 275.272 26.4817C275.173 26.2841 274.021 26.1524 272.737 26.1524C270.959 26.1524 270.235 25.9878 269.51 25.4939C268.588 24.8354 267.864 24.8684 266.876 25.6586C266.382 26.0536 264.242 26.6134 264.242 26.317C264.242 26.2512 265 25.7903 265.889 25.2964C267.502 24.4074 267.765 24.0453 267.271 23.3539C266.876 22.7941 264.012 22.2015 261.641 22.2015C259.929 22.2015 259.337 22.0698 259.172 21.7076C258.974 21.1808 256.308 21.0491 254.694 21.5101ZM187.858 36.787C187.858 36.9845 186.969 37.7747 185.882 38.4991L183.94 39.816L183.973 41.6927C184.006 44.5242 184.434 44.8206 188.088 44.2608C192.303 43.6353 193.323 43.7341 192.5 44.7218C192.237 45.051 191.479 45.1827 190.064 45.1827C188.944 45.1498 187.66 45.3144 187.232 45.5778L186.409 46.0058L187.166 46.5985C187.726 47.0594 187.891 47.4216 187.726 48.0471C187.496 49.002 187.133 49.1007 186.541 48.3764C186.31 48.113 185.882 47.8825 185.553 47.8825C184.565 47.8825 184.137 48.7386 184.368 50.1872C184.565 51.4384 184.532 51.5042 183.281 52.1627C181.997 52.7883 181.964 52.7883 181.536 52.1956C181.108 51.5701 181.042 51.603 179.297 52.3602C177.157 53.2821 176.466 53.315 176.071 52.6236C175.807 52.1298 175.676 52.1298 174.721 52.6566C173.437 53.315 173.108 53.1504 174.03 52.3273C174.392 51.9981 174.688 51.5371 174.688 51.3067C174.688 50.8128 176.499 51.0103 177.256 51.603C177.52 51.8005 177.651 51.8005 177.651 51.5701C177.651 51.3725 177.487 51.1091 177.322 51.0103C176.795 50.6811 177.289 50.1872 178.178 50.1872C179.067 50.1872 179.693 49.0678 179.429 48.0142C179.265 47.257 179.495 46.8948 180.878 45.94C181.438 45.5449 181.931 45.1169 181.931 44.9852C181.931 44.8535 181.47 44.4913 180.944 44.195C178.968 43.0756 180.088 40.277 183.018 39.0588C183.512 38.8612 183.907 38.4991 183.907 38.2357C183.907 38.0052 184.137 37.4784 184.434 37.0833C184.829 36.5236 185.257 36.359 186.409 36.359C187.364 36.359 187.858 36.4907 187.858 36.787ZM206.263 64.8386C205.867 65.4641 205.439 65.9909 205.275 65.9909C204.485 65.9909 205.176 66.6824 206.888 67.6372C208.864 68.7566 211.563 71.1271 211.563 71.7856C211.563 71.9832 211.3 72.3783 211.004 72.6417C210.213 73.3331 206.295 72.938 204.452 71.9832C203.168 71.3247 203.003 71.3247 201.028 71.7856C199.875 72.049 198.756 72.4112 198.525 72.6087C197.999 73.0368 196.286 72.7075 195.035 71.9832C194.278 71.5552 194.179 71.3247 194.344 70.4687C194.443 69.9089 194.673 69.3822 194.805 69.2834C194.937 69.1846 195.134 68.7237 195.266 68.2298C195.397 67.7359 195.694 67.275 195.957 67.1762C196.221 67.0774 196.418 66.814 196.418 66.5507C196.418 66.3202 196.747 65.7934 197.175 65.3983C197.768 64.8386 198.163 64.7398 199.151 64.9044C200.369 65.102 200.665 65.4312 200.04 65.8263C199.809 65.958 200.04 66.386 200.567 66.8799C201.258 67.5384 201.587 67.6372 202.147 67.3738C202.542 67.2091 203.201 66.9128 203.662 66.7153C204.221 66.4848 204.287 66.3531 203.925 66.3531C202.476 66.2873 203.102 64.5423 204.748 64.0484C206.822 63.4558 207.02 63.5545 206.263 64.8386ZM223.548 64.1801C224.733 64.674 225.029 65.3654 224.437 66.2873C224.272 66.5177 224.009 66.6494 223.811 66.5177C223.317 66.2214 222.428 66.6494 222.428 67.1433C222.428 67.3738 222.264 67.6372 222.066 67.703C221.869 67.7689 222.527 68.559 223.548 69.448C224.799 70.5345 225.392 71.2918 225.392 71.8186C225.392 72.7075 225.655 72.7734 226.248 71.9832C226.676 71.4564 226.742 71.4564 227.367 72.2137C228.256 73.2672 228.19 73.5636 227.071 73.5636C225.622 73.5636 225.556 74.0903 226.807 75.2756C227.696 76.1317 227.993 76.7243 228.124 77.9096L228.322 79.4241L226.742 79.6546C225.161 79.8521 223.745 79.4899 223.745 78.8315C223.745 78.6668 223.35 78.5022 222.889 78.4364C221.638 78.3047 221.144 77.3828 221.869 76.5926C222.165 76.2634 222.428 75.6707 222.428 75.3085C222.428 74.9135 222.626 74.5513 222.856 74.4525C223.087 74.3867 222.33 73.4648 221.046 72.2795C219.268 70.6333 218.807 70.0077 218.807 69.2505C218.807 68.6249 218.642 68.2956 218.313 68.2956C218.049 68.2956 217.819 68.0323 217.819 67.7359C217.819 67.1104 219.07 65.6617 219.597 65.6617C219.794 65.6288 220.486 65.2008 221.111 64.674C221.737 64.1143 222.264 63.6862 222.297 63.6862C222.33 63.6862 222.889 63.9167 223.548 64.1801ZM178.771 69.0858C179.33 69.5139 180.713 70.4028 181.866 71.0942C183.742 72.1807 183.907 72.3783 183.907 73.4319C183.907 74.9464 184.664 76.3951 185.784 76.9218C186.343 77.1852 186.771 77.7449 186.936 78.4034C187.101 78.9961 187.364 79.4899 187.496 79.4899C187.66 79.4899 188.022 79.5887 188.319 79.6875C188.681 79.8192 188.846 79.7204 188.846 79.3582C188.846 79.0948 189.208 78.601 189.669 78.3047C190.722 77.6133 190.689 77.4157 189.504 76.1975C188.977 75.6378 188.516 74.9793 188.516 74.7159C188.516 74.1233 188.911 74.0903 189.438 74.6171C189.702 74.8805 189.965 74.8147 190.426 74.222C191.381 73.0368 192.237 73.5636 192.895 75.8024C193.817 78.7327 194.212 79.4899 194.904 79.4899C195.233 79.4899 196.089 79.8192 196.813 80.2143C198.031 80.9057 198.13 80.9057 198.427 80.3789C198.822 79.6875 199.711 79.6546 200.567 80.313C200.896 80.5764 201.488 80.774 201.851 80.774C202.213 80.774 202.805 80.5764 203.135 80.313C203.497 80.0497 204.188 79.8192 204.682 79.8192C205.407 79.8192 205.571 79.9838 205.736 80.9715C206.032 82.8482 204.386 87.293 203.102 87.9844C202.805 88.182 201.686 88.2149 200.632 88.1161C199.48 88.0174 198.196 88.1161 197.439 88.3795C196.254 88.7417 195.957 88.6758 191.973 87.0955C188.154 85.581 187.594 85.4493 186.64 85.7785C185.125 86.2724 184.137 87.5893 184.598 88.4454C185.158 89.499 183.742 90.1904 182.952 89.2356C182.755 89.0051 181.898 88.7088 181.042 88.61C180.088 88.5112 179.33 88.2149 179.001 87.8198C178.079 86.6675 176.433 85.7456 175.281 85.7456C174.589 85.7127 173.832 85.3834 173.108 84.7908C172.054 83.9018 172.054 83.8689 172.515 82.7495C173.108 81.3337 172.614 79.3253 171.56 78.9961C170.671 78.6998 168.564 78.7985 166.951 79.2265C166.226 79.3912 164.251 79.6875 162.572 79.8521C159.345 80.1484 158.588 80.4118 157.238 81.63C156.481 82.3214 156.185 82.3873 154.176 82.2227C152.135 82.058 151.937 81.9593 152.036 81.3337C152.135 80.5764 153.155 79.9838 155.164 79.4899C156.645 79.1278 159.411 76.7901 159.049 76.1975C158.654 75.539 160.333 73.1685 161.683 72.51C163.197 71.7198 163.56 71.3247 163.296 70.5345C163.033 69.6785 164.646 69.1188 166.095 69.5797C167.115 69.876 167.379 69.8102 168.663 68.9541C170.605 67.6372 171.231 67.6701 172.021 69.2505C172.811 70.765 174.26 72.049 176.235 72.9709C177.552 73.5965 179.297 75.2427 179.297 75.8353C179.297 76 179.001 76.4938 178.606 76.9548C178.013 77.712 177.783 77.8108 176.532 77.6462C174.326 77.3169 174.326 78.0413 176.532 78.9961C177.552 79.457 178.441 79.8192 178.507 79.8192C178.573 79.8192 178.639 79.3582 178.639 78.8315C178.639 78.1071 178.804 77.8437 179.232 77.8437C179.561 77.8437 180.088 77.4157 180.384 76.856C180.845 76.0658 180.911 75.7366 180.614 75.1768C180.055 74.1891 180.647 73.6623 181.767 74.1562C182.458 74.4854 182.59 74.4525 182.59 74.0245C182.59 73.7611 181.898 73.2343 181.042 72.8721C180.153 72.51 179.33 71.9832 179.199 71.7198C179.067 71.4564 178.639 71.2588 178.31 71.2588C177.618 71.2588 174.688 67.8018 174.688 67.0116C174.688 66.7482 174.919 66.2543 175.215 65.958C175.742 65.3654 175.807 65.4312 176.762 66.847C177.289 67.6701 178.211 68.6578 178.771 69.0858Z" fill="black" fill-opacity="0.15"/>
<path d="M45.4271 25.0989C45.2295 25.2306 44.9991 25.5599 44.9003 25.8562C44.7686 26.1525 43.715 26.7451 42.5627 27.1732L40.3896 27.9634L41.0152 28.7865C41.5749 29.5437 41.6737 29.5437 43.3199 29.1816C44.2747 28.9511 45.3942 28.4901 45.8551 28.128C47.205 27.0744 47.3367 27.3707 46.2831 29.2803C45.7234 30.301 45.2954 31.1899 45.2954 31.2887C45.2954 31.3875 45.7563 31.618 46.2831 31.7826C46.8428 31.9801 47.2708 32.3423 47.2708 32.6057C47.2708 33.1983 48.0281 33.1983 49.1805 32.6057C50.8925 31.7497 55.469 31.4533 57.675 32.046C58.4651 32.2764 58.9261 32.1777 59.7492 31.6838C60.9345 30.9265 60.9345 30.9595 60.2431 29.9717C59.9138 29.4449 59.848 29.1157 60.0784 28.9511C60.276 28.8523 60.4406 28.1609 60.4406 27.4036C60.4406 26.1525 60.4077 26.0867 59.5846 26.2842C59.1236 26.4159 58.3993 26.9098 57.9713 27.4036C57.2469 28.2267 57.1811 28.2597 56.5885 27.7329C56.2592 27.4366 55.2386 27.0744 54.3167 26.9756C52.9338 26.7781 52.5388 26.5805 52.0778 25.7903C51.5181 24.8685 51.4522 24.8355 48.6537 24.8355C47.0733 24.8355 45.6246 24.9672 45.4271 25.0989Z" fill="black" fill-opacity="0.15"/>
<path d="M65.9386 25.7244C65.8069 25.8232 65.7081 26.2183 65.7081 26.5475C65.7081 27.206 65.3459 27.3048 64.8191 26.778C64.6216 26.5805 64.2924 26.5146 64.0948 26.6463C63.8643 26.778 64.0948 27.206 64.7204 27.8316C65.774 28.9181 66.1361 28.9181 68.375 27.7657C69.1652 27.3707 69.6261 26.8768 69.7249 26.3171C69.8895 25.5269 69.8566 25.494 68.0128 25.494C66.9922 25.494 66.0373 25.5927 65.9386 25.7244Z" fill="black" fill-opacity="0.15"/>
<path d="M71.1738 26.4817C70.7458 27.0414 69.4288 28.095 68.3093 28.8193C67.1899 29.5766 66.2022 30.4655 66.1034 30.8277C65.9717 31.3545 65.7412 31.4533 64.8852 31.2887C63.4695 31.0253 61.4281 31.8813 61.4281 32.7373C61.4281 33.33 61.1977 33.3958 59.3868 33.4287C56.2919 33.4946 55.7322 33.3958 54.975 32.7044C54.3494 32.1118 54.1519 32.0788 52.7361 32.4739C51.913 32.7044 51.2216 33.0666 51.2216 33.2971C51.2216 33.6263 50.3985 33.7251 47.8633 33.6921C45.1635 33.6921 44.6367 33.5934 45.2293 33.33C46.6451 32.6386 46.3817 32.4739 41.6406 31.4204C40.587 31.1899 39.3688 31.0911 38.9079 31.2228C38.2823 31.3874 38.0518 31.3216 38.0518 30.9265C38.0518 30.5314 37.8872 30.4985 37.1629 30.7948C36.4385 31.0582 36.1751 31.0253 35.8459 30.5643C35.5825 30.2022 35.2533 30.1034 34.8582 30.268C33.4753 30.8277 29.261 31.585 28.5037 31.4204C28.0428 31.3216 27.1539 31.4204 26.5283 31.6508C24.9479 32.2105 23.6968 32.1776 22.7091 31.5521C22.1823 31.1899 20.7007 30.9265 18.363 30.7289C13.8195 30.3997 9.67099 29.6754 8.91373 29.1156C8.48572 28.7864 3.81045 29.7741 -0.140476 31.0253C-1.85254 31.585 -3.79508 32.1118 -4.42065 32.2435C-6.56073 32.6386 -6.75828 32.7703 -6.56073 33.4287C-6.46196 33.758 -6.29734 34.3506 -6.19856 34.7128C-6.06687 35.2725 -6.16564 35.3713 -7.02168 35.3713C-7.58139 35.3713 -8.04233 35.2396 -8.04233 35.075C-8.04233 34.9103 -9.26053 35.075 -10.7421 35.503C-12.8164 36.0627 -13.4749 36.392 -13.6724 36.9517C-13.9029 37.5443 -13.8041 37.7089 -13.1456 37.8736C-12.6847 37.9723 -11.7299 38.0052 -11.0055 37.9394C-9.98487 37.8406 -9.72148 37.9394 -9.85317 38.2686C-9.95195 38.532 -10.0178 38.8284 -10.0178 38.993C-10.0178 39.1247 -10.7092 39.3222 -11.5652 39.421C-15.7796 39.849 -19.1379 41.2648 -20.3231 43.0756C-21.2121 44.4255 -21.0475 44.9523 -19.8622 44.6889L-18.8415 44.4913L-19.4012 45.3803C-19.928 46.1376 -19.928 46.2363 -19.4342 46.0388C-18.7757 45.7754 -16.6027 46.1705 -16.6027 46.5327C-16.6027 46.7961 -29.4432 51.8335 -30.1675 51.8335C-30.398 51.8664 -30.9577 52.064 -31.4187 52.3274C-32.2418 52.7883 -32.2418 52.7883 -31.0894 52.6237C-27.1714 51.9981 -20.4548 50.0556 -18.1172 48.8703C-16.7014 48.146 -15.1869 47.5533 -14.7918 47.5533C-13.6395 47.5533 -11.0055 46.6644 -10.3141 46.0388C-9.85317 45.6108 -9.78732 45.3803 -10.0507 45.0181C-10.347 44.6889 -10.2483 44.5901 -9.55685 44.5901C-9.09591 44.5901 -7.94356 44.2938 -6.98875 43.9316C-6.06687 43.5695 -5.24376 43.339 -5.17791 43.4048C-5.11206 43.4707 -5.67177 43.8987 -6.39611 44.3926C-7.12045 44.8535 -7.71309 45.3145 -7.71309 45.3803C-7.71309 45.6108 -3.49876 44.5901 -1.91839 43.9975C-0.338022 43.3719 -0.239248 43.3719 0.847256 43.9316C1.47282 44.2609 2.75687 44.623 3.71168 44.7547C6.14808 45.084 6.5761 45.8412 6.34563 49.2654L6.18101 51.8335H7.30044C8.35402 51.8335 8.38694 51.8664 8.0577 52.7224C7.82723 53.2822 7.7943 54.5333 7.926 55.9161L8.12355 58.1879L7.30044 57.9574C6.01639 57.6282 6.04931 58.7147 7.36629 60.1304C8.25525 61.0523 8.45279 61.4474 8.15647 61.7767C7.99185 62.0071 7.49799 63.0278 7.10289 64.0155C6.7078 65.0033 5.58837 66.7153 4.63356 67.8347C3.64583 68.9212 2.75687 70.2711 2.62518 70.7979C2.49348 71.3247 2.03254 72.2795 1.53867 72.9051C0.550938 74.255 0.485088 75.144 0.94603 79.5888L1.3082 82.8483L2.69102 83.8031C4.30432 84.8896 4.37017 85.0542 4.66648 88.3796C4.79818 89.7295 5.09451 91.2769 5.3579 91.7708C5.78592 92.6268 5.78592 92.7585 5.25912 93.1207C4.76526 93.5158 4.76526 93.6475 5.16035 94.2072C5.42375 94.5694 6.08224 95.2608 6.64195 95.7217C7.43214 96.3802 7.62968 96.8082 7.53091 97.4009C7.39921 97.9935 7.66261 98.5861 8.38694 99.4751C8.94666 100.167 9.4076 100.891 9.4076 101.121C9.4076 101.352 9.57222 101.549 9.73684 101.549C10.4283 101.549 10.4612 100.463 9.83562 99.1129C9.47345 98.3886 9.07836 97.3021 8.94666 96.7094C8.81496 96.1497 8.22232 94.4047 7.59676 92.8573C6.77365 90.7501 6.54318 89.7295 6.67487 88.8734C6.77365 88.2479 6.90535 87.7211 6.9712 87.7211C7.00412 87.7211 7.43214 87.8528 7.86015 88.0174C8.51864 88.2808 8.68326 88.61 8.84789 90.0587C9.01251 91.244 9.4076 92.3305 10.2307 93.5487C10.9221 94.5694 11.3831 95.6888 11.3831 96.2814C11.3831 97.0387 11.8769 97.8618 13.3585 99.6068C14.9718 101.483 15.334 102.109 15.334 103.064C15.334 103.689 15.2023 104.48 15.0377 104.776C14.8731 105.072 14.8731 105.632 15.0047 106.027C15.334 106.85 18.2972 109.122 19.0544 109.122C19.3508 109.122 19.7129 109.319 19.8446 109.583C20.2397 110.241 24.7833 112.447 25.804 112.48C26.2978 112.48 27.2526 112.381 27.944 112.25C29.1293 112.019 29.261 112.052 30.7755 113.633C32.323 115.246 32.6852 115.411 36.669 116.464C37.6567 116.727 38.1177 117.057 38.2494 117.584C38.3481 117.979 38.7103 118.538 39.0725 118.868C39.4017 119.164 39.698 119.789 39.698 120.217C39.698 121.238 43.0563 124.399 44.2416 124.498C44.7026 124.531 45.394 124.893 45.822 125.288C46.7109 126.144 47.7645 125.913 47.5011 124.926C47.3036 124.168 48.3572 123.115 49.0815 123.411C49.3449 123.51 49.6741 123.872 49.7729 124.168C49.8717 124.498 50.168 125.156 50.4314 125.65C50.9911 126.704 51.057 131.247 50.4973 132.268C50.2997 132.663 49.8717 133.19 49.5095 133.42C49.1803 133.651 48.9169 134.144 48.9169 134.507C48.9169 134.869 48.5876 135.297 48.1925 135.494C47.139 135.955 45.822 139.379 46.25 140.499C46.4146 140.96 46.7439 141.421 46.9085 141.552C47.139 141.684 46.9743 142.145 46.4146 142.869C45.6244 143.89 45.6244 144.055 45.9866 145.405C46.2171 146.195 46.8097 147.248 47.3036 147.808C47.7974 148.335 48.5876 149.619 49.0815 150.607C49.5754 151.594 50.3985 153.01 50.8923 153.735C51.3862 154.459 52.4727 156.401 53.2958 158.081C54.8103 161.077 54.8433 161.11 58.3662 163.612C60.3087 165.028 61.9879 166.213 62.0208 166.279C62.0866 166.312 62.4159 167.958 62.7781 169.933C63.1731 172.37 63.3707 175.135 63.4036 178.691C63.4036 182.51 63.5353 184.387 63.9633 185.869C64.4243 187.581 64.4572 188.404 64.1609 192.026C63.8646 195.746 63.8975 196.339 64.3913 197.359C64.7206 197.985 65.0498 199.335 65.1486 200.323C65.4449 202.924 65.9717 204.603 66.5644 204.603C66.8936 204.603 66.9924 204.372 66.8278 203.78C66.6961 203.319 66.7619 202.956 66.9594 202.956C67.157 202.956 67.4533 203.714 67.6509 204.603C68.1118 206.71 68.1118 206.677 67.5521 206.479C66.8607 206.216 66.1693 207.105 66.6302 207.665C66.8607 207.928 66.9265 208.619 66.7948 209.311C66.6631 210.266 66.729 210.529 67.0911 210.529C67.9143 210.529 68.441 211.385 68.046 212.109C67.7826 212.636 68.046 213.229 69.5275 215.402C70.5482 216.884 72.2932 218.925 73.4126 220.011C75.3552 221.789 75.6515 221.987 78.7135 222.777L81.94 223.6L83.0595 222.975C83.6521 222.612 84.146 222.217 84.146 222.086C84.146 221.954 83.3229 221.592 82.3681 221.262C80.9852 220.867 80.228 220.341 79.1744 219.155C77.4623 217.213 77.166 216.456 77.7587 215.764C78.022 215.468 78.1537 215.007 78.022 214.711C77.9233 214.414 78.1537 213.624 78.5818 212.933C79.0756 212.142 79.2073 211.681 78.9439 211.583C78.7464 211.517 78.2196 211.188 77.7587 210.825C76.7709 210.035 76.5405 208.027 77.3965 207.698C77.7257 207.566 77.8904 207.039 77.8904 206.249C77.8904 205.558 78.1208 204.833 78.3842 204.603C79.0756 204.043 79.0098 203.615 78.2525 203.615C77.594 203.615 76.5734 202.463 76.5734 201.738C76.5734 201.475 77.0014 201.343 77.7257 201.376C79.1415 201.442 79.9646 200.783 79.7341 199.796C79.4049 198.578 79.8329 198.018 81.0182 198.018C83.1253 198.018 84.146 197.623 84.6399 196.668C85.3642 195.285 85.2654 193.507 84.4752 193.079C84.1131 192.882 83.718 192.355 83.6192 191.927C83.5204 191.466 83.1912 191.104 82.8949 191.104C82.4998 191.104 82.4668 191.005 82.7632 190.709C83.0595 190.412 83.2899 190.478 83.7838 190.906C84.146 191.235 85.0349 191.565 85.7922 191.663C86.8787 191.828 87.2738 191.729 87.9323 191.104C88.7554 190.314 90.4016 186.626 90.4016 185.507C90.4016 185.079 90.6321 184.848 91.0272 184.848C92.2125 184.848 93.2002 182.675 93.266 179.909C93.299 178.56 93.3319 177.341 93.3319 177.243C93.3977 176.782 98.0401 173.95 99.5875 173.423C102.221 172.6 103.308 170.921 104.065 166.608C104.394 164.764 104.691 162.163 104.724 160.78C104.79 158.377 104.855 158.179 106.271 156.171C107.094 155.019 108.312 152.911 108.938 151.496L110.123 148.928L109.564 147.413C109.136 146.261 108.773 145.8 107.983 145.536C107.424 145.339 106.074 144.384 104.954 143.396L102.946 141.585L100.213 141.52C98.6986 141.454 97.217 141.388 96.9207 141.388C96.5585 141.355 96.328 141.092 96.328 140.631C96.2951 140.071 95.8671 139.709 94.2867 138.984C92.4759 138.161 92.2125 138.128 91.7186 138.589C90.9613 139.281 90.7309 139.215 90.7309 138.326C90.7309 137.865 90.3687 137.404 89.7431 137.042C88.92 136.581 88.7883 136.318 88.9529 135.659C89.0846 135.099 88.9529 134.737 88.492 134.408C88.1298 134.177 87.7347 133.387 87.6031 132.663C87.2738 130.951 87.208 130.819 85.5288 129.403C84.2777 128.383 83.8497 128.218 82.401 128.218C80.2609 128.218 77.3965 126.802 76.9355 125.584C76.7709 125.09 76.1124 124.498 75.3552 124.103C74.6308 123.74 73.9065 123.181 73.7419 122.786C73.5773 122.423 73.0505 121.93 72.5566 121.699C71.5689 121.238 71.4042 120.81 72.0627 120.514C72.2603 120.415 71.7335 120.415 70.8116 120.514C69.9226 120.613 69.0666 120.843 68.9678 121.008C68.8691 121.205 68.2764 121.106 67.585 120.81C66.9265 120.547 65.8729 120.316 65.2145 120.316C63.8316 120.316 62.2513 119.592 61.9549 118.802C61.7903 118.341 61.5598 118.472 60.605 119.526C59.9795 120.217 59.4856 121.172 59.4527 121.6C59.4527 122.259 59.3868 122.325 58.9588 121.962C58.5966 121.666 58.5308 121.436 58.7942 121.172C58.9588 121.008 59.1234 120.448 59.1234 119.921C59.1234 119.427 59.3539 118.9 59.6173 118.769C59.8807 118.604 59.9795 118.308 59.8478 118.11C59.6502 117.814 59.1893 117.979 58.1357 118.67C57.3455 119.197 56.2261 119.724 55.6664 119.855C54.5799 120.086 53.8885 120.81 53.8555 121.699C53.8555 122.028 53.4275 122.753 52.9337 123.345L51.9789 124.366L50.7936 123.411C49.8388 122.687 49.312 122.489 48.3572 122.588C47.6657 122.621 46.8426 122.819 46.4805 123.016C45.1306 123.74 42.9905 121.436 42.9905 119.296C42.9905 118.67 43.221 117.156 43.5502 115.904L44.077 113.666L43.2868 113.04C42.6612 112.546 41.904 112.414 39.6322 112.414H36.7678L37.6238 110.34C38.0848 109.221 38.7432 107.476 39.1054 106.488C39.5005 105.5 39.9285 104.513 40.0602 104.315C40.2578 104.052 39.8956 103.887 38.842 103.722C36.7678 103.459 35.6154 104.085 35.0228 105.895C34.5618 107.278 34.496 107.311 32.1584 107.937C29.3927 108.661 28.6354 108.431 27.4172 106.521C25.9686 104.216 25.8698 103.031 26.9234 99.936C27.4172 98.3886 27.8453 96.6107 27.8453 95.9193C27.8453 94.7669 27.977 94.6352 30.9072 92.6927C33.4095 91.0464 34.1997 90.6843 35.3191 90.6843C36.0764 90.6843 36.8007 90.816 36.8995 91.0135C37.2616 91.5732 38.4798 91.3757 39.27 90.6184C40.2578 89.6965 44.2087 89.4332 44.5379 90.2563C44.6696 90.6184 45.0318 90.6843 45.7891 90.5526C46.6122 90.388 46.9743 90.5197 47.5999 91.1781C48.2584 91.9025 48.3572 92.1659 48.0608 92.9231C47.6657 93.9109 47.995 95.59 48.8181 96.8082C50.1351 98.8495 51.057 96.6436 50.7277 92.1988L50.5302 89.2027L52.1105 87.4906C52.9666 86.5358 54.7445 85.1201 55.9956 84.297C57.2797 83.4738 58.86 82.2556 59.5515 81.5642C60.605 80.5107 60.7697 80.1485 60.638 79.2266C60.5392 78.4693 60.605 78.173 60.9672 78.173C61.2306 78.173 61.6915 77.6791 61.9879 77.0536C62.2842 76.428 62.6793 76 62.9097 76.0659C63.1402 76.1646 63.7658 75.6708 64.3255 74.9793C65.0498 74.0245 65.8071 73.5636 67.1241 73.1356C68.0789 72.8393 69.1325 72.5759 69.3959 72.5759C70.0873 72.5759 70.7787 71.7198 70.3507 71.4235C69.8239 71.1272 71.3055 69.02 72.2932 68.6579C72.7541 68.4932 74.3674 67.9006 75.9149 67.3409C78.6476 66.3531 78.6805 66.3531 77.7587 67.1104C76.4746 68.164 76.7709 69.0529 78.2196 68.6249C78.8122 68.4603 79.4378 68.164 79.6683 67.9994C79.8658 67.8347 80.7218 67.5055 81.5779 67.308C82.4339 67.0775 83.3558 66.6165 83.685 66.2873C83.9814 65.9581 84.5082 65.6617 84.8703 65.6617C85.2983 65.6617 85.463 65.4313 85.463 64.8386C85.463 64.3448 85.2654 64.0155 85.002 64.0155C84.7386 64.0155 84.2448 64.3777 83.8826 64.8386C82.9936 65.9581 81.084 65.991 80.3597 64.9045C79.8987 64.1801 79.9317 64.0155 80.7218 62.5668C81.4462 61.2499 81.512 60.9206 81.1499 60.6902C80.3926 60.1963 79.6353 60.3609 77.2977 61.3816L75.0918 62.3693L76.2441 61.3816C76.8697 60.8219 77.594 60.3938 77.8574 60.3938C78.1208 60.3938 78.6147 60.1304 78.9769 59.8012C79.4707 59.3403 80.4585 59.2086 83.9484 59.0439C87.9652 58.8793 88.3932 58.7805 90.3358 57.8257C91.4552 57.2331 92.3771 56.8709 92.3771 57.0356C92.3771 57.1672 91.2577 58.3855 89.9078 59.7354C88.5579 61.0853 87.4384 62.3035 87.4384 62.4352C87.4384 62.5998 88.3932 62.6985 89.5456 62.6985C90.7309 62.6985 91.7844 62.8632 91.8832 63.0607C92.0149 63.2583 92.3112 63.3241 92.5746 63.2253C92.8051 63.1266 93.1673 63.2912 93.3319 63.5875C93.5953 64.0814 93.6941 64.0814 94.4842 63.5875C95.1757 63.1266 95.2744 62.8961 95.011 62.2376C94.8464 61.8096 94.8135 61.1511 94.9123 60.756C95.044 60.1634 94.9452 60.0646 94.155 60.0646C92.9697 60.0646 92.1466 58.6818 92.9039 58.0562C93.1673 57.8587 93.266 57.5623 93.1673 57.3977C93.0685 57.2331 93.299 56.6734 93.6611 56.1466C94.3196 55.2576 94.3196 55.1259 93.8258 53.6773C93.5294 52.8212 93.0026 51.9981 92.5746 51.8006C92.2125 51.603 91.4881 51.0433 90.9943 50.5824C90.3028 49.9568 90.1712 49.6275 90.4345 49.1666C90.7638 48.5081 90.1712 43.9316 89.7102 43.9316C89.5785 43.9316 89.0517 44.2938 88.5249 44.7218C88.0311 45.1498 86.9775 45.8083 86.2531 46.1705C84.9032 46.8619 84.8703 46.8619 84.2118 46.2363C83.4546 45.5449 83.5533 44.3596 84.4094 43.7012C84.8374 43.339 84.7715 43.2402 84.0472 42.9768C83.5533 42.7793 82.7302 42.1537 82.2034 41.5611C81.512 40.8038 81.1169 40.5733 80.8865 40.8367C80.656 41.0343 79.8 41.1001 78.6805 40.9684C76.8697 40.7709 76.8368 40.7709 76.0466 41.9232C75.6186 42.5817 75.2564 43.339 75.2564 43.6024C75.2564 43.8987 74.6638 44.7218 73.9394 45.4132C72.8529 46.4668 72.7212 46.7631 73.1163 46.9936C73.709 47.3228 73.7419 47.8826 73.248 48.9691C72.8529 49.8251 69.9226 51.7018 68.6715 51.8993C67.9801 51.9981 67.7826 52.2615 67.3875 54.0065C66.9924 55.7515 66.7948 56.0807 65.7083 56.7063L64.4572 57.3977L64.2597 56.6405C64.1609 56.2124 63.9633 55.6198 63.8646 55.3235C63.7329 54.9284 63.7987 54.8296 64.1609 54.9942C64.4243 55.093 64.7535 55.0272 64.8852 54.8296C64.984 54.6321 64.8523 54.4674 64.5889 54.4674C63.8975 54.4674 63.9304 53.8748 64.7206 52.5578L65.3791 51.5042H64.2926C63.7329 51.4713 62.6464 51.2079 61.922 50.8458C61.1977 50.4836 60.4075 50.2202 60.2099 50.1873C59.9795 50.1873 59.7819 50.0556 59.7819 49.858C59.7819 49.2983 58.1357 48.4423 57.1151 48.4752C56.2261 48.5081 56.1602 48.4093 56.1602 47.1911C56.1602 46.2034 56.0285 45.9071 55.6005 45.9071C54.3823 45.9071 57.4114 43.5036 60.8026 41.7915C62.7122 40.8367 64.4572 39.8161 64.6877 39.5198C64.9511 39.2234 65.412 38.993 65.7083 38.993C66.5644 38.993 69.33 37.7748 70.5482 36.82C71.1079 36.392 71.7006 36.0298 71.8323 36.0298C72.2603 36.0298 69.8897 38.3674 69.1654 38.6637C68.6386 38.8942 68.6057 38.9601 69.0666 38.9601C69.3629 38.993 69.6592 39.2234 69.7251 39.4868C69.8239 39.9149 70.0214 39.8819 71.1079 39.2893C72.1615 38.7296 72.5566 38.6637 73.1822 38.9601C74.2687 39.4539 75.2564 39.421 75.2564 38.8613C75.2564 38.6308 74.5979 37.8736 73.7748 37.2151C72.1286 35.8652 71.8323 35.1737 73.1163 35.7664C73.7419 36.0627 74.0382 36.0627 74.3345 35.7664C74.565 35.5359 75.0259 35.3713 75.421 35.3713C76.31 35.3713 78.2196 34.186 78.2196 33.6263C78.2196 33.3629 78.5159 32.902 78.8781 32.5727C79.339 32.1447 79.4378 31.8484 79.2073 31.6179C78.5159 30.9265 78.9439 30.7619 81.6108 30.7619C83.7838 30.7948 84.4423 30.8936 85.0679 31.4204C85.9898 32.2105 85.7593 32.7373 84.4752 32.7373C83.4875 32.7373 82.3681 33.5604 82.6644 34.0872C82.9936 34.5811 84.2448 34.4165 84.9362 33.758C85.9568 32.8032 86.9116 32.7373 87.0433 33.6263C87.1421 34.2189 86.8458 34.5153 85.6605 35.1079C84.6399 35.6018 84.146 36.0298 84.146 36.4578C84.146 37.0504 83.9814 37.0834 82.2034 36.9187C80.6231 36.7541 80.1292 36.82 79.5366 37.2809C78.911 37.8077 78.8781 37.9065 79.3061 38.2686C79.7012 38.5979 80.0634 38.565 81.1499 38.1369C82.4668 37.6102 82.5656 37.6102 83.1912 38.2028C83.5863 38.565 84.0801 39.2234 84.3106 39.6844C84.6728 40.3429 85.2983 40.6721 87.0763 41.1989C89.6444 41.9562 89.9736 41.7586 88.7225 40.1783C87.8664 39.0918 88.0969 39.0918 89.9407 40.1783C90.8955 40.738 91.3894 40.9026 91.3894 40.6063C91.3894 40.3758 91.6857 39.849 92.0478 39.4539L92.7393 38.7625L91.8832 37.7419C90.9284 36.5895 90.8626 36.2603 91.5869 35.6676C92.0478 35.3054 92.2454 35.3713 93.0026 36.2932C93.9245 37.4126 94.8135 37.676 95.1427 36.8529C95.2415 36.5895 95.6366 36.359 95.9988 36.359C96.3939 36.359 96.9865 36.0956 97.3487 35.7335C98.0072 35.1408 98.0072 35.1408 96.789 34.0872C96.0317 33.4287 95.3403 33.0666 94.9781 33.1654C94.0562 33.3958 93.4965 32.5398 94.155 31.9142C94.4513 31.6179 94.6818 31.1899 94.6818 30.9594C94.6818 30.3668 93.5953 29.4449 92.9039 29.4449C92.6076 29.4449 92.2783 29.2144 92.1795 28.951C92.0478 28.6876 91.6198 28.4572 91.2247 28.4572C90.7638 28.4572 90.1053 28.0291 89.5456 27.4036C88.7225 26.3829 88.492 26.3171 85.9898 26.1195C83.1253 25.8891 80.9523 26.3171 79.8329 27.3377C79.3061 27.8316 79.2073 27.8316 79.2073 27.4036C79.2073 27.1073 79.5366 26.6463 79.9646 26.3829C80.656 25.8561 80.6889 25.8561 79.9975 25.8561C78.7793 25.8232 76.4417 26.8109 75.1906 27.8974C74.2028 28.7864 74.0382 29.0827 74.3016 29.6754C74.4991 30.2351 74.8284 30.4326 75.6186 30.4326C76.4088 30.4326 76.6063 30.5314 76.4417 30.9594C76.3429 31.2557 76.2441 31.5191 76.2441 31.585C76.2441 31.8155 73.0175 33.9885 72.359 34.186C71.4701 34.4823 71.3384 33.5934 72.1615 33.1324C72.8858 32.7373 72.6224 31.6179 71.7335 31.4862C71.1738 31.3874 71.0091 31.124 70.9104 29.84C70.7128 27.9304 70.9762 27.5682 72.7212 27.3048C73.4785 27.1731 74.6967 26.7122 75.421 26.2841L76.738 25.494H74.3674C72.1615 25.494 71.964 25.5598 71.1738 26.4817Z" fill="black" fill-opacity="0.15"/>
<path d="M136.364 35.9968L135.442 36.6224L136.167 37.0175C136.562 37.215 137.089 37.3138 137.352 37.215C137.648 37.1163 137.813 37.248 137.813 37.6431C137.813 37.9723 138.175 38.4332 138.636 38.6637C139.097 38.8942 139.459 39.2564 139.459 39.421C139.459 39.7832 141.632 39.4539 144.036 38.7296C146.143 38.0711 146.9 37.0175 145.846 36.1944C145.517 35.931 144.859 35.7664 144.398 35.8651C141.336 36.3919 139.097 36.4249 138.307 35.8981C137.319 35.2725 137.517 35.2396 136.364 35.9968Z" fill="black" fill-opacity="0.15"/>
<path d="M156.909 46.0719C156.679 46.3682 156.284 46.5329 156.02 46.4341C155.757 46.3353 155.098 46.5658 154.539 46.9938C153.32 47.8828 152.794 49.101 153.32 49.7265C153.617 50.0887 153.584 50.1875 153.255 50.1875C152.958 50.2204 153.057 50.4509 153.551 50.813C153.946 51.1752 154.275 51.6032 154.275 51.8008C154.275 51.9983 154.637 52.1629 155.065 52.1629C155.658 52.1629 155.954 52.4263 156.185 53.1177C156.514 54.0067 156.448 54.0726 155.559 54.2701C154.67 54.4347 154.176 55.1261 154.934 55.1261C155.592 55.1261 155.23 55.7188 154.44 55.9163C153.386 56.1797 153.386 56.7724 154.407 56.7724C154.868 56.7724 155.329 56.9041 155.428 57.1016C155.526 57.2662 155.428 57.4308 155.164 57.4308C154.736 57.4308 153.287 58.7478 153.287 59.1429C153.287 59.4392 155.23 58.8466 155.757 58.4186C155.987 58.221 157.205 58.1223 158.457 58.1552C160.926 58.221 161.683 57.9576 161.387 57.2004C161.288 56.937 161.42 56.509 161.683 56.2126C162.375 55.5542 162.144 54.9944 161.156 54.7969C160.728 54.6981 160.333 54.4347 160.267 54.1713C160.136 53.5458 158.226 50.7801 157.601 50.2862C157.14 49.957 157.14 49.8582 157.666 49.2985C158.457 48.4096 158.358 47.8828 157.436 47.8828C156.481 47.8828 156.02 47.3889 156.712 47.1255C157.271 46.895 158.062 45.5781 157.634 45.5781C157.469 45.5781 157.14 45.8085 156.909 46.0719Z" fill="black" fill-opacity="0.15"/>
<path d="M150.258 52.0313C149.995 52.6239 149.699 52.8214 149.238 52.6897C148.382 52.4922 147.888 53.8092 148.612 54.4018C149.106 54.764 149.073 54.8628 148.415 55.3237C146.637 56.5748 148.184 57.3321 150.687 56.4431C152.563 55.8176 152.958 55.3895 152.958 54.0726C152.958 53.5787 153.123 53.0848 153.288 52.9861C154.012 52.5251 153.617 51.5703 152.596 51.3728C150.95 51.0435 150.654 51.1423 150.258 52.0313Z" fill="black" fill-opacity="0.15"/>
<path d="M321.07 98.5533C320.379 99.8702 320.412 100.858 321.202 102.01L321.827 102.998L322.157 102.109C322.782 100.529 322.848 99.7715 322.585 98.7837C322.222 97.4338 321.663 97.368 321.07 98.5533Z" fill="black" fill-opacity="0.15"/>
<path d="M44.5713 101.912C44.0445 102.274 43.6494 102.866 43.6494 103.229C43.6494 104.085 44.1433 104.019 44.8676 103.097C45.8553 101.846 46.1846 101.813 48.3576 102.57C50.8599 103.426 51.4196 103.92 51.7159 105.369L51.9134 106.488L54.1194 106.29C55.3376 106.159 56.6216 105.928 56.9838 105.731C57.5764 105.434 57.5106 105.336 56.3253 104.842C55.601 104.513 54.6462 103.887 54.1852 103.393C53.2633 102.372 50.9586 101.648 47.765 101.385C45.7566 101.22 45.3615 101.286 44.5713 101.912Z" fill="black" fill-opacity="0.15"/>
<path d="M59.058 106.916C58.9592 107.838 58.8275 108.002 57.8398 108.134C56.0618 108.398 56.1606 109.122 57.9385 109.122C58.7617 109.122 59.4531 109.254 59.4531 109.451C59.4531 109.978 60.5066 109.813 60.9347 109.221C61.1981 108.891 61.9882 108.628 63.2064 108.529C64.2271 108.463 65.0502 108.266 65.0502 108.101C65.0502 107.97 64.5234 107.443 63.8979 106.949C63.0747 106.323 62.4821 106.126 61.8895 106.257C61.3956 106.356 60.6054 106.29 60.0786 106.159C59.2226 105.895 59.1567 105.961 59.058 106.916Z" fill="black" fill-opacity="0.15"/>
<path d="M307.439 106.06C307.044 106.126 306.55 106.488 306.385 106.817C305.562 108.398 307.571 109.155 308.558 107.64C309.052 106.85 309.019 105.764 308.46 105.862C308.328 105.895 307.867 105.994 307.439 106.06Z" fill="black" fill-opacity="0.15"/>
<path d="M323.407 107.838C323.078 108.035 322.848 108.562 322.848 109.221C322.848 109.813 322.617 110.702 322.354 111.196C321.761 112.348 322.057 113.962 322.913 114.423C323.374 114.653 323.506 114.982 323.374 115.476C323.276 115.904 323.473 116.497 323.835 116.925C324.626 117.913 324.823 117.88 324.823 116.694C324.823 115.74 324.856 115.74 325.712 116.135C326.206 116.332 327.161 117.122 327.819 117.847C328.873 118.966 328.972 119.197 328.544 119.46C328.214 119.658 327.72 119.559 327.128 119.197C326.601 118.9 326.107 118.67 326.008 118.67C325.547 118.67 325.844 120.349 326.403 120.909C326.733 121.238 327.095 121.765 327.227 122.061C327.457 122.654 328.017 122.753 328.906 122.423C329.597 122.16 329.564 121.666 328.873 120.909C328.379 120.349 328.379 120.25 328.774 119.987C329.531 119.493 329.828 119.756 330.289 121.337C330.717 122.687 330.684 122.818 330.025 123.312C329.663 123.609 329.07 123.773 328.741 123.707C328.017 123.51 326.963 124.563 326.667 125.782C326.469 126.671 326.502 126.703 326.963 126.111C327.227 125.749 327.786 125.452 328.247 125.387C328.906 125.321 329.07 125.485 329.235 126.407C329.367 127.132 329.828 127.79 330.42 128.218L331.408 128.909V127.724C331.408 126.769 331.54 126.572 332.001 126.638C332.363 126.703 332.527 126.572 332.429 126.243C332.396 125.979 332.297 124.991 332.264 124.037C332.231 122.785 332.034 122.127 331.474 121.534C331.079 121.106 330.749 120.349 330.749 119.855C330.749 118.538 330.223 117.748 329.103 117.518C328.247 117.32 328.148 117.188 328.313 116.365C328.511 115.476 328.412 115.41 327.095 115.048C326.305 114.818 325.449 114.587 325.251 114.521C324.724 114.39 324.691 112.283 325.152 111.394C325.416 110.966 325.383 110.373 325.119 109.451C324.626 107.838 324.198 107.41 323.407 107.838Z" fill="black" fill-opacity="0.15"/>
<path d="M318.798 127.23C318.469 127.922 317.712 128.811 317.086 129.206C316.494 129.568 315.572 130.358 315.045 130.951C314.518 131.544 313.728 132.169 313.234 132.4C312.74 132.63 312.115 133.256 311.818 133.848C311.324 134.77 311.16 134.869 310.106 134.704C309.217 134.54 308.987 134.606 309.151 134.968C309.25 135.231 309.184 135.527 309.02 135.626C308.493 135.955 308.658 137.536 309.349 138.688C309.711 139.281 310.008 140.236 310.008 140.795C310.008 142.31 310.765 143.001 312.246 142.804C313.004 142.705 313.991 142.837 314.749 143.166C317.317 144.219 319.161 143.594 318.798 141.783C318.634 140.927 318.765 140.565 319.556 139.742C320.28 139.017 320.543 138.425 320.543 137.602C320.543 136.647 320.675 136.416 321.366 136.252C322.354 136.021 322.387 135.791 321.531 134.704C320.642 133.585 320.708 132.235 321.696 130.786C322.157 130.128 322.519 129.371 322.519 129.14C322.519 128.745 319.918 125.913 319.556 125.913C319.457 125.913 319.128 126.506 318.798 127.23Z" fill="black" fill-opacity="0.15"/>
<path d="M289.463 128.778C289.035 129.206 289.298 129.733 290.22 130.259C290.78 130.556 291.57 131.379 292.031 132.103C292.492 132.827 293.15 133.519 293.513 133.651C293.875 133.749 294.402 134.243 294.665 134.737C295.949 137.206 296.937 139.445 297.496 141.157C298.155 143.232 299.999 145.273 302.106 146.195C303.192 146.689 303.258 146.689 303.851 145.964C304.213 145.536 304.378 144.944 304.279 144.516C304.18 144.12 304.378 143.264 304.74 142.606L305.398 141.388H304.575C304.114 141.388 303.752 141.223 303.752 141.058C303.752 140.861 303.127 140.137 302.402 139.412C301.349 138.392 301.118 137.997 301.382 137.667C301.678 137.338 301.447 136.976 300.361 136.087C299.604 135.461 298.418 134.605 297.76 134.177C297.068 133.782 296.245 132.992 295.949 132.432C295.521 131.741 294.467 131.017 292.525 129.996C290.944 129.239 289.595 128.679 289.463 128.778Z" fill="black" fill-opacity="0.15"/>
<path d="M329.927 135.165C329.137 135.626 328.61 135.692 327.293 135.462C324.659 135.001 324.297 135.067 323.902 135.955C323.671 136.416 323.506 137.174 323.506 137.602C323.506 138.03 323.21 139.05 322.848 139.873C322.354 141.092 322.288 141.586 322.552 142.31C322.749 142.804 322.914 143.89 322.881 144.746C322.848 146.096 322.947 146.327 323.506 146.327C324.461 146.327 324.889 145.24 324.626 143.363C324.494 142.277 324.527 141.717 324.758 141.717C325.153 141.717 325.614 142.343 325.647 142.87C325.745 143.824 326.272 145.207 326.7 145.569C328.017 146.623 328.577 144.68 327.556 142.639C327.26 142.046 326.898 141.289 326.733 140.96C326.503 140.499 326.634 140.203 327.26 139.709C327.754 139.347 328.116 138.886 328.116 138.721C328.116 138.293 326.568 138.359 325.778 138.82C325.219 139.182 325.054 139.149 324.626 138.589C323.506 137.075 324.758 135.659 326.535 136.449C328.84 137.437 331.277 136.779 331.013 135.231C330.914 134.606 330.882 134.606 329.927 135.165Z" fill="black" fill-opacity="0.15"/>
<path d="M339.08 138.326C338.652 138.392 338.322 138.589 338.322 138.721C338.322 139.083 339.442 140.071 339.87 140.071C340.331 140.071 341.45 141.355 341.187 141.586C340.792 141.981 341.944 143.693 342.537 143.594C343.294 143.495 347.574 144.977 348.265 145.569C349.089 146.294 349.418 148.631 348.726 149.026C347.936 149.487 348.101 149.948 349.023 149.948C349.484 149.948 350.603 150.311 351.492 150.771C353.764 151.924 354.521 151.825 356.134 150.278C356.892 149.553 357.616 148.961 357.781 148.961C357.912 148.961 358.735 149.784 359.591 150.771C360.744 152.121 361.567 152.714 362.752 153.109C363.608 153.373 364.497 153.57 364.728 153.504C364.925 153.438 364.201 152.451 363.114 151.298C360.908 149.059 360.349 147.973 361.402 147.973C361.732 147.973 362.028 147.775 362.028 147.512C362.028 146.886 360.48 145.668 359.69 145.668C359.295 145.668 359.065 145.438 359.065 145.043C359.065 144.252 357.616 143.133 354.784 141.717C352.644 140.631 349.385 139.445 348.562 139.413C348.331 139.413 347.508 140.104 346.718 140.96L345.302 142.475L344.117 141.19C343.162 140.17 342.965 139.742 343.129 138.985C343.327 138.096 343.294 138.096 341.549 138.129C340.594 138.161 339.475 138.26 339.08 138.326Z" fill="black" fill-opacity="0.15"/>
<path d="M304.904 146.557C303.323 146.952 302.928 147.973 304.377 147.973C304.937 147.973 305.76 148.335 306.32 148.796C306.978 149.323 307.999 149.751 309.25 149.948C313.76 150.706 315.473 151.035 315.999 151.298C316.362 151.496 317.086 151.43 317.942 151.134C318.864 150.804 319.522 150.739 319.917 150.936C320.247 151.134 321.596 151.232 322.946 151.2C324.296 151.2 325.547 151.265 325.778 151.397C325.975 151.529 326.634 151.496 327.227 151.331C327.786 151.134 328.807 150.903 329.433 150.804L330.585 150.607L329.795 151.298C329.367 151.66 328.807 152.056 328.609 152.187C328.379 152.319 328.083 152.78 327.951 153.208C327.753 153.899 327.951 153.801 329.498 152.484C330.486 151.66 331.704 150.804 332.231 150.607C333.12 150.278 333.153 150.179 332.626 149.915C332.231 149.685 331.474 149.718 330.256 149.981C328.906 150.278 328.247 150.278 327.622 150.014C326.996 149.718 326.568 149.751 325.745 150.08C324.889 150.442 324.263 150.475 322.848 150.212C321.86 150.014 320.148 149.817 319.061 149.784C315.44 149.685 313.267 148.994 314.781 148.434C315.637 148.105 314.946 147.644 313.596 147.644C312.872 147.644 311.917 147.413 311.456 147.084C310.666 146.59 310.633 146.59 310.435 147.249C310.172 148.302 308.262 148.236 306.978 147.15C306.451 146.689 305.892 146.36 305.793 146.36C305.661 146.393 305.266 146.491 304.904 146.557Z" fill="black" fill-opacity="0.15"/>
<path d="M339.738 155.216C339.935 156.072 339.837 156.204 339.046 156.369C338.553 156.5 337.927 156.698 337.664 156.83C337.038 157.159 335.688 159.529 335.886 159.891C335.985 160.023 336.017 160.155 335.952 160.155C335.886 160.155 335.359 160.287 334.766 160.451C333.779 160.748 333.647 160.682 333.318 159.957C332.593 158.41 330.585 158.607 330.354 160.254C330.289 160.649 330.025 160.978 329.729 160.978C329.433 160.978 328.609 161.604 327.852 162.394C326.733 163.546 326.436 163.711 326.272 163.316C326.107 162.855 325.975 162.888 325.449 163.48C325.087 163.875 324.823 164.501 324.823 164.863C324.823 166.114 322.518 167.892 319.72 168.814C318.271 169.308 316.888 169.703 316.658 169.703C316.427 169.703 315.538 170.197 314.682 170.757C313.826 171.349 312.905 171.843 312.641 171.843C312.312 171.843 312.114 172.271 312.048 173.16C311.983 173.884 311.719 174.707 311.456 175.004C311.094 175.399 311.061 175.761 311.291 176.387C311.555 177.078 311.489 177.308 310.929 177.671C310.336 178.066 310.303 178.23 310.633 178.889C310.896 179.35 311.061 181.161 311.094 183.498C311.16 186.626 311.061 187.581 310.534 188.733C310.205 189.491 309.711 190.116 309.447 190.116C308.624 190.116 308.987 191.4 310.007 191.927C311.357 192.618 311.983 192.552 314.057 191.433C315.604 190.61 316.296 190.445 318.205 190.445C319.819 190.445 320.576 190.314 320.773 189.984C321.531 188.7 327.161 186.988 330.486 187.054C333.351 187.087 336.149 189.227 335.491 190.906C335.128 191.828 336.314 191.96 337.104 191.038C337.993 190.017 339.639 188.997 339.639 189.458C339.639 189.622 339.211 190.182 338.651 190.676C337.466 191.729 337.334 192.388 338.487 191.631C339.507 190.939 339.606 190.972 339.409 191.762C339.31 192.124 338.651 192.651 337.96 192.981C336.61 193.606 336.413 193.902 337.137 194.166C337.4 194.265 337.927 194.001 338.355 193.54C339.409 192.421 339.738 192.552 339.54 194.034C339.31 195.812 340.199 197.195 341.845 197.656C343.557 198.15 344.413 198.117 344.907 197.524C345.434 196.899 345.895 196.899 345.895 197.491C345.895 197.722 346.092 198.117 346.323 198.314C346.685 198.578 347.113 198.413 348.232 197.557C349.088 196.899 350.208 196.372 350.965 196.273C351.657 196.174 352.315 195.977 352.447 195.812C353.5 194.199 358.208 188.832 358.834 188.503C360.184 187.778 362.357 183.696 363.345 180.074L364.234 176.749L363.312 175.465C362.818 174.74 362.291 173.753 362.192 173.259C362.061 172.732 361.666 172.139 361.303 171.876C360.908 171.58 360.612 170.954 360.546 170.296C360.48 169.604 360.019 168.715 359.229 167.793C357.945 166.312 357.089 164.106 357.089 162.262C357.089 160.55 356.529 159.431 355.805 159.661C355.278 159.826 355.147 159.628 354.949 158.443C354.06 152.846 353.336 152.879 352.348 158.673C351.788 161.9 350.405 164.764 349.451 164.764C348.562 164.764 347.409 163.941 345.434 161.867L343.689 160.056L344.644 158.64C345.17 157.85 345.73 157.126 345.928 157.027C346.29 156.764 346.29 156.5 345.928 155.908C345.697 155.545 345.434 155.545 344.512 155.875C343.524 156.237 343.228 156.204 342.043 155.578C341.285 155.216 340.594 154.755 340.462 154.558C340.001 153.833 339.573 154.261 339.738 155.216Z" fill="black" fill-opacity="0.15"/>
<path d="M224.997 157.554C224.371 158.344 223.548 159.464 223.153 160.023C222.725 160.649 221.737 161.373 220.651 161.834C218.412 162.789 217.589 164.205 218.148 166.081C218.675 167.859 218.543 169.045 217.687 170.493C216.996 171.678 216.601 173.819 216.798 175.564C216.864 176.354 218.543 177.605 219.498 177.605C221.243 177.605 222.264 176.189 223.449 172.172C224.009 170.164 224.601 167.958 224.766 167.234C224.898 166.509 225.26 165.324 225.556 164.633C225.853 163.941 226.017 163.052 225.918 162.69C225.82 162.262 225.951 161.999 226.412 161.9C226.939 161.735 227.038 161.439 227.038 159.694C227.005 158.607 226.807 157.323 226.577 156.895L226.149 156.138L224.997 157.554Z" fill="black" fill-opacity="0.15"/>
<path d="M342.306 202.462C341.45 205.195 341.45 205.195 342.372 205.327C343.623 205.557 345.434 204.306 346.389 202.594L347.245 200.981L345.731 201.178C344.578 201.343 344.084 201.277 343.623 200.816C342.998 200.289 342.965 200.322 342.306 202.462Z" fill="black" fill-opacity="0.15"/>
</g>
<defs>
<filter id="filter0_b_932_615" x="-22.9091" y="-22.9091" width="405.818" height="275.818" filterUnits="userSpaceOnUse" color-interpolation-filters="sRGB">
<feFlood flood-opacity="0" result="BackgroundImageFix"/>
<feGaussianBlur in="BackgroundImageFix" stdDeviation="11.4545"/>
<feComposite in2="SourceAlpha" operator="in" result="effect1_backgroundBlur_932_615"/>
<feBlend mode="normal" in="SourceGraphic" in2="effect1_backgroundBlur_932_615" result="shape"/>
</filter>
<linearGradient id="paint0_linear_932_615" x1="0" y1="0" x2="128.405" y2="322.275" gradientUnits="userSpaceOnUse">
<stop stop-color="white" stop-opacity="0.4"/>
<stop offset="1" stop-color="white" stop-opacity="0"/>
</linearGradient>
<linearGradient id="paint1_linear_932_615" x1="-2.50332e-06" y1="53.7746" x2="342.098" y2="227.341" gradientUnits="userSpaceOnUse">
<stop/>
<stop offset="0.706073" stop-color="#404040" stop-opacity="0.293927"/>
<stop offset="1" stop-color="#050505" stop-opacity="0"/>
</linearGradient>
</defs>
</svg>
