<svg width="58" height="21" viewBox="0 0 58 21" fill="none" xmlns="http://www.w3.org/2000/svg">
<path d="M38.9346 1.07423C38.7544 1.07431 38.576 1.10968 38.4095 1.17831C38.2431 1.24694 38.0919 1.34749 37.9646 1.47421C37.713 1.7242 37.562 2.07731 37.562 2.43979V18.9221C37.562 19.2846 37.7067 19.6314 37.9646 19.8877C38.0919 20.0144 38.2432 20.1149 38.4097 20.1835C38.5762 20.2521 38.7547 20.2874 38.9349 20.2874C39.1151 20.2874 39.2936 20.2521 39.4601 20.1835C39.6266 20.1149 39.7779 20.0144 39.9052 19.8877C40.1568 19.6377 40.3078 19.2846 40.3078 18.9221V2.43917C40.3078 2.07668 40.1631 1.72983 39.9052 1.47359C39.7778 1.34679 39.6265 1.2462 39.46 1.17757C39.2934 1.10893 39.1149 1.07361 38.9346 1.07361V1.07423ZM18.0235 6.88395C18.0235 6.13023 17.4089 5.51901 16.6521 5.51901C15.8954 5.51901 15.2808 6.13023 15.2808 6.88395V18.9209C15.2808 19.6746 15.8954 20.2858 16.6521 20.2858C17.4089 20.2858 18.0235 19.6746 18.0235 18.9209V6.88395Z" fill="#9E9E9E"/>
<path d="M18.411 2.44159C18.4021 2.8995 18.2128 3.33569 17.8839 3.65653C17.555 3.977 17.1128 4.15653 16.6522 4.15653C16.1915 4.15653 15.7493 3.977 15.4205 3.65653C15.0915 3.33569 14.9022 2.8995 14.8933 2.44159C14.8931 1.97756 15.0784 1.53245 15.4085 1.20415C15.5716 1.04162 15.7654 0.912672 15.9787 0.824685C16.1921 0.736698 16.4208 0.691406 16.6518 0.691406C16.8828 0.691406 17.1116 0.736698 17.3249 0.824685C17.5383 0.912672 17.7321 1.04162 17.8952 1.20415C18.2253 1.53245 18.4106 1.97756 18.4104 2.44159H18.411Z" fill="#EEEEEE"/>
<path d="M35.0828 9.87503C33.7642 6.90893 30.6448 4.81278 27.0855 5.17526C25.8856 5.30128 24.7313 5.70173 23.7132 6.34521C22.6947 6.98912 21.8399 7.85841 21.2158 8.88508C20.5914 9.91232 20.2145 11.069 20.1143 12.2649C20.0137 13.4611 20.1936 14.6648 20.6383 15.7797C21.083 16.895 21.7812 17.893 22.6784 18.6958C23.5753 19.498 24.6468 20.0833 25.8092 20.4058C26.9714 20.7281 28.193 20.7785 29.378 20.553C30.5631 20.3274 31.6795 19.8321 32.6395 19.1058C32.801 18.9828 32.9327 18.8254 33.0251 18.6452C33.1176 18.4652 33.1685 18.2665 33.1736 18.064C33.1839 17.7049 33.0504 17.3564 32.8024 17.095C32.5544 16.8336 32.2121 16.6806 31.8507 16.6697C31.5401 16.6598 31.2355 16.756 30.9876 16.9422C30.0374 17.6712 28.8563 18.0387 27.6574 17.9784C26.6836 17.929 25.7446 17.6025 24.9524 17.0378C24.1567 16.4739 23.5394 15.6962 23.1728 14.796C23.1228 14.6747 23.1198 14.5392 23.1642 14.4158C23.2087 14.2923 23.2976 14.1896 23.4137 14.1273C23.4907 14.0862 23.5767 14.0648 23.6641 14.0648H33.1912C33.6502 14.0667 34.0994 13.9329 34.4816 13.6804C34.8638 13.4278 35.1618 13.068 35.3375 12.6468C35.4546 12.3671 35.5151 12.0672 35.5155 11.7643C35.4963 11.1141 35.3524 10.4735 35.0916 9.87691L35.0828 9.87503ZM27.8958 7.84263C28.9157 7.84288 29.9122 8.14724 30.7561 8.71634C31.6006 9.2861 32.2536 10.0944 32.6307 11.0368C32.6625 11.1172 32.6744 11.2041 32.6653 11.29C32.6558 11.3758 32.6254 11.4581 32.5768 11.5296C32.5281 11.6012 32.4626 11.6598 32.386 11.7006C32.3094 11.7414 32.2238 11.7628 32.1369 11.7631H23.654C23.5671 11.7632 23.4814 11.7417 23.4049 11.7006C23.3282 11.6593 23.2628 11.6006 23.2137 11.5299C23.1646 11.4593 23.1344 11.3762 23.1256 11.29C23.1165 11.2041 23.1284 11.1172 23.1602 11.0368C23.5373 10.0944 24.1904 9.2861 25.0348 8.71634C25.8801 8.15009 26.8756 7.846 27.8951 7.84263H27.8958ZM50.1789 17.9834C49.201 17.9836 48.2438 17.7039 47.4217 17.1778C46.5988 16.6495 45.9443 15.8995 45.5345 15.0154C45.1291 14.1301 44.9883 13.1478 45.1288 12.1853C45.2693 11.2228 45.6853 10.3206 46.3272 9.5863L44.2513 7.82576C43.5792 8.60124 43.0682 9.50119 42.7478 10.4738C42.4266 11.4463 42.3016 12.4723 42.3798 13.493C42.4578 14.5136 42.7384 15.5091 43.1976 16.4222C43.6632 17.3349 44.3056 18.1472 45.0879 18.8127C45.8698 19.478 46.7762 19.9835 47.7551 20.3001C48.7337 20.6167 49.7657 20.7378 50.7916 20.6564C51.8177 20.575 52.8174 20.2925 53.7331 19.8252C54.6492 19.3583 55.4634 18.7162 56.1291 17.9359L54.0532 16.176C53.5755 16.7423 52.9786 17.1976 52.3045 17.5097C51.6308 17.8219 50.8964 17.9834 50.1531 17.9828L50.1789 17.9834Z" fill="#9E9E9E"/>
<path d="M50.1783 5.12891C49.0559 5.12754 47.9464 5.36739 46.9261 5.832C45.9049 6.29673 44.9968 6.97508 44.2639 7.82065L46.3335 9.58119C47.215 8.57189 48.4626 7.94992 49.8039 7.85098C51.1453 7.75205 52.4716 8.18418 53.4934 9.05309C54.5156 9.92349 55.1508 11.1594 55.2611 12.4923C55.3707 13.8254 54.9462 15.1477 54.0797 16.1715L56.1493 17.9314C57.1123 16.7985 57.7299 15.4161 57.9296 13.9466C58.1288 12.4767 57.9014 10.9808 57.2741 9.63494C56.647 8.28968 55.6458 7.15059 54.3886 6.35198C53.1301 5.55632 51.67 5.13218 50.1783 5.12891V5.12891Z" fill="#EEEEEE"/>
<path d="M12.7523 17.0033C12.5158 16.7997 12.2164 16.6825 11.9036 16.6713C11.5909 16.66 11.2837 16.7554 11.0331 16.9415C10.2787 17.515 9.37782 17.8675 8.43234 17.9589C7.48687 18.0504 6.5345 17.8772 5.68293 17.4589C4.83126 17.04 4.11394 16.3936 3.61144 15.5922C3.10902 14.7899 2.842 13.8643 2.84045 12.9195C2.83889 11.9746 3.10286 11.0481 3.60264 10.2443C4.10201 9.44105 4.81728 8.79233 5.66783 8.37127C6.51796 7.94979 7.46992 7.77329 8.41584 7.86176C9.36177 7.95024 10.2638 8.30016 11.0199 8.87187C11.2676 9.0616 11.5735 9.16104 11.8862 9.15353C12.1989 9.14602 12.4996 9.03202 12.7378 8.83062C12.8919 8.69938 13.0146 8.53689 13.0964 8.35377C13.1781 8.17065 13.2197 7.97066 13.2159 7.76942C13.2121 7.56818 13.1618 7.37069 13.0712 7.19133C12.9806 7.01196 12.8498 6.85384 12.6906 6.73135C11.5317 5.84998 10.1475 5.30873 8.69486 5.16893C7.24165 5.02864 5.77798 5.29605 4.47008 5.94078C3.16217 6.58551 2.06247 7.58172 1.29588 8.81625C0.528136 10.0509 0.1227 11.474 0.125256 12.9253C0.127812 14.3765 0.538259 15.7982 1.31035 17.0302C2.08223 18.2609 3.18551 19.2523 4.49527 19.8922C5.80504 20.532 7.26896 20.7948 8.72128 20.6507C10.1733 20.506 11.5556 19.9602 12.7114 19.0751C12.8685 18.9527 12.9962 18.7971 13.0853 18.6197C13.1744 18.4422 13.2227 18.2472 13.2266 18.0489C13.2306 17.8507 13.1902 17.654 13.1082 17.4731C13.0263 17.2923 12.9049 17.1318 12.7529 17.0033H12.7523Z" fill="#9E9E9E"/>
</svg>