<svg width="73" height="25" viewBox="0 0 73 25" fill="none" xmlns="http://www.w3.org/2000/svg">
<path d="M49.1683 0.478503C48.9431 0.478604 48.72 0.522813 48.512 0.608602C48.3039 0.694391 48.1149 0.820078 47.9558 0.978478C47.6413 1.29096 47.4526 1.73235 47.4526 2.18545V22.7883C47.4526 23.2414 47.6334 23.675 47.9558 23.9953C48.115 24.1537 48.3041 24.2793 48.5122 24.365C48.7203 24.4508 48.9434 24.4949 49.1687 24.4949C49.394 24.4949 49.6171 24.4508 49.8252 24.365C50.0333 24.2793 50.2224 24.1537 50.3816 23.9953C50.6961 23.6828 50.8848 23.2414 50.8848 22.7883V2.18467C50.8848 1.73156 50.704 1.29799 50.3816 0.977697C50.2224 0.819204 50.0333 0.693464 49.8251 0.607671C49.6169 0.521879 49.3937 0.477721 49.1683 0.477722V0.478503ZM23.0294 7.74064C23.0294 6.7985 22.2612 6.03447 21.3153 6.03447C20.3693 6.03447 19.6011 6.7985 19.6011 7.74064V22.7867C19.6011 23.7289 20.3693 24.4929 21.3153 24.4929C22.2612 24.4929 23.0294 23.7289 23.0294 22.7867V7.74064Z" fill="#5A646E"/>
<path d="M23.5143 2.18773C23.5031 2.76012 23.2666 3.30535 22.8554 3.7064C22.4443 4.10699 21.8915 4.3314 21.3157 4.3314C20.74 4.3314 20.1872 4.10699 19.7761 3.7064C19.3649 3.30535 19.1283 2.76012 19.1172 2.18773C19.1169 1.60769 19.3486 1.05131 19.7612 0.640932C19.9651 0.437772 20.2073 0.276581 20.474 0.166598C20.7407 0.0566141 21.0266 0 21.3153 0C21.6041 0 21.89 0.0566141 22.1567 0.166598C22.4234 0.276581 22.6656 0.437772 22.8695 0.640932C23.2821 1.05131 23.5138 1.60769 23.5135 2.18773H23.5143Z" fill="#00AEEF"/>
<path d="M44.3534 11.4794C42.7052 7.77178 38.8059 5.1516 34.3569 5.6047C32.8569 5.76222 31.414 6.26278 30.1414 7.06712C28.8683 7.87201 27.7998 8.95863 27.0197 10.242C26.2392 11.526 25.768 12.9719 25.6429 14.4668C25.517 15.962 25.7419 17.4666 26.2979 18.8603C26.8537 20.2544 27.7264 21.5019 28.8479 22.5054C29.9691 23.5081 31.3085 24.2397 32.7614 24.6428C34.2142 25.0458 35.7411 25.1087 37.2225 24.8268C38.7038 24.5449 40.0993 23.9257 41.2993 23.0179C41.5011 22.8641 41.6658 22.6673 41.7813 22.4421C41.8969 22.2171 41.9606 21.9687 41.9669 21.7156C41.9798 21.2667 41.8129 20.8311 41.5029 20.5044C41.1929 20.1776 40.765 19.9864 40.3132 19.9727C39.925 19.9604 39.5442 20.0806 39.2344 20.3133C38.0467 21.2245 36.5703 21.6839 35.0716 21.6086C33.8544 21.5469 32.6807 21.1387 31.6904 20.4329C30.6958 19.7279 29.9242 18.7559 29.4659 17.6307C29.4035 17.479 29.3996 17.3097 29.4552 17.1553C29.5108 17.001 29.6219 16.8726 29.7671 16.7948C29.8633 16.7434 29.9708 16.7166 30.0801 16.7166H41.9889C42.5626 16.719 43.1241 16.5517 43.6019 16.2361C44.0797 15.9204 44.4521 15.4707 44.6718 14.9441C44.8182 14.5945 44.8938 14.2196 44.8943 13.841C44.8703 13.0283 44.6904 12.2275 44.3644 11.4817L44.3534 11.4794ZM35.3696 8.93891C36.6446 8.93921 37.8901 9.31967 38.945 10.031C40.0006 10.7432 40.8169 11.7537 41.2883 12.9317C41.3281 13.0321 41.3429 13.1407 41.3315 13.2481C41.3197 13.3554 41.2817 13.4582 41.2209 13.5476C41.1601 13.637 41.0782 13.7104 40.9824 13.7613C40.8866 13.8123 40.7797 13.8392 40.671 13.8394H30.0675C29.9588 13.8396 29.8517 13.8127 29.7561 13.7613C29.6602 13.7098 29.5784 13.6363 29.5171 13.548C29.4557 13.4598 29.418 13.3559 29.407 13.2481C29.3956 13.1407 29.4104 13.0321 29.4502 12.9317C29.9216 11.7537 30.7379 10.7432 31.7935 10.031C32.8501 9.32322 34.0945 8.94311 35.3689 8.93891H35.3696ZM63.2235 21.6148C62.0011 21.6151 60.8046 21.2655 59.777 20.6078C58.7484 19.9475 57.9302 19.01 57.4181 17.9049C56.9113 16.7983 56.7352 15.5703 56.9109 14.3672C57.0865 13.1641 57.6065 12.0364 58.4088 11.1185L55.814 8.91781C54.9739 9.88716 54.3352 11.0121 53.9347 12.2278C53.5332 13.4435 53.3768 14.726 53.4747 16.0018C53.5722 17.2775 53.9229 18.522 54.4969 19.6634C55.0789 20.8042 55.8819 21.8196 56.8598 22.6515C57.8372 23.4831 58.9702 24.115 60.1938 24.5108C61.417 24.9065 62.707 25.0579 63.9894 24.9561C65.272 24.8544 66.5217 24.5012 67.6662 23.9171C68.8113 23.3334 69.8292 22.5309 70.6613 21.5555L68.0664 19.3556C67.4693 20.0635 66.7231 20.6325 65.8805 21.0227C65.0384 21.413 64.1204 21.6149 63.1912 21.614L63.2235 21.6148Z" fill="#5A646E"/>
<path d="M63.2236 5.547C61.8205 5.54529 60.4337 5.8451 59.1583 6.42587C57.8818 7.00678 56.7467 7.85471 55.8306 8.91168L58.4176 11.1123C59.5195 9.85072 61.0789 9.07326 62.7556 8.94959C64.4323 8.82592 66.0901 9.36608 67.3675 10.4522C68.6451 11.5402 69.4391 13.0851 69.577 14.7512C69.7141 16.4177 69.1834 18.0705 68.1003 19.3502L70.6873 21.5501C71.8911 20.134 72.6631 18.406 72.9126 16.5691C73.1617 14.7317 72.8774 12.8619 72.0933 11.1795C71.3094 9.49795 70.0579 8.0741 68.4864 7.07583C66.9133 6.08127 65.0882 5.55109 63.2236 5.547Z" fill="#00AEEF"/>
<path d="M16.4405 20.3899C16.1449 20.1353 15.7706 19.9889 15.3797 19.9748C14.9888 19.9607 14.6048 20.0799 14.2915 20.3126C13.3485 21.0295 12.2224 21.4701 11.0406 21.5844C9.85876 21.6987 8.6683 21.4822 7.60383 20.9594C6.53925 20.4357 5.64261 19.6277 5.01448 18.6259C4.38646 17.6232 4.05268 16.4661 4.05074 15.2851C4.04879 14.104 4.37875 12.9459 5.00347 11.9411C5.62769 10.937 6.52178 10.1262 7.58496 9.59982C8.64762 9.07297 9.83757 8.85235 11.02 8.96294C12.2024 9.07354 13.33 9.51093 14.275 10.2256C14.5847 10.4627 14.967 10.587 15.3579 10.5776C15.7488 10.5683 16.1246 10.4258 16.4224 10.174C16.6151 10.01 16.7684 9.80685 16.8706 9.57795C16.9728 9.34906 17.0247 9.09907 17.02 8.84752C17.0153 8.59597 16.9524 8.34911 16.8392 8.1249C16.7259 7.90069 16.5624 7.70304 16.3634 7.54993C14.9148 6.44822 13.1846 5.77165 11.3687 5.5969C9.55224 5.42155 7.72264 5.75581 6.08777 6.56172C4.4529 7.36763 3.07827 8.61288 2.12003 10.156C1.16035 11.6994 0.653558 13.4783 0.656753 15.2923C0.659949 17.1064 1.17301 18.8835 2.13812 20.4235C3.10297 21.9619 4.48207 23.2011 6.11927 24.0009C7.75647 24.8007 9.58637 25.1292 11.4018 24.9491C13.2168 24.7682 14.9446 24.086 16.3894 22.9796C16.5858 22.8266 16.7454 22.6322 16.8568 22.4103C16.9682 22.1884 17.0285 21.9447 17.0334 21.6969C17.0384 21.449 16.9879 21.2032 16.8855 20.9772C16.7831 20.7511 16.6313 20.5505 16.4413 20.3899H16.4405Z" fill="#5A646E"/>
</svg>
