<svg width="26" height="25" viewBox="0 0 26 25" fill="none" xmlns="http://www.w3.org/2000/svg">
<path fill-rule="evenodd" clip-rule="evenodd" d="M1.06006 0.0947266H25.8706V24.9053H1.06006V0.0947266Z" fill="white"/>
<path fill-rule="evenodd" clip-rule="evenodd" d="M0.929688 24.9999V0H26.0002V25H0.929688V24.9999ZM25.8221 24.8219V0.178092H1.10778V24.8219H25.8221Z" fill="black"/>
<path fill-rule="evenodd" clip-rule="evenodd" d="M24.3912 6.5875C24.1441 5.66514 23.7138 4.79197 23.1305 4.03994C22.547 3.28777 21.8102 2.65688 21.0416 2.18987C20.273 1.72287 19.4723 1.42002 18.8962 1.2639C18.3204 1.10779 17.9777 1.17506 17.6313 1.17506H9.33377C9.10837 1.17506 8.88391 1.17519 8.30756 1.31831C7.73121 1.46143 6.80403 1.72649 5.97441 2.18023C5.14492 2.63396 4.41312 3.27625 3.83208 4.03404C3.24972 4.7947 2.82218 5.66218 2.57364 6.58736C2.32631 7.51288 2.26284 8.47792 2.38684 9.42786C2.51211 10.3777 2.82271 11.2936 3.30102 12.1238C3.77848 12.9507 4.42076 13.6825 5.1815 14.2491C5.94225 14.8156 6.82132 15.2171 7.53248 15.4662C8.24364 15.7152 8.78689 15.8117 9.3335 15.8117H17.6309C18.1774 15.8117 18.7208 15.7152 19.4318 15.4662C20.143 15.2171 21.022 14.8158 21.7829 14.2491C22.5435 13.6824 23.1858 12.9507 23.6634 12.1238C24.1417 11.2936 24.4523 10.3777 24.5776 9.42786C24.702 8.478 24.6386 7.51295 24.3912 6.5875ZM16.3224 10.2715C16.086 11.1516 15.6793 11.9767 15.1254 12.7002C14.5705 13.4231 13.879 14.0299 13.0902 14.4863C12.3006 14.9412 11.4293 15.2367 10.5259 15.3558C9.62231 15.4738 8.7044 15.4134 7.82407 15.1781C6.94408 14.9417 6.11899 14.535 5.39551 13.9811C4.67267 13.4261 4.06588 12.7346 3.60963 11.9458C3.15461 11.1562 2.85916 10.285 2.74008 9.38149C2.62175 8.48085 2.68259 7.55689 2.91777 6.67956C3.15295 5.80223 3.56206 4.97181 4.1147 4.251C4.6696 3.52811 5.36111 2.92129 6.14995 2.46498C6.93948 2.00998 7.8107 1.71449 8.71413 1.5953C9.61769 1.47734 10.5356 1.5377 11.4159 1.77299C12.296 2.00941 13.1211 2.4161 13.8446 2.97005C14.5654 3.52282 15.1765 4.2187 15.6306 5.00531C16.0848 5.79191 16.3817 6.66911 16.5001 7.56975C16.6184 8.47039 16.5574 9.39422 16.3224 10.2715Z" fill="#383E93"/>
<path fill-rule="evenodd" clip-rule="evenodd" d="M6.88955 5.94657C6.57991 6.28627 6.33576 6.6803 6.16941 7.10879C6.00327 7.53744 5.91785 7.99313 5.91748 8.45285C5.91748 8.91115 6.00365 9.36944 6.16941 9.79692C6.33517 10.2243 6.58053 10.6206 6.88955 10.9591C7.19856 11.2976 7.57096 11.578 7.98088 11.783V5.12271C7.56981 5.32832 7.19992 5.60756 6.88955 5.94657ZM12.366 5.92713C12.0503 5.58708 11.6743 5.30843 11.257 5.10529V11.8004C11.6742 11.5972 12.0502 11.3186 12.366 10.9786C12.6811 10.6378 12.9298 10.2413 13.0993 9.80924C13.2686 9.37703 13.3556 8.91702 13.3561 8.45285C13.3561 7.99 13.2683 7.52742 13.0993 7.09646C12.9298 6.66443 12.6811 6.26786 12.366 5.92713Z" fill="#383E93"/>
<path fill-rule="evenodd" clip-rule="evenodd" d="M6.37101 17.9601C6.183 17.7422 5.90186 17.6636 5.63265 17.6636H4.89629V20.0142H5.63265C5.91781 20.0142 6.20806 19.8913 6.39459 19.6759C6.58113 19.4605 6.66394 19.1521 6.65845 18.8314C6.65296 18.5108 6.55902 18.1779 6.37101 17.9601ZM6.04337 19.3267C5.93911 19.4465 5.77683 19.5143 5.6175 19.5143H5.40712V18.2086H5.6175C5.76799 18.2086 5.92504 18.252 6.03024 18.3731C6.13543 18.494 6.18796 18.6792 6.19104 18.8573C6.19412 19.0355 6.14762 19.2071 6.04337 19.3267ZM7.44626 20.0142V17.6636H6.94629V20.0142H7.44626ZM9.11033 19.1433V17.6636H9.6103V20.0142H9.05338L8.31193 18.5569V20.0142H7.81196V17.6636H8.35749L9.11033 19.1433ZM11.1317 19.509L11.1338 20.0176H9.91502V17.6712H11.1338L11.1317 18.1638H10.419V18.5862H11.1317V19.0863L10.419 19.0862V19.509H11.1317ZM11.9566 20.0142H11.4794L11.4772 17.6636H12.2935C12.4101 17.6636 12.5273 17.6886 12.6454 17.7624C12.7634 17.8361 12.8824 17.9528 12.9407 18.1114C12.999 18.2702 12.9967 18.4711 12.962 18.6259C12.9273 18.7807 12.8602 18.8896 12.7779 18.9779C12.6981 19.0645 12.6003 19.1325 12.4914 19.1773L13.0726 20.016H12.5498L12.0561 19.3112L11.9564 19.3092V20.0142H11.9566ZM11.9566 18.7229H12.2841C12.3627 18.7229 12.4399 18.6741 12.4784 18.5846C12.517 18.495 12.5169 18.3627 12.4785 18.2724C12.4401 18.1819 12.3636 18.1295 12.2841 18.1295H11.9566V18.7229ZM14.3798 18.3659C14.3932 18.2034 14.3606 18.0337 14.295 17.9077C14.229 17.7818 14.1299 17.6994 13.9984 17.6568C13.8671 17.6144 13.7037 17.6115 13.5601 17.6656C13.4135 17.7216 13.2934 17.8307 13.2235 17.9711C13.1543 18.1116 13.1396 18.2812 13.1585 18.4239C13.1775 18.5665 13.23 18.6823 13.3163 18.779C13.4026 18.8761 13.5224 18.9543 13.643 19.0026C13.7639 19.0508 13.8857 19.0693 13.9684 19.1233C14.0508 19.1773 14.0942 19.267 14.0689 19.3555C14.0436 19.444 13.949 19.5315 13.8427 19.5486C13.7364 19.5659 13.6178 19.5127 13.5495 19.4525C13.4814 19.3925 13.4635 19.3254 13.4798 19.2655H13.0813C13.0691 19.3971 13.0931 19.5332 13.1496 19.6463C13.2058 19.7563 13.2915 19.8484 13.3973 19.9122C13.4991 19.9746 13.6135 20.0095 13.7374 20.0167C13.8612 20.0239 13.9939 20.0036 14.1015 19.9667C14.2088 19.9297 14.2907 19.8759 14.3679 19.7677C14.445 19.6596 14.5175 19.4969 14.5189 19.3214C14.5205 19.1458 14.4505 18.9573 14.3362 18.8313C14.2217 18.7053 14.0625 18.6417 13.9353 18.5951C13.8081 18.5484 13.7128 18.5189 13.6495 18.4673C13.5863 18.4158 13.555 18.3422 13.5662 18.2759C13.5775 18.2095 13.6314 18.1503 13.6898 18.1222C13.7482 18.094 13.8109 18.0966 13.8568 18.1128C13.9026 18.1289 13.9311 18.1586 13.9494 18.2036C13.968 18.2485 13.9758 18.3086 13.9695 18.3658H14.3798V18.3659ZM17.6665 18.3659H17.1305C17.076 18.2948 17.0088 18.2345 16.9322 18.1881C16.8575 18.143 16.7747 18.1131 16.6885 18.1001C16.6022 18.087 16.5143 18.0911 16.4297 18.1121C16.3442 18.1336 16.2637 18.1714 16.1927 18.2236C16.1198 18.2776 16.0575 18.3448 16.0093 18.4217C15.9107 18.5774 15.8731 18.775 15.9061 18.9598C15.9223 19.0524 15.9553 19.1414 16.0027 19.2205C16.0501 19.2995 16.1115 19.3684 16.1825 19.4227C16.322 19.5306 16.4986 19.5787 16.6735 19.5565C16.7603 19.5453 16.844 19.5172 16.9198 19.4736C16.9971 19.4289 17.0652 19.37 17.1206 19.3001H17.6602C17.6052 19.4382 17.526 19.5654 17.4262 19.6757C17.3291 19.783 17.2127 19.8712 17.0831 19.9356C16.8281 20.0624 16.5341 20.0863 16.262 20.0024C16.1254 19.9597 15.9979 19.8918 15.8864 19.802C15.7717 19.7094 15.6748 19.5967 15.6006 19.4693C15.4498 19.2132 15.3927 18.8919 15.4482 18.5922C15.4751 18.4444 15.5285 18.3025 15.6058 18.1736C15.6816 18.0473 15.7798 17.9359 15.8955 17.8448C16.1289 17.6614 16.4172 17.5816 16.6904 17.6076C16.8302 17.6204 16.9678 17.6602 17.0951 17.725C17.2224 17.7897 17.3387 17.8795 17.4364 17.989C17.5341 18.0984 17.6126 18.2273 17.6665 18.3659ZM19.0037 19.5049V20.0176H17.9105V17.6484H18.3546L18.3576 19.509L19.0037 19.5049ZM19.2089 19.1177V17.694H19.653L19.6558 19.1785C19.6558 19.3017 19.7262 19.43 19.8241 19.4914C19.9222 19.5528 20.0521 19.547 20.1534 19.484C20.2547 19.4212 20.3447 19.3026 20.345 19.1785L20.3477 17.694H20.7918V19.095C20.7918 19.3995 20.7056 19.7411 20.4384 19.9133C20.1712 20.0853 19.7673 20.085 19.5108 19.9142C19.2542 19.7433 19.2089 19.4089 19.2089 19.1177ZM22.4615 19.1262C22.4217 18.9315 22.2942 18.7908 22.1358 18.7304C22.2306 18.6736 22.2978 18.5768 22.324 18.4257C22.3498 18.2745 22.3347 18.0688 22.2361 17.9161C22.1377 17.7634 21.9563 17.6484 21.7715 17.6484H21.088V19.9947H21.7715C21.978 19.9947 22.1918 19.9096 22.3226 19.7396C22.4534 19.5695 22.5014 19.3208 22.4615 19.1262ZM21.5462 18.1405H21.7412C21.7956 18.1405 21.8566 18.1514 21.8878 18.2114C21.9189 18.2713 21.9189 18.3682 21.8875 18.4274C21.8562 18.4866 21.7953 18.4946 21.7412 18.4946H21.5462V18.1405ZM21.9861 19.3809C21.9485 19.4534 21.8755 19.4635 21.8103 19.4635L21.5465 19.4634V19.0295H21.8103C21.876 19.0295 21.949 19.0434 21.9864 19.1167C22.0238 19.19 22.0238 19.3084 21.9861 19.3809ZM3.32335 22.9757V20.6252H2.82324V22.9757H3.32335ZM5.03298 22.1049V20.6252H5.53295V22.9757H4.97589L4.23458 21.5184V22.9757H3.73447V20.6252H4.28L5.03298 22.1049ZM5.6896 21.0654V20.6212H6.87406V21.0654H6.53517V22.9757H6.03519V21.0654H5.6896ZM8.28433 22.4703L8.28633 22.979H7.0677V20.6326H8.28633L8.28433 21.1252H7.57156V21.5477H8.28433V22.0478H7.57156V22.4703H8.28433ZM9.09787 22.9757H8.62068L8.6184 20.6251H9.43475C9.55134 20.6251 9.66859 20.6501 9.78665 20.7238C9.90471 20.7975 10.0237 20.9143 10.082 21.0731C10.1403 21.2317 10.138 21.4326 10.1033 21.5874C10.0686 21.7421 10.0015 21.8511 9.91918 21.9394C9.83939 22.026 9.74159 22.0941 9.63268 22.1388L10.2139 22.9775H9.6911L9.19743 22.2727L9.09773 22.2707V22.9757H9.09787ZM9.09787 21.6844H9.42537C9.50403 21.6844 9.58122 21.6356 9.61968 21.5461C9.65814 21.4564 9.65814 21.3242 9.61968 21.2339C9.58135 21.1434 9.5047 21.091 9.42524 21.091H9.09773V21.6844H9.09787ZM11.6387 22.1049V20.6252H12.1387V22.9757H11.5819L10.8403 21.5184V22.9757H10.3404V20.6252H10.886L11.6387 22.1049ZM13.0483 22.3298L12.8449 22.9755H12.3449L13.0852 20.6251H13.6241L14.3642 22.9755H13.8644L13.661 22.3298H13.0483ZM13.3546 21.3573L13.1991 21.8515H13.5102L13.3546 21.3573ZM14.4481 21.0654V20.6212H15.6327V21.0654H15.2937V22.9757H14.7936V21.0654H14.4481ZM16.3984 22.9757V20.6252H15.8983V22.9757H16.3984ZM18.9914 21.3806C18.9524 21.2552 18.894 21.1347 18.8184 21.0268C18.7428 20.919 18.6504 20.8238 18.5477 20.7474C18.2287 20.5147 17.8659 20.4627 17.512 20.5752C17.3934 20.6145 17.282 20.6727 17.182 20.7474C17.0774 20.8256 16.986 20.9199 16.9111 21.0268C16.7602 21.2441 16.6796 21.5025 16.6802 21.7671C16.6802 21.8983 16.6997 22.0304 16.7384 22.1572C16.7773 22.2842 16.8356 22.4045 16.9111 22.5137C16.9858 22.621 17.077 22.7158 17.1813 22.7945C17.5001 23.0283 17.8636 23.0806 18.2182 22.9675C18.3369 22.928 18.4484 22.8695 18.5485 22.7945C18.6528 22.7158 18.7438 22.621 18.8184 22.5137C18.9736 22.2913 19.0501 22.0232 19.0493 21.7671C19.0493 21.6362 19.0301 21.5059 18.9914 21.3806ZM18.4353 22.2171C18.3906 22.2813 18.3361 22.3381 18.2738 22.3854C18.214 22.4305 18.1473 22.4656 18.0762 22.4892C17.8642 22.5572 17.6467 22.5257 17.4561 22.3854C17.3937 22.3382 17.3392 22.2814 17.2946 22.2171C17.2493 22.1515 17.2144 22.0793 17.1913 22.0031C17.1225 21.7677 17.1545 21.5306 17.2946 21.3249C17.3399 21.2601 17.3952 21.203 17.4564 21.1571C17.5163 21.1122 17.583 21.0773 17.654 21.0538C17.8655 20.9862 18.0825 21.0175 18.2733 21.1571C18.3345 21.203 18.39 21.2601 18.4353 21.3249C18.4803 21.3894 18.5154 21.4617 18.5386 21.537C18.6086 21.7711 18.5732 22.0142 18.4353 22.2171ZM20.5909 22.1049V20.6252H21.091V22.9757H20.5341L19.7926 21.5184V22.9757H19.2924V20.6252H19.8381L20.5909 22.1049ZM22.0345 22.3298L21.8311 22.9755H21.3313L22.0714 20.6251H22.6102L23.3506 22.9755H22.8505L22.6471 22.3298H22.0345ZM22.341 21.3573L22.1853 21.8515H22.4964L22.341 21.3573ZM24.6644 22.979V22.5348H24.1432L24.1404 20.6212H23.6395V22.979H24.6644Z" fill="black"/>
</svg>
