<svg width="35" height="26" viewBox="0 0 35 26" fill="none" xmlns="http://www.w3.org/2000/svg">
<path d="M32.8731 25.5H2.17904C1.1213 25.5 0.26416 24.6429 0.26416 23.5851V2.41488C0.26416 1.35714 1.1213 0.5 2.17904 0.5H32.8731C33.9308 0.5 34.788 1.35714 34.788 2.41488V23.5851C34.788 24.6429 33.9308 25.5 32.8731 25.5Z" fill="#8798CC"/>
<path d="M34.788 3.4762H0.26416V8.2381H34.788V3.4762Z" fill="#556180"/>
<path d="M9.19262 11.2142H3.83547C3.50631 11.2142 3.24023 11.4809 3.24023 11.8095C3.24023 12.138 3.50631 12.4047 3.83547 12.4047H9.19262C9.52178 12.4047 9.78785 12.138 9.78785 11.8095C9.78785 11.4809 9.52178 11.2142 9.19262 11.2142Z" fill="#B0D3F0"/>
<path d="M17.5261 11.8095C17.5261 11.4809 17.2601 11.2142 16.9309 11.2142H11.5738C11.2446 11.2142 10.9785 11.4809 10.9785 11.8095C10.9785 12.138 11.2446 12.4047 11.5738 12.4047H16.9309C17.2601 12.4047 17.5261 12.138 17.5261 11.8095Z" fill="#B0D3F0"/>
<path d="M4.43071 14.1904H3.83547C3.50631 14.1904 3.24023 14.4571 3.24023 14.7857C3.24023 15.1142 3.50631 15.3809 3.83547 15.3809H4.43071C4.75988 15.3809 5.02595 15.1142 5.02595 14.7857C5.02595 14.4571 4.75988 14.1904 4.43071 14.1904Z" fill="#B0D3F0"/>
<path d="M8.00202 14.1904H6.81155C6.48238 14.1904 6.21631 14.4571 6.21631 14.7857C6.21631 15.1142 6.48238 15.3809 6.81155 15.3809H8.00202C8.33119 15.3809 8.59726 15.1142 8.59726 14.7857C8.59726 14.4571 8.33119 14.1904 8.00202 14.1904Z" fill="#B0D3F0"/>
<path d="M10.9786 14.1904H10.3833C10.0542 14.1904 9.78809 14.4571 9.78809 14.7857C9.78809 15.1142 10.0542 15.3809 10.3833 15.3809H10.9786C11.3077 15.3809 11.5738 15.1142 11.5738 14.7857C11.5738 14.4571 11.3077 14.1904 10.9786 14.1904Z" fill="#B0D3F0"/>
<path d="M14.5499 14.1904H13.3594C13.0302 14.1904 12.7642 14.4571 12.7642 14.7857C12.7642 15.1142 13.0302 15.3809 13.3594 15.3809H14.5499C14.879 15.3809 15.1451 15.1142 15.1451 14.7857C15.1451 14.4571 14.879 14.1904 14.5499 14.1904Z" fill="#B0D3F0"/>
<path d="M16.5081 14.3631C16.4003 14.4761 16.3354 14.6309 16.3354 14.7857C16.3354 14.9404 16.4003 15.0952 16.5081 15.2083C16.62 15.3154 16.7688 15.3809 16.9307 15.3809C17.0854 15.3809 17.2396 15.3154 17.3533 15.2083C17.4604 15.0952 17.5259 14.9404 17.5259 14.7857C17.5259 14.6309 17.4604 14.4761 17.3533 14.3631C17.1331 14.1428 16.7283 14.1428 16.5081 14.3631Z" fill="#B0D3F0"/>
<path d="M31.2167 15.9762H21.6929V21.9286H31.2167V15.9762Z" fill="#91BAE1"/>
</svg>