<svg width="40" height="25" viewBox="0 0 40 25" fill="none" xmlns="http://www.w3.org/2000/svg">
<path d="M1.0542 0.154205H39.8556V24.8565H1.06488L1.0542 0.154205Z" fill="white"/>
<path d="M39.7224 13.8937C39.7224 13.8937 29.1198 21.3699 9.70312 24.7229H39.7224V13.8937Z" fill="#F48120"/>
<path d="M39.8558 0.00992224H0.920898V25H40.0001V0H39.8558V0.00992224ZM39.7223 0.287751C39.7223 0.56558 39.7223 24.4344 39.7223 24.7122C39.4444 24.7122 1.48648 24.7122 1.20865 24.7122C1.20865 24.4344 1.20865 0.56558 1.20865 0.287751C1.48648 0.287751 39.4345 0.287751 39.7223 0.287751Z" fill="#231F20"/>
<path d="M4.33501 7.65097H2.7207V13.3075H4.33501C5.18834 13.3075 5.80582 13.1022 6.35079 12.6595C6.99881 12.1245 7.37891 11.3223 7.37891 10.4896C7.36899 8.81342 6.12487 7.65097 4.33501 7.65097ZM5.63103 11.9085C5.28146 12.2168 4.83953 12.3611 4.11901 12.3611H3.82133V8.61803H4.11977C4.82961 8.61803 5.26161 8.74168 5.6318 9.07064C6.01267 9.4103 6.23859 9.93466 6.23859 10.4796C6.23783 11.0246 6.01114 11.5696 5.63103 11.9085Z" fill="#231F20"/>
<path d="M8.98393 7.65097H7.8833V13.3075H8.98393V7.65097Z" fill="#231F20"/>
<path d="M11.6778 9.82091C11.0199 9.57437 10.8245 9.40951 10.8245 9.11107C10.8245 8.75081 11.1741 8.48367 11.6473 8.48367C11.9763 8.48367 12.2541 8.61724 12.5319 8.94621L13.1082 8.19515C12.635 7.78375 12.0694 7.56775 11.442 7.56775C10.4444 7.56775 9.67349 8.2669 9.67349 9.19274C9.67349 9.97432 10.0338 10.375 11.0619 10.746C11.4939 10.9002 11.7099 11.0032 11.8228 11.065C12.0389 11.2093 12.1518 11.4146 12.1518 11.6512C12.1518 12.1138 11.7916 12.4534 11.2985 12.4534C10.7741 12.4534 10.352 12.1863 10.0956 11.7024L9.38574 12.3916C9.8895 13.1426 10.507 13.4716 11.3397 13.4716C12.4815 13.4716 13.2937 12.7106 13.2937 11.61C13.3135 10.6948 12.9326 10.2834 11.6778 9.82091Z" fill="#231F20"/>
<path d="M13.6519 10.4895C13.6519 12.1558 14.9578 13.4411 16.6339 13.4411C17.1072 13.4411 17.5186 13.3487 18.0116 13.1121V11.8161C17.5697 12.258 17.1789 12.4328 16.6851 12.4328C15.5745 12.4328 14.7823 11.6306 14.7823 10.4789C14.7823 9.38892 15.5944 8.53482 16.6332 8.53482C17.1575 8.53482 17.559 8.7203 18.0109 9.17215V7.87613C17.5277 7.62959 17.1262 7.52655 16.653 7.52655C14.999 7.52731 13.6519 8.84395 13.6519 10.4895Z" fill="#231F20"/>
<path d="M26.775 11.4558L25.263 7.65097H24.0601L26.4559 13.451H27.0528L29.4899 7.65097H28.2969L26.775 11.4558Z" fill="#231F20"/>
<path d="M29.9937 13.3075H33.12V12.3512H31.0943V10.8292H33.0482V9.87207H31.0943V8.61803H33.12V7.65097H29.9937V13.3075Z" fill="#231F20"/>
<path d="M37.4906 9.32713C37.4906 8.26772 36.7602 7.66092 35.4855 7.66092H33.8506V13.3175H34.9512V11.0445H35.0955L36.6174 13.3175H37.9753L36.1961 10.9315C37.0281 10.7567 37.4906 10.1911 37.4906 9.32713ZM35.2695 10.2629H34.9505V8.54554H35.2901C35.9793 8.54554 36.3495 8.83329 36.3495 9.38895C36.3495 9.95453 35.9793 10.2629 35.2695 10.2629Z" fill="#231F20"/>
<path d="M21.3962 13.5129C23.0604 13.5129 24.4096 12.1638 24.4096 10.4995C24.4096 8.83531 23.0604 7.48618 21.3962 7.48618C19.7319 7.48618 18.3828 8.83531 18.3828 10.4995C18.3828 12.1638 19.7319 13.5129 21.3962 13.5129Z" fill="url(#paint0_linear_926_2315)"/>
<path opacity="0.65" d="M21.3962 13.5129C23.0604 13.5129 24.4096 12.1638 24.4096 10.4995C24.4096 8.83531 23.0604 7.48618 21.3962 7.48618C19.7319 7.48618 18.3828 8.83531 18.3828 10.4995C18.3828 12.1638 19.7319 13.5129 21.3962 13.5129Z" fill="url(#paint1_linear_926_2315)"/>
<defs>
<linearGradient id="paint0_linear_926_2315" x1="22.9363" y1="12.9111" x2="20.8534" y2="9.64988" gradientUnits="userSpaceOnUse">
<stop stop-color="#F89F20"/>
<stop offset="0.2502" stop-color="#F79A20"/>
<stop offset="0.5331" stop-color="#F68D20"/>
<stop offset="0.6196" stop-color="#F58720"/>
<stop offset="0.7232" stop-color="#F48120"/>
<stop offset="1" stop-color="#F37521"/>
</linearGradient>
<linearGradient id="paint1_linear_926_2315" x1="22.6075" y1="12.8672" x2="19.5632" y2="6.91709" gradientUnits="userSpaceOnUse">
<stop stop-color="#F58720"/>
<stop offset="0.3587" stop-color="#E16F27"/>
<stop offset="0.703" stop-color="#D4602C"/>
<stop offset="0.9816" stop-color="#D05B2E"/>
</linearGradient>
</defs>
</svg>
