<svg width="33" height="25" viewBox="0 0 33 25" fill="none" xmlns="http://www.w3.org/2000/svg">
<path d="M32.9999 19.9603C32.9999 22.7381 30.738 25 27.9602 25H0.539551V5.03968C0.539551 2.2619 2.80146 0 5.57923 0H32.9999V19.9603Z" fill="white"/>
<path d="M24.0713 14.8413H26.1546C26.2141 14.8413 26.353 14.8215 26.4126 14.8215C26.8094 14.7421 27.1467 14.385 27.1467 13.889C27.1467 13.4128 26.8094 13.0556 26.4126 12.9564C26.353 12.9366 26.234 12.9366 26.1546 12.9366H24.0713V14.8413Z" fill="url(#paint0_linear_926_2533)"/>
<path d="M25.9166 1.68649C23.9325 1.68649 22.3055 3.29364 22.3055 5.2976V9.0476H27.4047C27.5237 9.0476 27.6626 9.0476 27.7618 9.06745C28.9126 9.12697 29.7658 9.72221 29.7658 10.754C29.7658 11.5674 29.1904 12.2619 28.119 12.4008V12.4405C29.2896 12.5198 30.1825 13.1746 30.1825 14.1865C30.1825 15.2778 29.1904 15.9921 27.8809 15.9921H22.2856V23.3333H27.5833C29.5674 23.3333 31.1944 21.7262 31.1944 19.7222V1.68649H25.9166Z" fill="url(#paint1_linear_926_2533)"/>
<path d="M26.8887 10.992C26.8887 10.5158 26.5514 10.1984 26.1546 10.1388C26.1149 10.1388 26.0157 10.119 25.9562 10.119H24.0713V11.865H25.9562C26.0157 11.865 26.1348 11.865 26.1546 11.8452C26.5514 11.7857 26.8887 11.4682 26.8887 10.992Z" fill="url(#paint2_linear_926_2533)"/>
<path d="M15.9363 1.68649C13.9522 1.68649 12.3252 3.29364 12.3252 5.2976V10.0198C13.2379 9.24602 14.8252 8.74999 17.3847 8.86903C18.7538 8.92856 20.222 9.30554 20.222 9.30554V10.8333C19.4879 10.4563 18.6149 10.119 17.4839 10.0397C15.5395 9.90078 14.3688 10.8532 14.3688 12.5198C14.3688 14.2063 15.5395 15.1587 17.4839 15C18.6149 14.9206 19.4879 14.5635 20.222 14.2063V15.7341C20.222 15.7341 18.7736 16.1111 17.3847 16.1706C14.8252 16.2897 13.2379 15.7936 12.3252 15.0198V23.3532H17.6228C19.6069 23.3532 21.2339 21.746 21.2339 19.7421V1.68649H15.9363Z" fill="url(#paint3_linear_926_2533)"/>
<path d="M5.95615 1.68649C3.97202 1.68649 2.34504 3.29364 2.34504 5.2976V14.2063C3.35694 14.7024 4.40853 15.0198 5.46012 15.0198C6.71012 15.0198 7.38472 14.2659 7.38472 13.2341V9.02776H10.48V13.2143C10.48 14.8413 9.46805 16.1706 6.03551 16.1706C3.95218 16.1706 2.3252 15.7143 2.3252 15.7143V23.3135H7.62281C9.60694 23.3135 11.2339 21.7063 11.2339 19.7024V1.68649H5.95615Z" fill="url(#paint4_linear_926_2533)"/>
<defs>
<linearGradient id="paint0_linear_926_2533" x1="22.3021" y1="13.8913" x2="31.2182" y2="13.8913" gradientUnits="userSpaceOnUse">
<stop stop-color="#007940"/>
<stop offset="0.2285" stop-color="#00873F"/>
<stop offset="0.7433" stop-color="#40A737"/>
<stop offset="1" stop-color="#5CB531"/>
</linearGradient>
<linearGradient id="paint1_linear_926_2533" x1="22.3019" y1="12.5012" x2="31.2187" y2="12.5012" gradientUnits="userSpaceOnUse">
<stop stop-color="#007940"/>
<stop offset="0.2285" stop-color="#00873F"/>
<stop offset="0.7433" stop-color="#40A737"/>
<stop offset="1" stop-color="#5CB531"/>
</linearGradient>
<linearGradient id="paint2_linear_926_2533" x1="22.3019" y1="10.9895" x2="31.2184" y2="10.9895" gradientUnits="userSpaceOnUse">
<stop stop-color="#007940"/>
<stop offset="0.2285" stop-color="#00873F"/>
<stop offset="0.7433" stop-color="#40A737"/>
<stop offset="1" stop-color="#5CB531"/>
</linearGradient>
<linearGradient id="paint3_linear_926_2533" x1="12.2739" y1="12.5012" x2="21.0676" y2="12.5012" gradientUnits="userSpaceOnUse">
<stop stop-color="#6C2C2F"/>
<stop offset="0.1735" stop-color="#882730"/>
<stop offset="0.5731" stop-color="#BE1833"/>
<stop offset="0.8585" stop-color="#DC0436"/>
<stop offset="1" stop-color="#E60039"/>
</linearGradient>
<linearGradient id="paint4_linear_926_2533" x1="2.34084" y1="12.5012" x2="11.395" y2="12.5012" gradientUnits="userSpaceOnUse">
<stop stop-color="#1F286F"/>
<stop offset="0.4751" stop-color="#004E94"/>
<stop offset="0.8261" stop-color="#0066B1"/>
<stop offset="1" stop-color="#006FBC"/>
</linearGradient>
</defs>
</svg>
