<svg width="42" height="25" viewBox="0 0 42 25" fill="none" xmlns="http://www.w3.org/2000/svg">
<path fill-rule="evenodd" clip-rule="evenodd" d="M21.2492 21.7596C23.4381 23.7766 26.3777 25 29.5751 25C36.442 25 41.9999 19.3992 41.9999 12.5106C41.9999 5.60104 36.442 0 29.5751 0C26.3777 0 23.4381 1.22315 21.2492 3.24036C18.7385 5.53639 17.1504 8.84115 17.1504 12.5106C17.1506 16.1801 18.7385 19.4851 21.2492 21.7596Z" fill="#E9B040"/>
<path fill-rule="evenodd" clip-rule="evenodd" d="M40.3481 19.4634C40.3481 19.2488 40.5199 19.0773 40.7343 19.0773C40.9702 19.0773 41.1417 19.249 41.1417 19.4634C41.1417 19.6998 40.97 19.8713 40.7343 19.8713C40.5199 19.8713 40.3481 19.6998 40.3481 19.4634ZM40.7343 19.7857C40.9061 19.7857 41.0558 19.6352 41.0558 19.4637C41.0558 19.2922 40.9058 19.1634 40.7343 19.1634C40.5838 19.1634 40.434 19.2922 40.434 19.4637C40.434 19.6352 40.584 19.7857 40.7343 19.7857ZM40.6914 19.6569H40.6055V19.2919H40.7555C40.7772 19.2919 40.8202 19.2919 40.8414 19.3137C40.8843 19.3349 40.8843 19.3566 40.8843 19.3995C40.8843 19.4425 40.8631 19.4854 40.8202 19.4854L40.9061 19.6572H40.7985L40.7555 19.5066H40.6914V19.6569V19.4422H40.7772C40.7985 19.4422 40.7985 19.4205 40.7985 19.3993C40.7985 19.3776 40.7985 19.3776 40.7772 19.3564H40.6914V19.6569Z" fill="#E9B040"/>
<path fill-rule="evenodd" clip-rule="evenodd" d="M25.2621 11.1804C25.2192 10.7298 25.1333 10.3007 25.0474 9.84988H17.4509C17.5368 9.39931 17.6656 8.97021 17.7941 8.54085H24.6827C24.5332 8.08911 24.3613 7.64506 24.1678 7.21036H18.3308C18.5455 6.75582 18.7819 6.31182 19.039 5.87987H23.4384C23.1553 5.42157 22.8398 4.98411 22.4943 4.57085H19.9833C20.3717 4.09652 20.7949 3.6518 21.2494 3.24036C19.0393 1.24462 16.1207 0 12.9018 0C6.05637 0 0.477051 5.60104 0.477051 12.5106C0.477051 19.3992 6.05637 25 12.9018 25C16.1207 25 19.039 23.7766 21.2494 21.7596C21.697 21.3554 22.1131 20.9177 22.4943 20.4504H19.9833C19.6399 20.0213 19.3396 19.5922 19.039 19.1199H23.4384C23.715 18.6955 23.9589 18.2508 24.168 17.7894H18.3308C18.1376 17.3603 17.9447 16.9312 17.7941 16.4801H24.6827C24.8328 16.051 24.9404 15.6007 25.0472 15.1496C25.1331 14.7205 25.2189 14.2702 25.2619 13.8191C25.3054 13.3841 25.3269 12.9471 25.3265 12.5098C25.3265 12.06 25.3051 11.6095 25.2621 11.1804Z" fill="#CC2131"/>
<path fill-rule="evenodd" clip-rule="evenodd" d="M29.4687 9.63524L29.2323 11.0087C28.7603 10.7725 28.4168 10.6654 28.0307 10.6654C27.0219 10.6654 26.314 11.6524 26.314 13.0473C26.314 14.0131 26.786 14.5923 27.5803 14.5923C27.9018 14.5923 28.2883 14.4852 28.7174 14.2707L28.4815 15.7081C27.9877 15.8369 27.666 15.9015 27.301 15.9015C25.842 15.9015 24.9406 14.8499 24.9406 13.1549C24.9406 10.9016 26.1852 9.31348 27.9663 9.31348C28.2021 9.31348 28.4166 9.33494 28.5883 9.37788L29.125 9.50669C29.297 9.57109 29.3399 9.59256 29.4687 9.63524ZM25.1338 10.5796H25.005C24.5547 10.5796 24.297 10.7942 23.8892 11.4163L24.018 10.6222H22.7946L21.9581 15.7725H23.3103C23.8035 12.618 23.9323 12.0815 24.5761 12.0815H24.662C24.7908 11.4592 24.9623 11.0084 25.177 10.6008L25.1338 10.5796ZM17.3658 15.7081C17.0011 15.8369 16.7005 15.8798 16.4002 15.8798C15.7135 15.8798 15.3271 15.4936 15.3271 14.7428C15.3271 14.614 15.3486 14.4425 15.37 14.292L15.4559 13.777L15.5203 13.3696L16.0997 9.84992H17.4302L17.2799 10.6225H17.9666L17.7949 11.8886H17.1082L16.7435 14.0346C16.722 14.1205 16.722 14.1851 16.722 14.2493C16.722 14.5069 16.8508 14.6142 17.1726 14.6142C17.3228 14.6142 17.4514 14.6142 17.5373 14.5713L17.3658 15.7081ZM12.1941 12.2533C12.1941 12.8973 12.4944 13.3476 13.2025 13.6911C13.7605 13.9487 13.8463 14.0343 13.8463 14.249C13.8463 14.571 13.6102 14.7211 13.0737 14.7211C12.6661 14.7211 12.3012 14.6569 11.8721 14.5281L11.6788 15.7081L11.7432 15.7298L11.9794 15.7727C12.065 15.7939 12.1726 15.8157 12.3441 15.8157C12.6444 15.8586 12.902 15.8586 13.0737 15.8586C14.4898 15.8586 15.1553 15.3219 15.1553 14.1419C15.1553 13.4335 14.8765 13.0256 14.2113 12.7041C13.6319 12.4465 13.5675 12.3823 13.5675 12.1462C13.5675 11.8674 13.8036 11.7386 14.2327 11.7386C14.4904 11.7386 14.8551 11.76 15.1985 11.803L15.3915 10.6228C15.0483 10.5583 14.5118 10.5154 14.2113 10.5154C12.709 10.5152 12.1726 11.3092 12.1941 12.2533ZM39.7477 15.7727H38.4814L38.546 15.279C38.1811 15.6651 37.7947 15.8369 37.3009 15.8369C36.3139 15.8369 35.6701 15.0004 35.6701 13.7128C35.6701 11.9959 36.6788 10.5366 37.8588 10.5366C38.3955 10.5366 38.7817 10.7728 39.1469 11.2448L39.4472 9.44228H40.7777L39.7477 15.7727ZM37.7732 14.571C38.3958 14.571 38.8249 13.8414 38.8249 12.8327C38.8249 12.1674 38.5885 11.8239 38.1164 11.8239C37.5156 11.8239 37.0653 12.5321 37.0653 13.5408C37.0653 14.2278 37.3012 14.571 37.7732 14.571ZM21.4858 15.6651C21.0135 15.8157 20.5844 15.8798 20.0909 15.8798C18.5887 15.8798 17.8161 15.086 17.8161 13.5623C17.8161 11.8027 18.8033 10.4937 20.1553 10.4937C21.2711 10.4937 21.979 11.2233 21.979 12.3606C21.979 12.747 21.9361 13.112 21.8073 13.6482H19.1468C19.1254 13.7128 19.1254 13.7558 19.1254 13.7987C19.1254 14.3995 19.5332 14.6998 20.3056 14.6998C20.7991 14.6998 21.2282 14.614 21.7005 14.3778L21.4858 15.6651ZM20.7347 12.5965V12.3392C20.7347 11.9101 20.4985 11.6739 20.0909 11.6739C19.6618 11.6739 19.3612 11.9959 19.2324 12.5965H20.7347ZM7.06531 15.7727H5.73482L6.50741 10.9013L4.76928 15.7727H3.84643L3.73909 10.9443L2.92382 15.7727H1.6792L2.73061 9.44228H4.66194L4.72635 13.3694L6.01365 9.44228H8.11673L7.06531 15.7727ZM10.3915 13.4764C10.2627 13.4764 10.1983 13.4552 10.091 13.4552C9.33988 13.4552 8.95371 13.7341 8.95371 14.249C8.95371 14.571 9.12545 14.764 9.42575 14.764C9.98366 14.764 10.3701 14.249 10.3915 13.4764ZM11.3786 15.7727H10.2625L10.284 15.236C9.94047 15.6651 9.4899 15.8586 8.86759 15.8586C8.13794 15.8586 7.64444 15.3007 7.64444 14.4637C7.64444 13.1979 8.50264 12.4682 10.0049 12.4682C10.1551 12.4682 10.3484 12.4897 10.5628 12.5109C10.6057 12.3394 10.6057 12.275 10.6057 12.1891C10.6057 11.8459 10.3696 11.7171 9.74726 11.7171C9.36109 11.7171 8.93174 11.76 8.63145 11.8459L8.43824 11.9103L8.30943 11.9318L8.50264 10.773C9.16789 10.5798 9.61845 10.5154 10.1122 10.5154C11.271 10.5154 11.8933 11.0304 11.8933 12.0174C11.8933 12.275 11.8718 12.4682 11.7859 13.0476L11.4854 14.8718L11.4424 15.1933L11.421 15.451L11.3995 15.6444L11.3786 15.7727ZM31.6362 13.4764C31.4857 13.4764 31.4215 13.4552 31.3359 13.4552C30.5633 13.4552 30.1767 13.7341 30.1767 14.249C30.1767 14.571 30.3701 14.764 30.6704 14.764C31.2071 14.764 31.6145 14.249 31.6362 13.4764ZM32.6232 15.7727H31.5074L31.5286 15.236C31.1854 15.6651 30.7348 15.8586 30.1125 15.8586C29.3829 15.8586 28.8891 15.3007 28.8891 14.4637C28.8891 13.1979 29.7473 12.4682 31.2495 12.4682C31.4001 12.4682 31.5933 12.4897 31.7862 12.5109C31.8292 12.3394 31.8509 12.275 31.8509 12.1891C31.8509 11.8459 31.6145 11.7171 30.9927 11.7171C30.606 11.7171 30.1557 11.76 29.8552 11.8459L29.6834 11.9103L29.5546 11.9318L29.7476 10.773C30.4131 10.5798 30.8634 10.5154 31.3571 10.5154C32.5159 10.5154 33.1167 11.0304 33.1167 12.0174C33.1167 12.275 33.1167 12.4682 33.0096 13.0476L32.7306 14.8718L32.6876 15.1933L32.6447 15.451L32.6235 15.6444V15.7727H32.6232ZM36.2283 10.5796H36.0995C35.6492 10.5796 35.3915 10.7942 34.9837 11.4163L35.1125 10.6222H33.8891L33.0735 15.7725H34.404C34.8978 12.618 35.0266 12.0815 35.6704 12.0815H35.7562C35.885 11.4592 36.0565 11.0084 36.2712 10.6008L36.2283 10.5796Z" fill="white"/>
</svg>
