<svg width="42" height="25" viewBox="0 0 42 25" fill="none" xmlns="http://www.w3.org/2000/svg">
<path fill-rule="evenodd" clip-rule="evenodd" d="M21.2627 21.7646C22.5506 20.5897 23.5786 19.1587 24.281 17.5632C24.9834 15.9677 25.3446 14.2431 25.3414 12.4999C25.3446 10.7567 24.9835 9.03201 24.2811 7.43655C23.5787 5.84109 22.5506 4.41005 21.2627 3.2352C19.0606 1.225 16.1393 0 12.9335 0C6.08119 0 0.525879 5.59632 0.525879 12.4999C0.525879 19.4032 6.08119 24.9998 12.9335 24.9998C16.1393 24.9998 19.0608 23.7748 21.2627 21.7646Z" fill="#3A9BD9"/>
<path fill-rule="evenodd" clip-rule="evenodd" d="M29.5922 0C26.3865 0 23.4647 1.22501 21.263 3.2352C20.814 3.64548 20.3953 4.08779 20.0103 4.55863H22.5148C22.8587 4.9789 23.1748 5.42104 23.4614 5.88229H19.0644C18.7997 6.30881 18.5608 6.75082 18.349 7.20594H24.1756C24.3762 7.6367 24.552 8.07856 24.7021 8.52937H17.8236C17.6794 8.96358 17.5591 9.40539 17.4634 9.85281H25.0626C25.2486 10.7229 25.3422 11.6102 25.3419 12.4999C25.3419 13.8876 25.1167 15.2228 24.7023 16.4702H17.8236C17.9732 16.9211 18.1486 17.3631 18.349 17.7938H24.1756C23.9642 18.249 23.7256 18.691 23.4612 19.1175H19.0644C19.3506 19.5787 19.6665 20.0209 20.01 20.4411H22.5148C22.1303 20.9122 21.7119 21.3546 21.263 21.7648C23.4647 23.775 26.3865 25 29.5922 25C36.4443 25 41.9998 19.4035 41.9998 12.5001C41.9998 5.59632 36.4443 0 29.5922 0Z" fill="#CC2131"/>
<path fill-rule="evenodd" clip-rule="evenodd" d="M11.3836 15.6125H9.83936L10.7571 10.7409L8.64406 15.6125H7.23594L6.97857 10.7688L6.05793 15.6125H4.65625L5.85399 9.27537H8.26365L8.39112 13.1987L10.0901 9.27537H12.6011L11.3836 15.6125ZM28.6416 15.5494C28.2191 15.6662 27.8888 15.7165 27.5319 15.7165C26.7418 15.7165 26.3104 15.3173 26.3104 14.5848C26.3104 14.4399 26.3264 14.2856 26.3559 14.1224L26.4499 13.6185L26.5221 13.2106L27.2379 9.27515H28.7737L28.5512 10.4587H29.3392L29.1275 11.7116H28.3361L27.9291 13.8619C27.9141 13.9322 27.9052 14.0036 27.9028 14.0754C27.9028 14.3417 28.0626 14.4574 28.4297 14.4574C28.6055 14.4574 28.7418 14.4414 28.8462 14.4093L28.6416 15.5494ZM33.1519 10.501C33.0225 10.4496 32.9921 10.4496 32.977 10.4454C32.8952 10.4272 32.8516 10.4166 32.844 10.4152C32.7927 10.4063 32.7407 10.402 32.6886 10.4024C32.1816 10.4024 31.8161 10.6298 31.3435 11.2392L31.4798 10.4583H30.0812L29.14 15.6123H30.6853C31.2382 12.4602 31.4749 11.9083 32.2162 11.9083C32.2721 11.9083 32.3366 11.9127 32.4115 11.9213L32.592 11.9584L33.1519 10.501ZM22.5199 12.0869C22.5199 12.738 22.8841 13.1865 23.7097 13.5234C24.3424 13.7824 24.4401 13.8582 24.4401 14.0923C24.4401 14.413 24.1612 14.5578 23.5434 14.5578C23.077 14.5578 22.6436 14.4946 22.1433 14.3538L21.9289 15.5427L21.9981 15.5545L22.2843 15.6072C22.3765 15.6232 22.5124 15.6385 22.6926 15.6522C23.0641 15.6813 23.3517 15.695 23.5543 15.695C25.2027 15.695 25.9642 15.1508 25.9642 13.9752C25.9642 13.2678 25.6458 12.8531 24.8631 12.5407C24.208 12.2798 24.1322 12.2219 24.1322 11.9814C24.1322 11.7037 24.392 11.5609 24.8968 11.5609C25.2038 11.5609 25.6223 11.5899 26.0194 11.6383L26.2419 10.4452C25.8376 10.3898 25.224 10.3443 24.8673 10.3443C23.1196 10.3445 22.5146 11.1364 22.5199 12.0869ZM16.4038 15.6125H15.1204L15.1504 15.0783C14.7596 15.5013 14.2386 15.7017 13.5306 15.7017C12.6937 15.7017 12.1193 15.1275 12.1193 14.294C12.1193 13.0384 13.1171 12.3066 14.832 12.3066C15.0078 12.3066 15.2311 12.3206 15.4612 12.3463C15.5091 12.1769 15.5221 12.1038 15.5221 12.0116C15.5221 11.6704 15.2528 11.5427 14.5317 11.5427C14.0907 11.5427 13.5924 11.5986 13.2484 11.6864L13.0344 11.7411L12.8959 11.7744L13.11 10.6156C13.8799 10.417 14.388 10.3419 14.9588 10.3419C16.286 10.3419 16.9874 10.8655 16.9874 11.8537C16.9874 12.108 16.9642 12.3011 16.862 12.8748L16.5392 14.7032L16.4849 15.0313L16.4454 15.2933L16.4191 15.4727L16.4038 15.6125ZM15.2772 13.3164C15.1627 13.3021 15.0474 13.295 14.932 13.2951C14.0568 13.2951 13.6135 13.5587 13.6135 14.0792C13.6135 14.4 13.8298 14.6048 14.1674 14.6048C14.797 14.605 15.2506 14.0785 15.2772 13.3164ZM21.4698 15.5013C20.9541 15.6412 20.4219 15.7115 19.8875 15.7103C18.161 15.709 17.2612 14.9171 17.2612 13.4013C17.2612 11.6321 18.406 10.3295 19.96 10.3295C21.2313 10.3295 22.0431 11.059 22.0431 12.2029C22.0431 12.5826 21.9877 12.9528 21.8535 13.4753H18.7831C18.7737 13.5288 18.7687 13.5829 18.7682 13.6372C18.7682 14.2346 19.226 14.5394 20.1229 14.5394C20.6744 14.5394 21.173 14.4385 21.7265 14.2133L21.4698 15.5013ZM20.6474 12.4345C20.6558 12.3272 20.6602 12.2395 20.6602 12.1716C20.6602 11.7531 20.3896 11.5075 19.9298 11.5075C19.4386 11.5075 19.0872 11.8369 18.9447 12.4314L20.6474 12.4345ZM37.9522 13.2758C37.721 14.9903 36.5326 15.7507 34.9526 15.7507C33.2056 15.7507 32.5 14.683 32.5 13.3749C32.5 11.5483 33.695 10.3106 35.5408 10.3106C37.1428 10.3106 37.9934 11.3284 37.9934 12.6367C37.9934 12.955 37.993 12.9761 37.9522 13.2758ZM36.3619 12.6163C36.3619 12.0772 36.1446 11.5682 35.5115 11.5682C34.7234 11.5682 34.2351 12.5066 34.2351 13.335C34.2351 14.0337 34.5698 14.5033 35.1218 14.4933C35.4565 14.4933 36.1703 14.034 36.3115 13.2317C36.3446 13.0446 36.3619 12.8393 36.3619 12.6163Z" fill="white"/>
</svg>
