<svg width="26" height="32" viewBox="0 0 26 32" fill="none" xmlns="http://www.w3.org/2000/svg">
<path d="M25.6841 0.619392L21.541 0.00652087C21.4184 -0.017994 21.2959 0.0310327 21.2469 0.0800625L19.4818 2.38445C19.3592 2.53155 19.3347 2.72767 19.3837 2.89927C19.4327 3.07087 19.2857 3.21797 19.1141 3.19345L17.6677 2.87475C17.4471 2.82572 17.2019 2.89927 17.0549 3.09539L11.3184 10.4499C11.2203 10.5969 11.0242 10.646 10.8526 10.5724L8.67074 9.59179C8.47462 9.49378 8.254 9.51826 8.08239 9.64083L6.97922 10.4008C6.80762 10.5234 6.56247 10.5479 6.36635 10.4499L5.82702 10.1802C5.48382 10.0085 5.06707 10.2047 4.969 10.5724L4.57676 12.313C4.47871 12.7297 4.65031 13.1465 5.01803 13.3672L5.85154 13.8819L8.52366 15.5245L9.82297 16.3334C10.1907 16.5541 10.6565 16.505 10.9751 16.2353L13.1569 14.3232C13.3285 14.1761 13.5982 14.1271 13.7943 14.2496L14.4562 14.5929C14.6769 14.7154 14.9465 14.6664 15.1181 14.4948L16.2214 13.4652C16.393 13.2935 16.6626 13.2691 16.8587 13.3672L18.5012 14.1271C18.7464 14.2496 19.0406 14.1761 19.2122 13.9554L19.9721 12.9749L25.733 5.5959C26.0027 5.2527 25.8311 4.73789 25.3899 4.63983L24.1152 4.34565C23.8454 4.29662 23.7229 3.95341 23.919 3.75729L25.9047 1.28129C26.1008 0.98711 25.9783 0.668422 25.6841 0.619392Z" fill="url(#paint0_linear_913_621)"/>
<path d="M6.68448 15.4754C6.56191 15.4018 6.43934 15.5243 6.48836 15.6469L7.10124 17.2649C7.15027 17.3874 7.15027 17.5101 7.12575 17.6327L6.58643 19.7409C6.56191 19.888 6.61094 20.0351 6.709 20.1086L8.25343 21.3099C8.40053 21.408 8.59664 21.408 8.71922 21.2854L10.3372 19.8635C10.4352 19.79 10.5578 19.7409 10.6559 19.7164L12.4945 19.5203C12.6171 19.4958 12.6661 19.3242 12.5435 19.2506L6.68448 15.4754Z" fill="url(#paint1_linear_913_621)"/>
<path d="M6.14545 20.9178C6.04739 20.8442 5.9003 20.8198 5.77773 20.8687L4.47844 21.5061C4.4049 21.5306 4.35586 21.6042 4.30683 21.6778L1.53666 28.5174C1.53666 28.542 1.53666 28.5419 1.53666 28.5664C1.56118 28.5909 1.58569 28.6155 1.63472 28.6155L2.2721 28.3703C2.29662 28.3703 2.32113 28.3703 2.34564 28.3703C2.37016 28.3948 2.39468 28.4439 2.37016 28.4683L0.384456 31.7289C0.335426 31.8024 0.433488 31.8759 0.482518 31.8024L7.66537 24.5951C7.73891 24.5214 7.76343 24.4479 7.78795 24.3499L7.93503 22.4867C7.93503 22.3641 7.88601 22.2661 7.81246 22.1925L6.14545 20.9178Z" fill="url(#paint2_linear_913_621)"/>
<defs>
<linearGradient id="paint0_linear_913_621" x1="15.2748" y1="0" x2="15.2748" y2="16.4724" gradientUnits="userSpaceOnUse">
<stop stop-color="white"/>
<stop offset="1" stop-color="white" stop-opacity="0.75"/>
</linearGradient>
<linearGradient id="paint1_linear_913_621" x1="9.54591" y1="15.4531" x2="9.54591" y2="21.3806" gradientUnits="userSpaceOnUse">
<stop stop-color="white"/>
<stop offset="1" stop-color="white" stop-opacity="0.75"/>
</linearGradient>
<linearGradient id="paint2_linear_913_621" x1="4.15306" y1="20.8433" x2="4.15306" y2="31.8328" gradientUnits="userSpaceOnUse">
<stop stop-color="white"/>
<stop offset="1" stop-color="white" stop-opacity="0.75"/>
</linearGradient>
</defs>
</svg>
