<svg width="21" height="25" viewBox="0 0 21 25" fill="none" xmlns="http://www.w3.org/2000/svg">
<path d="M20.7519 0.486441L17.4981 0.00512118C17.4018 -0.0141316 17.3056 0.0243716 17.2671 0.0628773L15.8809 1.87264C15.7846 1.98816 15.7654 2.14218 15.8038 2.27695C15.8424 2.41172 15.7269 2.52724 15.5921 2.50799L14.4562 2.25769C14.2829 2.21919 14.0904 2.27695 13.9749 2.43098L9.46971 8.20683C9.39268 8.32232 9.23867 8.36083 9.1039 8.30309L7.39039 7.53294C7.23637 7.45597 7.0631 7.47519 6.92833 7.57145L6.06195 8.16831C5.92718 8.26457 5.73465 8.2838 5.58063 8.20683L5.15707 7.99502C4.88753 7.86024 4.56023 8.01431 4.48322 8.30309L4.17517 9.67004C4.09816 9.99734 4.23293 10.3246 4.52172 10.4979L5.17632 10.9022L7.27488 12.1922L8.29529 12.8275C8.58407 13.0008 8.94989 12.9623 9.20016 12.7505L10.9136 11.2487C11.0484 11.1332 11.2602 11.0947 11.4142 11.191L11.934 11.4605C12.1073 11.5568 12.3191 11.5183 12.4539 11.3835L13.3203 10.5749C13.4551 10.4401 13.6668 10.4209 13.8208 10.4979L15.1108 11.0947C15.3033 11.191 15.5344 11.1332 15.6691 10.9599L16.2659 10.1899L20.7903 4.39476C21.0021 4.12522 20.8673 3.72091 20.5208 3.6439L19.5197 3.41286C19.3079 3.37436 19.2116 3.10482 19.3656 2.9508L20.9251 1.00626C21.0792 0.775229 20.9829 0.524947 20.7519 0.486441Z" fill="#8257E6"/>
<path d="M5.83117 12.1536C5.73491 12.0958 5.63865 12.192 5.67715 12.2883L6.15847 13.559C6.19698 13.6552 6.19698 13.7516 6.17773 13.8478L5.75417 15.5035C5.73491 15.619 5.77342 15.7346 5.85043 15.7923L7.06335 16.7357C7.17887 16.8127 7.33289 16.8127 7.42916 16.7165L8.69981 15.5998C8.77684 15.5421 8.8731 15.5035 8.95014 15.4843L10.3941 15.3302C10.4904 15.311 10.5288 15.1762 10.4326 15.1185L5.83117 12.1536Z" fill="#8257E6"/>
<path d="M5.40746 16.4279C5.33045 16.3702 5.21493 16.3509 5.11867 16.3894L4.09827 16.89C4.04052 16.9092 4.00201 16.967 3.9635 17.0248L1.78794 22.3963C1.78794 22.4156 1.78794 22.4155 1.78794 22.4348C1.80719 22.454 1.82644 22.4733 1.86495 22.4733L2.36552 22.2808C2.38478 22.2808 2.40402 22.2808 2.42328 22.2808C2.44253 22.3 2.46179 22.3385 2.44253 22.3578L0.883053 24.9184C0.844547 24.9762 0.92156 25.0339 0.960066 24.9762L6.60114 19.3159C6.65889 19.2581 6.67815 19.2003 6.69741 19.1233L6.81292 17.6601C6.81292 17.5638 6.77441 17.4868 6.71666 17.429L5.40746 16.4279Z" fill="#8257E6"/>
</svg>
