<svg width="40" height="25" viewBox="0 0 40 25" fill="none" xmlns="http://www.w3.org/2000/svg">
<path d="M7.86054 0H17.836C19.2285 0 20.0945 1.13499 19.7697 2.53209L15.1254 22.4718C14.7977 23.864 13.4035 25 12.01 25H2.03555C0.645016 25 -0.223006 23.864 0.101834 22.4718L4.74806 2.53209C5.0729 1.13499 6.46635 0 7.86054 0Z" fill="#E21836"/>
<path d="M17.0059 0H28.4774C29.8697 0 29.2419 1.13499 28.9143 2.53209L24.2708 22.4718C23.945 23.864 24.0466 25 22.6515 25H11.18C9.78479 25 8.92139 23.864 9.24915 22.4718L13.8925 2.53209C14.2222 1.13499 15.6127 0 17.0059 0Z" fill="#00447C"/>
<path d="M28.0225 0H37.998C39.3924 0 40.2585 1.13499 39.931 2.53209L35.2874 22.4718C34.9597 23.864 33.5645 25 32.1703 25H22.1995C20.8043 25 19.939 23.864 20.2658 22.4718L24.9101 2.53209C25.2349 1.13499 26.6274 0 28.0225 0Z" fill="#007B84"/>
<path d="M10.4656 6.39013C9.4398 6.40058 9.13684 6.39013 9.04007 6.36727C9.00287 6.54404 8.31064 9.73724 8.3087 9.73991C8.15965 10.3859 8.05121 10.8465 7.68284 11.1438C7.47374 11.3167 7.22962 11.4001 6.94661 11.4001C6.49168 11.4001 6.22666 11.1742 6.18216 10.7458L6.17365 10.5987C6.17365 10.5987 6.31224 9.73335 6.31224 9.72848C6.31224 9.72848 7.03876 6.81854 7.16884 6.43389C7.17565 6.41201 7.17759 6.40058 7.17929 6.39013C5.76517 6.40253 5.51449 6.39013 5.49723 6.36727C5.48775 6.39864 5.45273 6.57905 5.45273 6.57905L4.7109 9.85881L4.6472 10.137L4.52393 11.0468C4.52393 11.3167 4.57693 11.537 4.68246 11.7232C5.02042 12.3138 5.98449 12.4023 6.52986 12.4023C7.23254 12.4023 7.8917 12.253 8.33714 11.9805C9.11034 11.5236 9.31263 10.8095 9.49305 10.1749L9.57669 9.84933C9.57669 9.84933 10.3251 6.82705 10.4522 6.43389C10.4571 6.41201 10.4591 6.40058 10.4656 6.39013ZM13.012 8.82822C12.8316 8.82822 12.5019 8.87199 12.2057 9.01714C12.0983 9.07234 11.9966 9.13604 11.8894 9.1995L11.9862 8.8501L11.9332 8.79126C11.3051 8.91843 11.1646 8.93545 10.5844 9.01714L10.5358 9.04948C10.4685 9.60798 10.4087 10.0279 10.1589 11.1257C10.0639 11.5303 9.96516 11.9388 9.8662 12.3424L9.89294 12.3937C10.4874 12.3623 10.6678 12.3623 11.1845 12.3708L11.2263 12.3254C11.292 11.9891 11.3005 11.9103 11.4459 11.2293C11.5142 10.9064 11.6567 10.1969 11.727 9.94425C11.8561 9.88444 11.9835 9.8256 12.1051 9.8256C12.3946 9.8256 12.3594 10.0782 12.3482 10.1789C12.3358 10.3479 12.2303 10.8998 12.1221 11.3737L12.0499 11.6796C11.9995 11.9054 11.9443 12.125 11.894 12.3489L11.9159 12.3937C12.5019 12.3623 12.6806 12.3623 13.181 12.3708L13.2398 12.3254C13.3303 11.8002 13.3568 11.6596 13.5172 10.8949L13.598 10.5436C13.7548 9.85599 13.8336 9.50732 13.7149 9.22333C13.5895 8.90506 13.2884 8.82822 13.012 8.82822ZM15.8566 9.54814C15.5451 9.60796 15.3465 9.64783 15.149 9.67361C14.9533 9.70497 14.7624 9.73342 14.4614 9.77524L14.4376 9.79688L14.4157 9.81414C14.3843 10.0383 14.3625 10.2321 14.3209 10.4599C14.2856 10.6955 14.2314 10.9632 14.1431 11.3479C14.0748 11.6423 14.0396 11.7449 14.0007 11.8485C13.9627 11.9521 13.9209 12.0528 13.8441 12.3423L13.8621 12.3691L13.8771 12.3937C14.1585 12.3803 14.3425 12.3708 14.5317 12.3691C14.7206 12.3623 14.9163 12.3691 15.2193 12.3708L15.2458 12.3492L15.2742 12.3253C15.318 12.0642 15.3246 11.9939 15.3513 11.8665C15.3778 11.7299 15.4235 11.5407 15.5356 11.0355C15.5886 10.7981 15.6477 10.5616 15.7027 10.3194C15.7598 10.0782 15.8196 9.84065 15.8765 9.60334L15.868 9.57465L15.8566 9.54814ZM15.8632 8.57747C15.5802 8.41043 15.0834 8.46343 14.7491 8.69418C14.4158 8.9203 14.3778 9.24125 14.6599 9.41048C14.938 9.5729 15.4367 9.52451 15.7681 9.29182C16.1008 9.06084 16.1423 8.74281 15.8632 8.57747ZM17.5748 12.446C18.1474 12.446 18.7344 12.2882 19.1762 11.8199C19.5161 11.4401 19.6719 10.8751 19.7259 10.6424C19.9017 9.87111 19.7648 9.51102 19.5929 9.2917C19.3318 8.95738 18.8703 8.85015 18.3915 8.85015C18.1037 8.85015 17.418 8.8786 16.8823 9.37243C16.4977 9.72863 16.32 10.212 16.2127 10.6754C16.1045 11.1476 15.98 11.9976 16.7617 12.314C17.0029 12.4176 17.3506 12.446 17.5748 12.446ZM17.5301 10.7107C17.6621 10.1267 17.818 9.63648 18.2157 9.63648C18.5274 9.63648 18.5501 10.0012 18.4115 10.5872C18.3867 10.7173 18.2729 11.2009 18.119 11.4068C18.0115 11.5588 17.8843 11.6509 17.7438 11.6509C17.702 11.6509 17.4532 11.6509 17.4494 11.2816C17.4474 11.0992 17.4846 10.913 17.5301 10.7107ZM21.1573 12.3709L21.202 12.3254C21.2655 11.9892 21.2759 11.9101 21.4165 11.2293C21.4867 10.9064 21.6321 10.1969 21.7005 9.94432C21.8298 9.88427 21.955 9.82543 22.0805 9.82543C22.3681 9.82543 22.3331 10.0781 22.3217 10.1787C22.3112 10.3479 22.2057 10.8996 22.0956 11.3735L22.0273 11.6794C21.975 11.9055 21.9181 12.1248 21.8678 12.349L21.8896 12.3937C22.4776 12.3624 22.6495 12.3624 23.1528 12.3709L23.2136 12.3254C23.3018 11.8 23.3256 11.6595 23.491 10.895L23.5698 10.5434C23.7273 9.85582 23.8071 9.50739 23.6904 9.2234C23.5612 8.90513 23.2583 8.82829 22.9857 8.82829C22.8051 8.82829 22.4737 8.87182 22.1792 9.01722C22.0739 9.07241 21.9684 9.13587 21.8648 9.19957L21.955 8.85018L21.9067 8.79109C21.2789 8.9185 21.1354 8.93552 20.556 9.01722L20.5115 9.04956C20.4412 9.60806 20.3841 10.0277 20.1344 11.1258C20.0393 11.5303 19.9406 11.9388 19.8419 12.3424L19.8684 12.3937C20.4638 12.3624 20.6416 12.3624 21.1573 12.3709ZM25.4769 12.3936C25.5138 12.2132 25.7334 11.1439 25.7353 11.1439C25.7353 11.1439 25.9223 10.3592 25.9337 10.3308C25.9337 10.3308 25.9926 10.2491 26.0514 10.2168H26.138C26.9547 10.2168 27.8769 10.2168 28.5998 9.68501C29.0917 9.3203 29.4279 8.78173 29.578 8.12719C29.6169 7.96672 29.6455 7.77585 29.6455 7.58498C29.6455 7.3343 29.5952 7.08629 29.4498 6.89251C29.0812 6.3768 28.3472 6.36732 27.4998 6.36343C27.4971 6.36343 27.0821 6.36732 27.0821 6.36732C25.9974 6.38069 25.5624 6.3768 25.3837 6.35492C25.3687 6.43394 25.3402 6.57448 25.3402 6.57448C25.3402 6.57448 24.9517 8.3752 24.9517 8.37811C24.9517 8.37811 24.0219 12.2066 23.9781 12.3871C24.9252 12.3756 25.3135 12.3756 25.4769 12.3936ZM26.1968 9.19483C26.1968 9.19483 26.6099 7.39776 26.608 7.40457L26.6213 7.31242L26.6272 7.24215L26.7923 7.25917C26.7923 7.25917 27.6442 7.33236 27.6642 7.3343C28.0004 7.46438 28.139 7.79968 28.0423 8.23733C27.954 8.63731 27.6946 8.97357 27.3612 9.13599C27.0867 9.27361 26.7504 9.28504 26.404 9.28504H26.1798L26.1968 9.19483ZM28.7689 10.744C28.6597 11.2093 28.5342 12.0594 29.312 12.3623C29.5601 12.4679 29.7823 12.4992 30.0082 12.4878C30.2467 12.4749 30.4677 12.3553 30.6724 12.1831C30.654 12.2539 30.6355 12.3246 30.617 12.3956L30.6523 12.4411C31.2117 12.4175 31.3853 12.4175 31.9915 12.4221L32.0464 12.3803C32.1349 11.86 32.2183 11.3547 32.4484 10.3593C32.5604 9.88251 32.6723 9.41033 32.7873 8.93547L32.7693 8.8832C32.1435 8.99918 31.9762 9.02398 31.3741 9.10932L31.3284 9.14652C31.3224 9.19491 31.316 9.24135 31.3102 9.28779C31.2166 9.13655 31.0809 9.00744 30.8716 8.92696C30.6039 8.82168 29.9751 8.95736 29.4346 9.44948C29.0548 9.80082 28.8724 10.2822 28.7689 10.744ZM30.0833 10.7724C30.2173 10.1988 30.3712 9.71353 30.7699 9.71353C31.0221 9.71353 31.1548 9.94622 31.1278 10.343C31.1064 10.442 31.0833 10.5463 31.0559 10.6642C31.016 10.8347 30.9727 11.0036 30.9307 11.1729C30.8879 11.2886 30.838 11.3978 30.7833 11.4705C30.6807 11.6159 30.4366 11.7061 30.296 11.7061C30.2562 11.7061 30.0101 11.7061 30.0016 11.3433C29.9997 11.1627 30.0369 10.9767 30.0833 10.7724ZM36.9474 8.87855L36.899 8.82336C36.2797 8.94882 36.1676 8.96876 35.5986 9.04559L35.5568 9.08741C35.5549 9.09422 35.5532 9.10468 35.5503 9.11416L35.5483 9.10468C35.1248 10.0819 35.1372 9.87106 34.7924 10.6404C34.7904 10.6054 34.7904 10.5835 34.7885 10.5463L34.7022 8.87855L34.648 8.82336C33.9992 8.94882 33.9839 8.96876 33.3848 9.04559L33.3381 9.08741C33.3316 9.10735 33.3316 9.12923 33.3277 9.15306L33.3316 9.16157C33.4065 9.54428 33.3885 9.45894 33.4636 10.0629C33.4986 10.3593 33.5453 10.6574 33.5803 10.9501C33.6394 11.4401 33.6725 11.6813 33.7447 12.4289C33.3401 13.0966 33.2443 13.3492 32.8548 13.9352L32.8574 13.941L32.5832 14.3748C32.5518 14.4205 32.5234 14.4519 32.4835 14.4653C32.4397 14.4869 32.3828 14.4908 32.3038 14.4908H32.1518L31.926 15.2421L32.7009 15.2555C33.1558 15.2535 33.4417 15.0408 33.5956 14.7548L34.0829 13.9199H34.0751L34.1264 13.861C34.4542 13.1554 36.9474 8.87855 36.9474 8.87855ZM28.7688 18.7459H28.4401L29.6568 14.7217H30.0604L30.1886 14.3071L30.201 14.7681C30.1859 15.0531 30.4101 15.3057 30.999 15.2639H31.68L31.9144 14.489H31.6581C31.5108 14.489 31.4424 14.4518 31.451 14.372L31.4386 13.903H30.1774V13.9054C29.7696 13.9139 28.552 13.9446 28.3054 14.0102C28.0071 14.087 27.6927 14.3132 27.6927 14.3132L27.8162 13.8981H26.6365L26.3907 14.7217L25.1577 18.8074H24.9184L24.6838 19.5767H27.0335L26.9548 19.8333H28.1126L28.1894 19.5767H28.5143L28.7688 18.7459ZM27.8048 15.5393C27.6159 15.5916 27.2643 15.7501 27.2643 15.7501L27.577 14.7217H28.5143L28.2881 15.471C28.2881 15.471 27.9986 15.488 27.8048 15.5393ZM27.8228 17.0087C27.8228 17.0087 27.5283 17.0456 27.3345 17.0894C27.1437 17.1473 26.7858 17.3296 26.7858 17.3296L27.1087 16.2593H28.0508L27.8228 17.0087ZM27.2976 18.7554H26.3573L26.6299 17.8521H27.5672L27.2976 18.7554ZM29.5619 16.2593H30.9172L30.7224 16.89H29.3491L29.1429 17.5796H30.3446L29.4347 18.8607C29.371 18.9548 29.3139 18.9881 29.2504 19.0146C29.1867 19.0469 29.1031 19.0849 29.0063 19.0849H28.6729L28.4439 19.8401H29.3158C29.769 19.8401 30.0367 19.6339 30.2344 19.3633L30.8583 18.5093L30.9923 19.3764C31.0207 19.5388 31.1374 19.6339 31.2165 19.6708C31.3038 19.7146 31.394 19.7897 31.5214 19.8009C31.658 19.8068 31.7567 19.8114 31.8224 19.8114H32.2508L32.508 18.9662H32.3391C32.242 18.9662 32.075 18.9499 32.0466 18.9195C32.0181 18.8826 32.0181 18.8257 32.0028 18.7391L31.8669 17.8701H31.3103L31.5544 17.5796H32.925L33.1358 16.89H31.8669L32.0646 16.2593H33.3296L33.5643 15.4815H29.7926L29.5619 16.2593ZM18.1151 18.931L18.4315 17.8787H19.7315L19.9691 17.096H18.6678L18.8664 16.4483H20.1381L20.3737 15.6904H17.1919L16.9612 16.4483H17.684L17.4912 17.096H16.7664L16.5262 17.8921H17.2488L16.8272 19.2843C16.7703 19.4686 16.8539 19.5389 16.9069 19.6245C16.9612 19.7079 17.0161 19.7631 17.1396 19.7944C17.267 19.8229 17.3543 19.8399 17.473 19.8399H18.9387L19.1998 18.9728L18.5501 19.0621C18.4246 19.0621 18.0772 19.047 18.1151 18.931ZM18.2642 13.8934L17.9348 14.4888C17.8643 14.6189 17.8008 14.6996 17.7437 14.7368C17.6933 14.7682 17.5937 14.7813 17.4492 14.7813H17.2773L17.0476 15.5431H17.6185C17.893 15.5431 18.1038 15.4424 18.2044 15.3921C18.3126 15.3343 18.3411 15.3673 18.4247 15.2866L18.6175 15.1196H20.4003L20.6368 14.3264H19.3319L19.5597 13.8934H18.2642ZM20.8961 18.9463C20.8657 18.9026 20.8876 18.8255 20.9341 18.665L21.4213 17.0522H23.1547C23.4073 17.0486 23.5897 17.0457 23.7083 17.0372C23.8357 17.0238 23.9743 16.9783 24.1253 16.8966C24.2812 16.811 24.3609 16.7208 24.4283 16.6172C24.5034 16.5139 24.624 16.2878 24.7276 15.9391L25.3401 13.8982L23.5413 13.9086C23.5413 13.9086 22.9874 13.9903 22.7435 14.0805C22.4975 14.1812 22.1459 14.4623 22.1459 14.4623L22.3083 13.9028H21.1971L19.6415 19.0621C19.5863 19.2624 19.5494 19.4078 19.5408 19.4951C19.5379 19.5892 19.6595 19.6823 19.7383 19.7526C19.8314 19.8228 19.969 19.8114 20.1011 19.8228C20.2399 19.8333 20.4373 19.8399 20.7099 19.8399H21.5638L21.8259 18.9548L21.0615 19.027C20.9798 19.027 20.9207 18.9833 20.8961 18.9463ZM21.7357 15.9629H23.5564L23.4406 16.3257C23.4243 16.3342 23.3854 16.3077 23.2002 16.3296H21.6236L21.7357 15.9629ZM22.1004 14.7463H23.9364L23.8044 15.1832C23.8044 15.1832 22.939 15.1747 22.8004 15.2002C22.1906 15.3057 21.8344 15.6315 21.8344 15.6315L22.1004 14.7463ZM23.4814 17.5405C23.4663 17.5948 23.4425 17.6278 23.4092 17.6526C23.3722 17.6765 23.3124 17.685 23.2232 17.685H22.9637L22.979 17.2432H21.9L21.8562 19.403C21.8545 19.5589 21.8696 19.6491 21.9836 19.7213C22.0976 19.8115 22.449 19.8229 22.9219 19.8229H23.5981L23.8422 19.0145L23.2535 19.0468L23.0578 19.0582C23.0311 19.0468 23.0055 19.0364 22.9771 19.0079C22.9523 18.9833 22.9105 18.9984 22.9173 18.8426L22.9219 18.2889L23.5392 18.2634C23.8726 18.2634 24.0151 18.155 24.1366 18.0516C24.2526 17.9527 24.2906 17.8389 24.3343 17.685L24.4379 17.1948H23.5896L23.4814 17.5405Z" fill="#FEFEFE"/>
</svg>
