<svg width="40" height="25" viewBox="0 0 40 25" fill="none" xmlns="http://www.w3.org/2000/svg">
<path fill-rule="evenodd" clip-rule="evenodd" d="M0.504883 3.51351C0.504883 3.17919 0.504883 3.01203 0.518197 2.87118C0.653721 1.43748 1.78886 0.302342 3.22256 0.166818C3.36341 0.153503 3.53057 0.153503 3.86488 0.153503H36.5071C36.8414 0.153503 37.0086 0.153503 37.1494 0.166818C38.5831 0.302342 39.7183 1.43748 39.8538 2.87118C39.8671 3.01203 39.8671 3.17919 39.8671 3.5135V21.4866C39.8671 21.8209 39.8671 21.9881 39.8538 22.1289C39.7183 23.5626 38.5831 24.6977 37.1494 24.8333C37.0086 24.8466 36.8414 24.8466 36.5071 24.8466H3.86489C3.53057 24.8466 3.36341 24.8466 3.22256 24.8333C1.78886 24.6977 0.653721 23.5626 0.518197 22.1289C0.504883 21.9881 0.504883 21.8209 0.504883 21.4866V3.51351Z" fill="white"/>
<path fill-rule="evenodd" clip-rule="evenodd" d="M40.0001 2.84768C40.0001 0.944283 39.0109 0 37.0921 0H3.27942C2.32031 0 1.6158 0.254816 1.15107 0.779277C0.626611 1.30395 0.371582 1.97838 0.371582 2.84768V22.1523C0.371582 23.0216 0.626611 23.681 1.15107 24.2205C1.69078 24.7452 2.38025 25 3.27942 25H37.0921C39.0109 25 40.0001 24.0411 40.0001 22.1525V2.84768ZM37.0921 0.449688C38.6807 0.449688 39.4903 1.25904 39.4903 2.84768V22.1523C39.4903 23.7558 38.6807 24.5501 37.0921 24.5501H3.27942C2.51497 24.5501 1.93056 24.3254 1.49591 23.8757C1.04622 23.4408 0.821483 22.8414 0.821483 22.1521V2.84768C0.821483 1.25904 1.6158 0.449688 3.27942 0.449688H37.0921Z" fill="#315881"/>
<path fill-rule="evenodd" clip-rule="evenodd" d="M3.54879 1.55872C2.90444 1.55872 2.49966 1.66357 2.27492 1.88852C2.08005 2.14333 1.99023 2.56294 1.99023 3.17743V7.35892H38.3809V3.17743C38.3809 2.08339 37.841 1.55872 36.762 1.55872H3.54879Z" fill="#315881"/>
<path fill-rule="evenodd" clip-rule="evenodd" d="M1.99023 21.7626C1.99023 22.8712 2.51469 23.441 3.54879 23.441H36.762C37.841 23.441 38.3809 22.8714 38.3809 21.7626V17.5809H1.99023V21.7626Z" fill="#DFA43B"/>
<path fill-rule="evenodd" clip-rule="evenodd" d="M14.041 9.14271C14.041 9.33758 14.0109 9.48734 13.9361 9.5924L11.3132 14.1638L11.1482 8.58817H6.95166L8.36046 9.2626C8.76503 9.51741 8.97494 9.847 8.97494 10.2668L9.36448 16.1873H11.4178L16.3341 8.58817H13.8162C13.966 8.7231 14.041 8.9328 14.041 9.14271ZM31.0076 8.81291L31.1722 8.58796H28.6092C28.699 8.67777 28.7291 8.72289 28.7291 8.75275C28.6988 8.87243 28.6388 8.94762 28.6092 9.03743L24.8772 15.8419C24.7873 15.9618 24.6971 16.0668 24.5925 16.1869H26.7058L26.6007 15.962C26.6007 15.7671 26.7058 15.4076 26.9305 14.898L27.3802 14.0586H29.5535C29.6437 14.7631 29.7036 15.3477 29.7335 15.7826L29.5535 16.1871H32.1764L31.7867 15.6176L31.0076 8.81291ZM29.4486 12.9946H27.8898L29.2237 10.4316L29.4486 12.9946ZM22.9738 8.19843C22.1646 8.19843 21.4749 8.42338 20.8605 8.87285C20.1858 9.2626 19.8562 9.75719 19.8562 10.3719C19.8562 11.0764 20.096 11.6909 20.5756 12.1554L22.0297 13.1594C22.5544 13.5343 22.8092 13.8639 22.8092 14.1638C22.8092 14.4485 22.6738 14.7033 22.4194 14.8982C22.1646 15.0931 21.8795 15.1829 21.5201 15.1829C20.9954 15.1829 20.0962 14.8084 18.8522 14.1189V15.5127C19.8264 16.0973 20.7709 16.3973 21.6849 16.3973C22.5544 16.3973 23.2887 16.1573 23.9185 15.6178C24.5929 15.123 24.9225 14.5388 24.9225 13.8942C24.9225 13.3543 24.6825 12.8599 24.143 12.3352L22.7488 11.331C22.2847 10.9563 22.0297 10.6265 22.0297 10.3719C22.0297 9.78748 22.3743 9.48755 23.0788 9.48755C23.5584 9.48755 24.2629 9.7574 25.207 10.327L25.4921 8.87306C24.6973 8.42316 23.8731 8.19843 22.9738 8.19843ZM17.3983 16.1871C17.3682 15.8724 17.3083 15.5877 17.2782 15.2878L19.1818 9.14271L19.6315 8.58817H16.8887C16.9187 8.7231 16.9486 8.90293 16.9787 9.03786C16.9787 9.17279 16.9787 9.33779 16.9486 9.48755L15.0452 15.5726L14.6555 16.1873H17.3983V16.1871Z" fill="#315881"/>
</svg>
